<?xml version="1.0" encoding="utf-8"?>
<!-- Generator: Adobe Illustrator 19.2.1, SVG Export Plug-In . SVG Version: 6.00 Build 0)  -->
<svg version="1.1" id="layer" xmlns="http://www.w3.org/2000/svg" xmlns:xlink="http://www.w3.org/1999/xlink" x="0px" y="0px"
	 viewBox="0 0 652 652" style="enable-background:new 0 0 652 652;" xml:space="preserve">
<style type="text/css">
	.st0{fill:#0085FB;}
</style>
<path class="st0" d="M191.6,307.3c9.8,4.3,17.6,10.8,23.4,19.5c5.8,8.7,8.7,18.5,8.7,29.5c0,9.7-2.4,18.5-7.1,26.6
	c-4.6,8-11.3,14.6-19.3,19.2c-8.1,4.7-17,7.1-26.7,7.1h-22.4v5.7c0,3-1.2,5.6-3.6,7.7c-2.4,2.2-5.4,3.2-8.9,3.2c-3,0-5.7-1.1-8-3.2
	c-2.3-2.2-3.5-4.8-3.5-7.8v-5.7H84.3c-3.5,0-6.4-1.3-8.7-3.9c-2.3-2.6-3.4-5.7-3.2-9.4c0.7-2.8,2.2-5.3,4.7-7.5
	c2.5-2.2,5.2-3.2,8-3.2h84.5c5.3,0,10.2-1.3,14.7-4c4.4-2.6,8.2-6.3,10.8-10.7c2.7-4.3,4.1-9.4,4.1-14.5c0-6.8-2.2-12.8-6.5-18
	c-4.3-5.2-9.7-8.5-16.2-10c-1.3-0.7-3.7-1-7-1h-22.9c-3.2,0.1-6.3-1.1-8.6-3.2c-2.4-2.2-3.9-4.7-4.4-7.7c-0.3-3.5,0.6-6.4,2.9-8.7
	c2.2-2.3,5.1-3.6,8.6-3.7h10.2c6-0.5,11-3,15.1-7.6c4.1-4.6,6.1-10,6.1-16.4c0-6.7-2.2-12.2-6.5-16.6c-4.3-4.4-9.7-6.6-16.2-6.6
	h-48.6c-3,0-5.6-1.1-7.7-3.4c-2.2-2.2-3.2-4.9-3.2-7.9c0-3.2,1.1-5.9,3.2-8.1c2.2-2.2,4.7-3.4,7.7-3.4h19v-5.2c0-3.2,1.2-5.8,3.5-8
	c2.3-2.2,5-3.2,8-3.2c3.5,0,6.4,1.1,8.9,3.2c2.4,2.2,3.6,4.8,3.6,8v5.2h5.7c8.5,0,16.3,2.1,23.4,6.2c7.1,4.1,13,9.9,17.1,17
	c4.2,7.2,6.4,15,6.4,23.5C200.8,289.9,197.7,298.9,191.6,307.3z M140.9,281.3c0,3-1.2,5.7-3.7,8.2c-2.5,2.5-5.3,3.7-8.5,3.7H75.4
	c-3.3,0-6.1-1.2-8.4-3.7s-3.4-5.2-3.4-8.2c0-3.3,1.1-6.3,3.4-8.9s5-3.9,8.4-3.9h53.4c3.2,0,6,1.3,8.5,3.9
	C139.7,275,140.9,277.9,140.9,281.3z M98.1,316c0,3.5-1.1,6.4-3.4,8.7c-2.2,2.3-5.2,3.5-8.9,3.5H32.7c-3.5,0-6.4-1.2-8.7-3.6
	c-2.3-2.3-3.5-5.4-3.5-8.6c0-3.2,1.2-5.8,3.5-8c2.3-2.2,5.2-3.2,8.7-3.2h53.1c3.7,0,6.6,1,8.9,3.1C96.9,310,98.1,312.7,98.1,316
	L98.1,316z M143.4,356.2c0,3.2-1.2,6.4-3.4,8.7c-2.2,2.5-4.9,3.8-8.1,3.8H56.2c-3.2,0-5.9-1.2-8.1-3.8c-2.2-2.4-3.4-5.5-3.4-8.7
	c0-3.3,1.1-6.1,3.2-8.2c2.2-2.2,4.9-3.2,8.2-3.2H132c3.2,0,5.9,1.1,8.1,3.2C142.3,350.2,143.4,352.9,143.4,356.2z M313.5,296
	c0,3.3-1.1,6.1-3.4,8.2c-2.2,2.2-5.1,3.2-8.6,3.2h-5.2c-2,0-3.9,0.3-5.7,0.8c-4.8,0.7-10,3.6-15.5,8.7c-5.3,7.5-8,16-8,25.5v55.7
	c0,3.2-1.2,5.9-3.5,8.2c-2.2,2.3-5.3,3.6-8.5,3.5c-3.3,0-6.1-1.2-8.2-3.5c-2.1-2.2-3.3-5.2-3.2-8.2V296c0-3.2,1.1-5.8,3.4-8
	c2.2-2.1,5.1-3.3,8.1-3.2c3.1,0,6,1.1,8.2,3.2c2.3,2.2,3.6,4.8,3.7,8c2-2.3,3.8-4,5.5-5c4.2-3.3,10.1-5.5,17.7-6.5
	c6.2-0.3,11.6,0.3,16.2,1.8C311.2,287.8,313.5,291,313.5,296L313.5,296z M347.2,354.2c-0.5,0-1,0.2-1.4,0.5
	c-0.4,0.3-0.6,0.8-0.6,1.5v3.2c0,8.5,2.8,15.2,8.5,20.2c5.3,5.2,12.6,7.7,21.7,7.7c2.7,0,5.1-0.2,7.2-0.8c4.8-1.2,9-3.1,12.5-5.7
	c0.5-0.5,1.4-1.1,2.7-1.9c1.4-0.8,2.9-1.1,4.5-1.1h0.2c2.2,0,4.2,0.7,6,2c1.8,1.3,3.2,3.1,4,5.2c0.3,1.7,0.5,2.8,0.5,3.5
	c0,1.7-0.4,3.2-1.2,4.5c-1.7,3.3-5.2,6.5-10.5,9.5c-7.2,4.2-16,6.2-26.4,6.2c-15.3,0-27.9-4.6-37.9-13.7
	c-9.8-9.3-14.7-21.5-14.7-36.5v-26c0-13.3,4.7-24.8,14-34.5c9.1-9.7,20.3-14.5,33.4-14.5c12.3,0,23,4.5,32.2,13.5
	c7.3,7.3,11.6,16.3,13,27l0.3,1.8c0.2,1.2,0.2,3.2,0.2,6l-0.2,8.5c0,3.7-1.3,6.9-4,9.6c-2.5,2.7-6,4.2-9.7,4.1H347.2L347.2,354.2z
	 M345.2,330c0,1.2,0.5,2.3,1.4,3.1c0.9,0.9,2,1.4,3.1,1.4h39.2c1.2,0,2.2-0.5,3-1.4c0.8-0.9,1.2-2,1.2-3.1v-1.5
	c0-3.3-0.5-6.3-1.6-8.9c-1.1-2.6-2.9-5.2-5.4-7.9c-4.5-5.2-10.1-7.7-16.7-7.7c-6.6,0-12.3,2.4-17,7.2c-4.8,4.8-7.2,10.7-7.2,17.7
	L345.2,330L345.2,330z M455.2,354.2c-0.5,0-1,0.2-1.4,0.5c-0.4,0.3-0.6,0.8-0.6,1.5v3.2c0,8.5,2.8,15.2,8.5,20.2
	c5.3,5.2,12.6,7.7,21.7,7.7c2.4,0,4.9-0.2,7.2-0.8c4.8-1.2,9-3.1,12.5-5.7c0.5-0.5,1.4-1.1,2.7-1.9c1.4-0.8,2.9-1.1,4.5-1.1h0.2
	c2.2,0,4.2,0.7,6,2c1.8,1.3,3.2,3.1,4,5.2c0.3,1.7,0.5,2.8,0.5,3.5c0,1.7-0.4,3.2-1.2,4.5c-1.7,3.3-5.2,6.5-10.5,9.5
	c-7.1,4.2-16,6.2-26.4,6.2c-15.3,0-27.9-4.6-37.9-13.7c-9.8-9.3-14.7-21.5-14.7-36.5v-26c0-13.3,4.7-24.8,14-34.5
	c9.1-9.7,20.3-14.5,33.4-14.5c12.3,0,23,4.5,32.2,13.5c7.3,7.3,11.6,16.3,13,27l0.2,1.8c0.2,1.2,0.2,3.2,0.2,6l-0.2,8.5
	c0,3.7-1.3,6.9-4,9.6c-2.5,2.7-6,4.2-9.7,4.1H455.2L455.2,354.2z M453.2,330c0,1.2,0.5,2.3,1.4,3.1c0.9,0.9,2,1.4,3.1,1.4h39.2
	c1.2,0,2.2-0.5,3-1.4c0.8-0.9,1.2-2,1.2-3.1v-1.5c0-3.3-0.5-6.3-1.6-8.9c-1.1-2.6-2.9-5.2-5.4-7.9c-4.5-5.2-10.1-7.7-16.7-7.7
	s-12.3,2.4-17,7.2c-4.8,4.8-7.2,10.7-7.2,17.7V330z M609.5,384.5c3.2,0,5.8,1,7.9,3.1c2.1,2.1,3.1,4.6,3.1,7.6c0,3.2-1,5.9-3.1,8.1
	c-2.1,2.2-4.7,3.4-7.9,3.4h-65.1c-3,0-5.6-1.1-7.9-3.4c-2.2-2.1-3.4-5.1-3.4-8.1c0-1,0.3-2.2,0.9-3.5c0.6-1.3,1-2.2,1.4-2.8
	l47.9-77.2c0.2-0.2,0.2-0.5,0.2-1c0-0.5-0.2-1-0.5-1.4c-0.3-0.4-0.8-0.6-1.5-0.6h-36.7c-2.9,0-5.6-1.1-7.6-3.2
	c-2.1-2.2-3.1-4.8-3.1-8c0-3.2,1.2-5.7,3.5-7.7c2.2-2,5-3,8-3h59.6c3.2,0,5.8,1,8,3.1c2.2,2.1,3.2,4.7,3.2,7.9c0,2.2-0.7,4.2-2,6
	L566.6,381c-0.2,0.4-0.3,0.8-0.2,1.2c0,0.7,0.2,1.2,0.5,1.6c0.3,0.4,0.8,0.6,1.2,0.6H609.5L609.5,384.5z"/>
</svg>
