<?xml version="1.0" encoding="utf-8"?>
<!-- Generator: Adobe Illustrator 27.5.0, SVG Export Plug-In . SVG Version: 6.00 Build 0)  -->
<svg version="1.1" id="Layer_1" xmlns="http://www.w3.org/2000/svg" xmlns:xlink="http://www.w3.org/1999/xlink" x="0px" y="0px"
	 viewBox="0 0 1731.9 433.7" style="enable-background:new 0 0 1731.9 433.7;" xml:space="preserve">
<style type="text/css">
	.st0{fill:#EFCF03;}
	.st1{fill:#FFFFFF;}
</style>
<g>
	<g>
		<path class="st0" d="M232.6,102.2l72.2-85.5L0,247.3h34h76.1h47.1L372.6,0L232.6,102.2z M18,241.3L265,54.5l-53.2,63L42.3,241.3
			H18z"/>
		<path class="st1" d="M412.9,186.4h-34h-76.1h-47.1L40.3,433.7l140-102.3l-72.2,85.5L412.9,186.4z M370.6,192.4h24.2l-247,186.8
			l53.2-63L370.6,192.4z"/>
	</g>
	<g>
		<polygon class="st0" points="1199.4,261.1 1199.4,151.7 1174.9,151.7 1174.9,282.8 1248.6,282.8 1259,261.1 		"/>
		<rect x="1290.7" y="151.7" class="st0" width="24.5" height="131.1"/>
		<polygon class="st0" points="1571.3,151.7 1571.3,205.8 1525.1,205.8 1525.1,151.7 1500.6,151.7 1500.6,282.8 1525.1,282.8 
			1525.1,227.3 1571.3,227.3 1571.3,282.8 1595.8,282.8 1595.8,151.7 		"/>
		<polygon class="st0" points="1731.9,151.7 1638.4,151.7 1627.9,173.4 1667.7,173.4 1667.7,282.8 1692.2,282.8 1692.2,173.4 
			1721.5,173.4 		"/>
		<g>
			<path class="st0" d="M1395.3,282.4c1.6,0.4,3.3,0.7,5,0.9h0.4c2.7,0.3,5,0.5,7.2,0.5c1.9,0,3.9-0.1,6-0.3c0.1,0,0.2,0,0.2,0
				c0.1,0,0.1,0,0.2,0s0.2,0,0.3-0.1c0.1,0,0.3-0.1,0.4-0.1c13.6-1.1,25.1-6.2,34-15.2c9-9,12.5-20.2,12.5-39.9v-18.8h-37.8
				l-11.1,20.6h23.8h0.5v0.5v5c0,7.8-2,13.8-6.1,17.9c-5.1,5.2-11.2,6.8-15.9,7.5c-1.9,0.3-3.8,0.4-5.6,0.4
				c-16.3,0-32.7-13.7-32.7-44.2c0-22.1,9.8-44.5,31.7-44.5c1.6,0,3.2,0.1,4.8,0.3c9,1.5,19.4,7.4,22.8,17.3l20.9-12.3
				c-2.4-4.8-14-24.3-42.3-27.2h-0.4l0,0h-0.1c-2.2-0.2-4.2-0.3-6.1-0.3c-4.2,0-8.5,0.5-12.6,1.5l-0.6,0.1l-0.3,0.1
				c-0.8,0.2-1.6,0.4-2.4,0.7c-25.5,7.3-41,31.9-40.4,64.4c0,32.9,15.9,57.6,41.4,64.4v0.3h0.1l0,0l0.1-0.2
				C1393.9,282.1,1394.6,282.2,1395.3,282.4z"/>
		</g>
		<polygon class="st0" points="1132.8,283.9 1132.8,152.8 1108.3,152.8 1108.3,235.6 1107,233.6 1054.7,152.8 1032.8,152.8 
			1032.8,283.9 1057.2,283.9 1057.2,200.9 1110.8,283.9 		"/>
		<g>
			<path class="st0" d="M537.3,281.6c1.6,0.4,3.3,0.7,5,0.9h0.4c2.7,0.3,5,0.5,7.2,0.5c1.9,0,3.9-0.1,6-0.3c0.1,0,0.2,0,0.2,0
				c0.1,0,0.1,0,0.2,0c0.1,0,0.2,0,0.3-0.1c0.1,0,0.3-0.1,0.4-0.1c13.6-1.1,25.1-6.2,34-15.2c9-9,12.5-20.2,12.5-39.9v-18.8h-37.8
				l-11.1,20.6h23.8h0.5v0.5v5c0,7.8-2,13.8-6.1,17.9c-5.1,5.2-11.2,6.8-15.9,7.5c-1.9,0.3-3.8,0.4-5.6,0.4
				c-16.3,0-32.7-13.7-32.7-44.2c0-22.1,9.8-44.5,31.7-44.5c1.6,0,3.2,0.1,4.8,0.3c9,1.5,19.4,7.4,22.8,17.3l20.9-12.3
				c-2.4-4.8-14-24.3-42.3-27.2h-0.4l0,0H556c-2.2-0.2-4.2-0.3-6.1-0.3c-4.2,0-8.5,0.5-12.6,1.5l-0.6,0.1l-0.3,0.1
				c-0.8,0.2-1.6,0.4-2.4,0.7c-25.5,7.3-41,31.9-40.4,64.4c0,32.9,15.9,57.6,41.4,64.4v0.3h0.1l0,0l0.1-0.2
				C535.8,281.3,536.5,281.5,537.3,281.6z"/>
		</g>
		<path class="st0" d="M708.5,283.9h28.1L703.5,229l0.9-0.2c2.9-0.6,5.4-1.3,7.8-2c14.8-5.4,23.7-18.1,23.7-34.1
			c0-23.5-17.4-39.9-42.3-39.9h-51.2v131.1h24.5v-52.8h10.6L708.5,283.9z M667,174.5h25.1c11.5,0,19.5,7.5,19.5,18.2
			s-8,18.2-19.5,18.2H667V174.5z"/>
		<polygon class="st0" points="990.8,174.3 990.8,152.8 905,152.8 905,283.9 990.8,283.9 990.8,262.4 929.2,262.4 929.2,228.5 
			981.6,228.5 981.6,207 929.2,207 929.2,174.3 		"/>
		<polygon class="st0" points="862.8,174.3 862.8,152.8 777,152.8 777,283.9 862.8,283.9 862.8,262.4 801.3,262.4 801.3,228.5 
			853.7,228.5 853.7,207 801.3,207 801.3,174.3 		"/>
	</g>
</g>
</svg>
