<?xml version="1.0" encoding="UTF-8"?>
<svg width="300px" height="240px" viewBox="0 0 300 240" version="1.1" xmlns="http://www.w3.org/2000/svg" xmlns:xlink="http://www.w3.org/1999/xlink">
    <title>编组 31</title>
    <g id="页面-1" stroke="none" stroke-width="1" fill="none" fill-rule="evenodd">
        <g id="编组-31">
            <g id="img_blockchain_btc">
                <circle id="椭圆形" fill="#F89E2E" transform="translate(120.000000, 120.000000) rotate(-360.000000) translate(-120.000000, -120.000000) " cx="120" cy="120" r="120"></circle>
                <path d="M109.620637,35.2651787 L109.619993,59.5591787 L120.030993,59.5591787 L120.031351,35.2651787 L135.912191,35.2651787 L135.912336,60.1017264 C155.407267,63.0398048 171.12652,77.4030178 170.968719,90.178451 C170.85086,99.7202804 166.945804,106.708081 159.253551,111.141854 C173.069845,115.37739 179.977993,125.359272 179.977993,141.0875 C179.977993,164.578909 161.208972,175.33803 135.912796,175.429659 L135.912191,200.265179 L120.031351,200.265179 L120.030993,175.430179 L109.619993,175.430179 L109.620637,200.265179 L93.7397962,200.265179 L93.7389929,175.430179 L64.9779929,175.43025 L69.9187669,155.596552 L78.0652232,155.596552 C81.9609805,155.596552 84.6478905,151.591867 84.6478905,147.700924 L84.6478905,84.8414566 C84.6478905,79.9130829 80.8288583,76.039153 76.836016,76.039153 L64.9779929,76.039153 L64.9779929,59.560066 L93.7389929,59.5591787 L93.7397962,35.2651787 L109.620637,35.2651787 Z M109.620637,123.736502 L109.620637,156.790806 C136.626546,157.310861 150.129501,151.80181 150.129501,140.263654 C150.129501,128.725498 136.626546,123.216448 109.620637,123.736502 Z M109.620637,77.1697387 L109.620637,107.602935 C131.926211,107.602935 143.078998,102.530736 143.078998,92.386337 C143.078998,82.2419381 131.926211,77.1697387 109.620637,77.1697387 Z" id="形状结合" fill="#FFFFFF" transform="translate(122.477993, 117.765179) rotate(-345.000000) translate(-122.477993, -117.765179) "></path>
            </g>
            <g id="编组-4" transform="translate(180.000000, 120.000000)">
                <circle id="椭圆形" fill="#8716FF" cx="60" cy="60" r="60"></circle>
                <path d="M73.3333333,20 L63.8093333,53.333 L86.6666667,53.3333333 L46.6666667,100 L56.1903333,66.666 L33.3333333,66.6666667 L73.3333333,20 Z" id="Lighning" fill="#FFFFFF" transform="translate(60.000000, 60.000000) rotate(-345.000000) translate(-60.000000, -60.000000) "></path>
            </g>
        </g>
    </g>
</svg>