<?xml version="1.0" encoding="utf-8"?>
<!-- Generator: Adobe Illustrator 28.3.0, SVG Export Plug-In . SVG Version: 6.00 Build 0)  -->
<svg version="1.1" id="Layer_1" xmlns="http://www.w3.org/2000/svg" xmlns:xlink="http://www.w3.org/1999/xlink" x="0px" y="0px"
	 viewBox="0 0 595.28 152.27" style="enable-background:new 0 0 595.28 152.27;" xml:space="preserve">
<style type="text/css">
	.st0{fill:#F1B81B;}
	.st1{fill:#FFFFFF;}
</style>
<path class="st0" d="M97.22,131.96c-0.47-0.53-0.96-1.05-1.4-1.6c-11.06-13.78-22.36-27.37-32.45-41.91
	c-1.13-1.63-1.29-2.74-0.28-4.54c3.26-5.88,2.88-11.79-1.08-17.21c-3.92-5.35-9.44-7.28-15.86-6.07c-1.97,0.37-2.93-0.08-3.95-1.59
	c-5.23-7.7-10.49-15.39-15.83-23.02c-4.6-6.58-9.29-13.1-13.99-19.6c-2.34-3.24-2.4-3.21,0.72-5.43c4.8-3.42,9.64-6.78,14.38-10.27
	c1.45-1.07,2.38-0.97,3.4,0.48c4.07,5.78,8.25,11.47,12.27,17.28c10.84,15.66,21.61,31.36,32.88,46.97
	c-0.19-2.98-0.33-5.95-0.58-8.93c-0.81-9.92-1.63-19.84-2.54-29.74c-0.16-1.79,0.21-2.44,2.11-2.53c6.73-0.35,13.46-0.79,20.17-1.39
	c1.93-0.17,2.07,0.54,2.08,2.1c0.09,14.89,0.28,29.77,0.36,44.66c0.11,19.6,0.14,39.21,0.2,58.81c0,1.12,0,2.25,0,3.37
	C97.63,131.85,97.42,131.91,97.22,131.96z"/>
<path class="st0" d="M1.71,20.16c2.68,3.3,5.43,6.55,8.02,9.91c8.61,11.2,17.15,22.45,25.77,33.65c1.12,1.46,1.3,2.53,0.28,4.24
	c-3.43,5.78-3.31,11.71,0.5,17.23c3.9,5.66,9.54,7.83,16.25,6.47c2.17-0.44,3.27,0.05,4.44,1.8c5,7.46,10.09,14.88,15.24,22.24
	c4.91,7.01,9.94,13.94,14.93,20.89c1.66,2.31,1.69,2.31-0.49,3.87c-5.05,3.61-10.11,7.21-15.18,10.79c-1.99,1.4-2.13,1.47-3.57-0.5
	c-4.05-5.52-8.06-11.07-11.95-16.71c-10.83-15.67-21.59-31.38-32.39-47.07c-0.11-0.15-0.33-0.23-0.81-0.55
	c0.44,5.8,0.84,11.38,1.3,16.95c0.59,7.25,1.24,14.49,1.83,21.74c0.21,2.54,0.16,2.54-2.16,2.7c-6.62,0.45-13.23,0.9-19.84,1.36
	c-2.17,0.15-2.24,0.16-2.26-2.2C1.46,112.09,1.29,97.21,1.2,82.33C1.09,62.85,1.06,43.36,1,23.87c0-1.16,0-2.32,0-3.48
	C1.24,20.31,1.48,20.23,1.71,20.16z"/>
<path class="st1" d="M181.36,83.73c0-9.42-0.01-18.85,0.01-28.27c0.01-2.85,0.03-2.89,2.85-3.56c8.36-1.96,16.8-3.16,25.42-2.96
	c5.37,0.13,10.42,1.37,14.77,4.58c1.8,1.33,3.06,1.06,4.86,0.01c8.37-4.87,17.35-5.94,26.6-3.23c7.93,2.32,12.52,8,14,15.99
	c0.79,4.29,1.18,8.7,1.25,13.07c0.17,10.92,0.07,21.85,0.06,32.77c0,3.17-0.02,3.19-3.14,3.2c-3.64,0.02-7.28,0.02-10.92,0
	c-3.64-0.02-3.54,0.37-3.54-3.43c-0.01-9.96,0.1-19.92-0.05-29.88c-0.06-3.61-0.39-7.29-1.17-10.81c-1.17-5.24-4.81-7.77-10.13-7.25
	c-2.29,0.23-4.5,1.21-6.75,1.84c-1.3,0.36-1.59,1.36-1.41,2.49c1.99,12.67,0.68,25.43,1.05,38.15c0.06,1.93,0.02,3.86,0,5.78
	c-0.03,3.08-0.04,3.09-3.26,3.11c-3.53,0.01-7.07,0.01-10.6,0c-3.71-0.01-3.72-0.01-3.72-3.59c-0.01-6.53,0.05-13.07-0.02-19.6
	c-0.05-5.46-0.12-10.92-0.4-16.37c-0.48-9.31-4.75-12.84-13.97-11.79c-0.21,0.02-0.42,0.05-0.64,0.09
	c-3.42,0.52-3.44,0.52-3.44,3.94c-0.01,8.25,0,16.49,0,24.74c0,6.53,0.02,13.07-0.01,19.6c-0.01,2.94-0.05,2.96-3.07,2.97
	c-3.96,0.02-7.93,0.03-11.89,0c-2.64-0.02-2.71-0.05-2.71-2.67c-0.03-8.46-0.01-16.92-0.01-25.38
	C181.36,86.09,181.36,84.91,181.36,83.73z"/>
<path class="st1" d="M166.43,81.86c0,9.53,0.01,19.06,0,28.58c0,2.88-0.03,2.89-2.88,3.54c-9.75,2.25-19.61,3.32-29.6,2.6
	c-12.38-0.89-20.37-7.56-22.27-19.92c-0.6-3.9-0.92-7.87-0.97-11.81c-0.13-10.38-0.05-20.77-0.04-31.15c0-3.32,0.02-3.33,3.34-3.34
	c3.96-0.01,7.92-0.03,11.88,0.01c2.44,0.02,2.5,0.07,2.51,2.51c0.03,10.06-0.06,20.13,0.05,30.19c0.04,3.51,0.18,7.08,0.84,10.52
	c1.08,5.65,4.05,7.98,9.82,8.2c2.45,0.1,4.92-0.1,7.38-0.22c1.51-0.07,2.37-0.85,2.35-2.45c-0.01-0.75,0.01-1.5,0.01-2.25
	c0-14.13,0-28.26,0-42.39c0-0.86,0.02-1.71,0.02-2.57c0-1.07,0.57-1.53,1.6-1.53c4.82,0,9.63,0.01,14.45,0
	c1.09,0,1.51,0.58,1.51,1.6c-0.01,1.82,0.01,3.64,0.01,5.46C166.43,65.59,166.43,73.72,166.43,81.86z"/>
<path class="st1" d="M402.04,51.25c10.14-2.32,19.66-3.39,29.28-1.73c11.73,2.03,18.12,9.19,18.58,21.05
	c0.32,8.34,0.17,16.7,0.21,25.05c0.02,5.25-0.04,10.49,0.02,15.74c0.02,1.66-0.48,2.37-2.25,2.75c-10.21,2.21-20.53,2.99-30.93,2.42
	c-4.93-0.27-9.7-1.4-14.05-3.97c-4.48-2.65-6.43-6.83-7.77-11.58c-1.3-4.6-0.08-7.61,3.98-10.48c7.99-5.64,15.51-11.95,23.22-17.99
	c2.18-1.71,4.34-3.44,6.49-5.19c1.29-1.05,1.31-1.69-0.21-2.25c-2.18-0.79-4.48-1.56-6.76-1.71c-2.96-0.21-5.98,0.07-8.95,0.38
	c-1.7,0.18-2.77-0.16-3.72-1.69C406.99,58.52,404.62,55.14,402.04,51.25z M432.91,92.01c0-3.1,0.05-6.2-0.02-9.3
	c-0.03-1.47-0.78-1.82-2.06-1.09c-0.37,0.21-0.66,0.54-1,0.8c-5.14,4.01-10.28,8-15.41,12.02c-2.81,2.2-2.74,4.88,0.36,6.77
	c1.41,0.86,3.13,1.55,4.76,1.66c3.71,0.25,7.45,0.06,11.17,0.12c1.67,0.03,2.25-0.74,2.22-2.34
	C432.87,97.78,432.92,94.89,432.91,92.01z"/>
<path class="st1" d="M566.21,48.8c6.48-0.13,12.76,1.83,18.3,6.14c4.35,3.37,6.83,8.15,9.69,12.64c0.21,0.33-0.08,1.18-0.4,1.59
	c-0.45,0.57-1.13,0.96-1.72,1.42c-10.8,8.42-21.59,16.85-32.39,25.27c-0.25,0.2-0.5,0.4-0.75,0.6c-1.99,1.62-1.99,1.82,0.15,3
	c4.17,2.29,8.73,2.78,13.36,2.62c2.55-0.09,5.1-0.48,7.63-0.88c1.21-0.19,2.01,0,2.7,1.08c2.08,3.24,4.22,6.44,6.38,9.63
	c0.83,1.23,0.6,1.92-0.86,2.25c-3.12,0.7-6.2,1.61-9.35,2.11c-7.01,1.13-14.03,1.42-21.02-0.24c-13.42-3.18-21.55-12.57-23.41-26.62
	c-0.92-6.94-0.28-13.52,1.95-20.05C541.11,55.74,552.72,48.44,566.21,48.8z M552.33,86.2c2.07-1.59,4.09-3.14,6.1-4.69
	c5.25-4.05,10.5-8.09,15.73-12.16c2.11-1.65,2.11-2.3-0.25-3.63c-1.66-0.93-3.44-1.86-5.28-2.22c-5.61-1.09-11.12,0.18-14,5.23
	c-2.91,5.09-3.57,10.66-2.89,16.41C551.77,85.44,552.03,85.7,552.33,86.2z"/>
<path class="st1" d="M316.68,117.24c-8.52-0.25-16.2-1.81-22.96-6.89c-5.61-4.21-8.7-9.89-10.35-16.4
	c-2.76-10.87-1.53-21.35,4.18-31.09c4.81-8.21,12.26-12.64,21.56-13.86c4.45-0.59,8.98-0.42,13.38,0.83
	c7.34,2.08,12.92,6.47,16.82,13c1.09,1.82,2.13,3.66,3.19,5.5c-1.68,1.45-3.3,2.98-5.05,4.34c-10.29,8.04-20.61,16.03-30.91,24.04
	c-1.48,1.15-1.49,1.47,0.15,2.46c4.4,2.65,9.29,3.07,14.25,2.88c2.45-0.1,4.89-0.47,7.31-0.88c1.27-0.21,1.98,0.18,2.65,1.2
	c2.03,3.15,4.1,6.27,6.21,9.36c0.9,1.32,0.76,1.96-0.87,2.48C329.74,116.3,323.05,116.86,316.68,117.24z M299.74,85.72
	c0.24,0.15,0.49,0.29,0.73,0.44c7.51-5.82,15.02-11.64,22.55-17.45c1.13-0.87,0.82-1.77-0.11-2.29c-1.94-1.08-3.91-2.33-6.03-2.82
	c-4.95-1.14-9.84-0.57-13.15,3.66C299.48,72.7,299.17,79.18,299.74,85.72z"/>
<path class="st1" d="M393.79,51.03c-1.37,1.12-2.71,2.26-4.1,3.34c-5.32,4.13-10.62,8.29-16.01,12.33
	c-1.63,1.22-2.22,2.61-2.21,4.62c0.07,13.59,0.04,27.18,0.04,40.77c0,3.2-0.02,3.21-3.07,3.22c-3.96,0.01-7.92,0.03-11.88-0.01
	c-2.48-0.02-2.51-0.06-2.54-2.45c-0.04-2.57-0.01-5.14-0.01-7.7c0-12.09,0.09-24.18-0.07-36.27c-0.04-2.57,0.84-4.31,2.72-5.74
	c5.59-4.26,11.14-8.56,16.84-12.68c1.2-0.87,2.96-1.43,4.43-1.38c5.21,0.18,10.4,0.69,15.6,1.08
	C393.61,50.46,393.7,50.75,393.79,51.03z"/>
<path class="st1" d="M536.36,51.1c-1.09,0.92-1.94,1.67-2.83,2.37c-5.66,4.4-11.29,8.83-17.01,13.15c-1.71,1.29-2.38,2.73-2.36,4.88
	c0.09,13.27,0.05,26.55,0.05,39.82c0,0.75-0.04,1.5,0,2.25c0.06,1.18-0.38,1.77-1.65,1.76c-4.71-0.03-9.42-0.03-14.13,0
	c-1.2,0.01-1.79-0.44-1.72-1.68c0.04-0.75,0-1.5,0-2.25c0-13.92,0.17-27.84-0.12-41.75c-0.07-3.57,1.46-5.6,3.91-7.46
	c3.31-2.51,6.68-4.94,10.02-7.42c1.03-0.76,2.1-1.49,3-2.39c3.25-3.22,7.22-3.87,11.53-3.34c3.29,0.4,6.57,0.82,9.85,1.28
	C535.27,50.37,535.6,50.69,536.36,51.1z"/>
<path class="st1" d="M463.92,81.8c0-9.96-0.01-19.92,0-29.87c0-2.97,0.03-2.99,2.97-3c4.07-0.02,8.14,0.07,12.21-0.04
	c1.84-0.05,2.54,0.62,2.33,2.4c-0.06,0.53-0.01,1.07-0.01,1.61c0,19.49,0,38.98-0.01,58.46c0,0.86,0.15,1.76-0.08,2.55
	c-0.15,0.54-0.83,1.32-1.29,1.33c-4.92,0.1-9.85,0.1-14.77,0c-0.45-0.01-1.1-0.79-1.29-1.34c-0.23-0.67-0.07-1.48-0.07-2.23
	C463.91,101.71,463.91,91.75,463.92,81.8C463.92,81.8,463.92,81.8,463.92,81.8z"/>
<path class="st0" d="M472.56,19.81c6.14,0,10.58,4.3,10.64,10.34c0.07,6.13-4.5,10.64-10.76,10.59c-5.96-0.05-10.25-4.2-10.43-10.56
	C461.85,24.25,466.46,19.81,472.56,19.81z"/>
<path class="st1" d="M49.38,66.48c5.24,0.04,9.37,4.15,9.41,9.37c0.05,5.26-4.35,9.66-9.59,9.6c-5.13-0.06-9.4-4.34-9.44-9.45
	C39.73,70.7,44.03,66.45,49.38,66.48z"/>
</svg>
