<?xml version="1.0" encoding="utf-8"?>
<!-- Generator: Adobe Illustrator 28.3.0, SVG Export Plug-In . SVG Version: 6.00 Build 0)  -->
<svg version="1.1" id="Layer_1" xmlns="http://www.w3.org/2000/svg" xmlns:xlink="http://www.w3.org/1999/xlink" x="0px" y="0px"
	 viewBox="0 0 559.02 559.01" style="enable-background:new 0 0 559.02 559.01;" xml:space="preserve">
<style type="text/css">
	.st0{fill:#F1B81B;}
	
		.st1{clip-path:url(#SVGID_00000088096045117983742510000009895264192179206035_);fill:#FFFFFF;stroke:url(#SVGID_00000130634701658692649360000011725884014338815108_);stroke-miterlimit:10;}
</style>
<path class="st0" d="M378.92,243.43c-4.33-50.41-8.67-100.83-13.02-151.5c29.78-1.98,59.47-3.95,89.64-5.95
	c0.74,132.27,1.48,265.36,2.23,399.23c-1.2-0.99-1.92-1.41-2.41-2.02c-28.17-35.02-56.63-69.82-84.36-105.18
	c-15.07-19.22-28.84-39.47-43.35-59.14c-1.88-2.54-0.76-3.99,0.54-5.96c23.15-34.98,4.74-81.08-36.11-90.42
	c-9.51-2.18-19.05-1.96-28.35,0.92c-3.43,1.06-5.25,0.21-7.17-2.53c-11.68-16.66-23.8-33.01-35.17-49.87
	c-27.05-40.15-53.99-80.36-83.93-118.45c-0.56-0.71-1.04-1.48-1.82-2.6C159.13,33.38,182.51,16.86,206.37,0
	c4.09,5.05,8.18,9.7,11.82,14.67c7.16,9.79,14.14,19.72,21.09,29.66c15.29,21.88,30.57,43.76,45.74,65.72
	c14.91,21.58,29.64,43.29,44.55,64.87c15.26,22.08,30.65,44.07,46,66.08c0.73,1.05,1.63,1.97,2.45,2.95
	C378.32,243.78,378.62,243.61,378.92,243.43z"/>
<path class="st0" d="M103.18,74.1c4.21,5.11,8.49,10.17,12.63,15.33c24.43,30.43,49.14,60.63,73.12,91.41
	c15.01,19.27,28.84,39.46,43.34,59.13c1.89,2.56,0.7,3.99-0.64,5.93c-24.25,34.96-6.06,81.96,35.41,91.47
	c10.14,2.32,20.24,1.9,30.08-1.43c3.06-1.04,4.62-0.31,6.36,2.16c11.5,16.41,23.45,32.5,34.64,49.12
	c27.2,40.4,54.32,80.84,84.42,119.18c0.55,0.7,1.02,1.47,1.81,2.63c-23.49,16.6-46.86,33.11-70.72,49.97
	c-4.57-5.7-9.13-10.95-13.19-16.56c-9.08-12.52-18.01-25.15-26.83-37.86c-16.69-24.05-33.24-48.19-49.89-72.27
	c-16.47-23.81-32.98-47.6-49.47-71.39c-9.93-14.33-19.86-28.68-29.81-43c-0.72-1.04-1.64-1.94-3.34-2.59
	c4.34,50.49,8.67,100.99,13.02,151.69c-29.8,1.98-59.48,3.95-89.64,5.95c-0.74-132.28-1.48-265.36-2.22-398.45
	C102.56,74.4,102.87,74.25,103.18,74.1z"/>
<g>
	<defs>
		<path id="SVGID_1_" d="M313.85,279.47c-0.21,19.15-15.58,34.08-34.85,33.86c-19.02-0.22-34.08-15.8-33.8-34.97
			c0.28-18.97,15.89-33.92,35.13-33.63C299.17,245.01,314.06,260.45,313.85,279.47z"/>
	</defs>
	<use xlink:href="#SVGID_1_"  style="overflow:visible;fill:#FFFFFF;"/>
	<clipPath id="SVGID_00000088114350086949286580000005270153611203600535_">
		<use xlink:href="#SVGID_1_"  style="overflow:visible;"/>
	</clipPath>
	
		<linearGradient id="SVGID_00000091724934895921997440000005104738277216926595_" gradientUnits="userSpaceOnUse" x1="96.2477" y1="279.6625" x2="464.7001" y2="279.6625">
		<stop  offset="0" style="stop-color:#5CBF91"/>
		<stop  offset="0.0583" style="stop-color:#63B28C"/>
		<stop  offset="0.1277" style="stop-color:#67A988"/>
		<stop  offset="0.1992" style="stop-color:#69A385"/>
		<stop  offset="0.2753" style="stop-color:#6AA184"/>
		<stop  offset="0.6685" style="stop-color:#51B89A"/>
		<stop  offset="0.8876" style="stop-color:#51AFA1"/>
		<stop  offset="1" style="stop-color:#43ADA5"/>
	</linearGradient>
	
		<rect x="96.75" y="-3.94" style="clip-path:url(#SVGID_00000088114350086949286580000005270153611203600535_);fill:#FFFFFF;stroke:url(#SVGID_00000091724934895921997440000005104738277216926595_);stroke-miterlimit:10;" width="367.45" height="567.2"/>
</g>
</svg>
