<svg width="86" height="64" viewBox="0 0 86 64" fill="none" xmlns="http://www.w3.org/2000/svg">
<g clip-path="url(#clip0_4351_51578)">
<mask id="path-2-inside-1_4351_51578" fill="white">
<path d="M0 0H22V64H0V0Z"/>
</mask>
<path d="M21 0V64H23V0H21Z" fill="#919EAB" fill-opacity="0.08" mask="url(#path-2-inside-1_4351_51578)"/>
<circle opacity="0.8" cx="11" cy="11" r="5" fill="#919EAB"/>
<rect opacity="0.48" x="6" y="20" width="10" height="4" rx="2" fill="#919EAB"/>
<rect opacity="0.24" x="6" y="28" width="10" height="4" rx="2" fill="#919EAB"/>
<rect opacity="0.2" x="26" y="4" width="56" height="56" rx="8" fill="#919EAB"/>
</g>
<defs>
<clipPath id="clip0_4351_51578">
<path d="M0 12C0 5.37258 5.37258 0 12 0H74C80.6274 0 86 5.37258 86 12V52C86 58.6274 80.6274 64 74 64H12C5.37258 64 0 58.6274 0 52V12Z" fill="white"/>
</clipPath>
</defs>
</svg>
