<svg viewBox="0 0 32 32" fill="none" xmlns="http://www.w3.org/2000/svg">
<path d="M23.6112 13.5475C24.2245 17.7955 19.8274 18.6943 17.2977 18.6157C17.1353 18.6107 16.9822 18.6897 16.8862 18.8209C16.6245 19.1786 16.2063 19.6413 15.8833 19.6413C15.5206 19.6413 15.1942 20.3387 15.0454 20.7727C15.0297 20.8182 15.0746 20.8603 15.1204 20.8454C19.1267 19.5445 20.6988 19.0983 21.376 19.2237C21.9228 19.3249 22.9454 21.1553 23.3884 22.0579C22.2873 22.1212 21.9203 21.1343 21.6671 20.9571C21.4646 20.8154 21.3887 21.4632 21.376 21.8048C21.1356 21.6783 20.8318 21.5012 20.8065 20.9571C20.7812 20.4131 20.5028 20.5522 20.2876 20.5775C20.0725 20.6029 16.7692 21.6657 16.2757 21.8048C15.7821 21.944 15.2126 22.1338 14.7443 22.4628C13.9596 22.8424 13.4534 22.5767 13.3141 21.9314C13.2028 21.4151 13.9259 19.8268 14.3013 19.0972C13.8373 19.2701 12.8737 19.621 12.732 19.6413C12.5945 19.6609 10.8509 21.007 9.91839 21.7384C9.864 21.7811 9.82899 21.8435 9.81648 21.9115C9.6673 22.7221 9.19113 22.949 8.36564 23.3738C7.70135 23.7156 5.38133 27.2808 4.18836 29.2055C4.10587 29.3385 3.98481 29.4408 3.85481 29.5281C3.09705 30.0367 2.32531 31.3313 2.01231 31.9649C1.56682 30.6794 2.14731 29.5735 2.49324 29.1813C2.34137 29.0497 1.99122 29.1265 1.83513 29.1813C2.26543 27.701 3.7715 27.701 3.72088 27.701C3.99931 27.4606 7.26457 22.7918 7.3405 22.5767C7.41583 22.3633 7.29189 21.3655 8.933 20.8185C8.95906 20.8098 8.9849 20.7979 9.00802 20.783C10.2866 19.9613 11.2457 18.6366 11.5676 18.0723C9.86063 17.955 7.90591 17.0033 6.88386 16.392C6.66353 16.2602 6.42987 16.1455 6.17478 16.1167C4.77538 15.9583 3.37423 16.8535 2.80964 17.3638C2.57677 17.0399 2.83917 16.0985 2.99948 15.6683C2.43249 15.5874 1.59888 16.4106 1.25295 16.8324C0.878329 16.2453 1.20654 15.196 1.41748 14.7447C0.668239 14.7649 0.16031 15.1074 0 15.2761C0.620146 10.6579 5.36367 12.001 5.41678 12.0623C5.16366 11.7992 5.18476 11.455 5.22694 11.3158C8.09986 11.3918 9.4414 10.911 10.2894 10.4175C16.9717 6.68498 19.851 8.9751 20.9141 9.5508C21.9772 10.1265 23.9073 10.3606 25.2425 9.82915C26.8371 9.10795 26.597 7.24898 26.2739 6.53948C25.9196 5.76134 23.9199 4.68584 23.2112 3.32571C22.5024 1.96558 23.12 0.311563 23.941 0.0810245C24.7233 -0.138629 25.282 0.116911 25.7107 0.50417C25.9966 0.76235 26.7992 0.947012 27.1345 1.06721C27.4699 1.18741 28.0268 1.34557 27.9952 1.44046C27.9635 1.53536 27.4266 1.52269 27.3434 1.52269C27.1725 1.52269 26.97 1.548 27.1725 1.64289C27.41 1.73919 27.7684 1.87915 27.94 1.97128C27.9623 1.98325 27.9577 2.01445 27.9333 2.02103C26.7686 2.33446 25.7287 1.68771 24.9577 2.43368C24.173 3.19284 25.8436 3.77486 26.7042 4.68584C27.5648 5.59683 28.4508 6.68496 27.742 9.16487C27.1933 11.0847 24.8937 12.7171 23.7059 13.3556C23.6376 13.3923 23.6002 13.4707 23.6112 13.5475Z" fill="white"/>
</svg>
