<svg width="24" height="24" viewBox="0 0 24 24" fill="none" xmlns="http://www.w3.org/2000/svg">
<g opacity="0.32">
<path d="M21.4286 9.6V5.6C21.4286 5.17565 21.263 4.76869 20.9683 4.46863C20.6736 4.16857 20.2739 4 19.8571 4H18C17.7239 4 17.5 4.22386 17.5 4.5V5.1C17.5 5.37614 17.7239 5.6 18 5.6H19.8571V9.6C19.8588 10.0559 19.9567 10.5061 20.144 10.9201C20.3313 11.3342 20.6038 11.7024 20.943 12C20.6038 12.2976 20.3313 12.6658 20.144 13.0799C19.9567 13.4939 19.8588 13.9441 19.8571 14.4V18.4H18C17.7239 18.4 17.5 18.6239 17.5 18.9V19.5C17.5 19.7761 17.7239 20 18 20H19.8571C20.2739 20 20.6736 19.8314 20.9683 19.5314C21.263 19.2313 21.4286 18.8243 21.4286 18.4V14.4C21.4286 13.9757 21.5941 13.5687 21.8888 13.2686C22.0644 13.0899 22.2772 12.9578 22.5087 12.8802C22.7705 12.7925 23 12.5761 23 12.3V11.7C23 11.4239 22.7705 11.2075 22.5087 11.1198C22.2772 11.0422 22.0644 10.9101 21.8888 10.7314C21.5941 10.4313 21.4286 10.0243 21.4286 9.6Z" fill="#1877F2"/>
<path d="M4.14286 9.6V5.6H6C6.27614 5.6 6.5 5.37614 6.5 5.1V4.5C6.5 4.22386 6.27614 4 6 4H4.14286C3.72609 4 3.32639 4.16857 3.03169 4.46863C2.73699 4.76869 2.57143 5.17565 2.57143 5.6V9.6C2.57143 10.0243 2.40587 10.4313 2.11117 10.7314C1.93562 10.9101 1.72281 11.0422 1.49133 11.1198C1.2295 11.2075 1 11.4239 1 11.7V12.3C1 12.5761 1.2295 12.7925 1.49133 12.8802C1.72281 12.9578 1.93562 13.0899 2.11117 13.2686C2.40587 13.5687 2.57143 13.9757 2.57143 14.4V18.4C2.57143 18.8243 2.73699 19.2313 3.03169 19.5314C3.32639 19.8314 3.72609 20 4.14286 20H6C6.27614 20 6.5 19.7761 6.5 19.5V18.9C6.5 18.6239 6.27614 18.4 6 18.4H4.14286V14.4C4.14116 13.9441 4.04333 13.4939 3.856 13.0799C3.66866 12.6658 3.39619 12.2976 3.057 12C3.39619 11.7024 3.66866 11.3342 3.856 10.9201C4.04333 10.5061 4.14116 10.0559 4.14286 9.6Z" fill="#1877F2"/>
</g>
<path fill-rule="evenodd" clip-rule="evenodd" d="M12.75 6.5L12.1072 8.85714H13.6072L14.25 6.5H15.75L15.1072 8.85714H16.5V10.4286H14.679L13.8218 13.5714H15.75V15.1429H13.3928L12.75 17.5H11.25L11.8928 15.1429H10.3928L9.75 17.5H8.25L8.89275 15.1429H7.5V13.5714H9.32175L10.179 10.4286H8.25V8.85714H10.6072L11.25 6.5H12.75ZM13.179 10.4286H11.679L10.8217 13.5714H12.3218L13.179 10.4286Z" fill="#1877F2"/>
</svg>
