<svg fill="none" height="200" viewBox="0 0 200 200" width="200" xmlns="http://www.w3.org/2000/svg"><g fill="#919eab"><path d="m40 59.3158c0-3.4881 2.8277-6.3158 6.3158-6.3158h107.3682c3.488 0 6.316 2.8277 6.316 6.3158v12.6316c0 3.4881-2.828 6.3158-6.316 6.3158h-107.3682c-3.4881 0-6.3158-2.8277-6.3158-6.3158z" opacity=".24"/><path d="m40 94.0526c0-3.4881 2.8277-6.3158 6.3158-6.3158h107.3682c3.488 0 6.316 2.8277 6.316 6.3158v12.6314c0 3.488-2.828 6.316-6.316 6.316h-107.3682c-3.4881 0-6.3158-2.828-6.3158-6.316z" opacity=".24"/><path d="m40 128.789c0-3.488 2.8277-6.315 6.3158-6.315h107.3682c3.488 0 6.316 2.827 6.316 6.315v12.632c0 3.488-2.828 6.316-6.316 6.316h-107.3682c-3.4881 0-6.3158-2.828-6.3158-6.316z" opacity=".24"/><path d="m148.943 62.7486-3.954 3.8667-3.954-3.8667c-.362-.3413-.936-.3364-1.292.011-.355.3474-.36.9092-.011 1.2626l4.605 4.5035c.36.3516.943.3516 1.303 0l4.605-4.5035c.239-.2261.336-.561.251-.8759-.084-.3149-.336-.5609-.658-.6433s-.664.0115-.895.2456z" opacity=".48"/><path d="m148.943 97.4854-3.954 3.8666-3.954-3.8666c-.362-.3413-.936-.3364-1.292.011-.355.3474-.36.9092-.011 1.2626l4.605 4.504c.36.351.943.351 1.303 0l4.605-4.504c.239-.2261.336-.561.251-.8759-.084-.3149-.336-.5608-.658-.6433-.322-.0824-.664.0115-.895.2456z" opacity=".48"/><path d="m148.943 132.223-3.954 3.866-3.954-3.866c-.362-.342-.936-.337-1.292.01-.355.348-.36.91-.011 1.263l4.605 4.504c.36.351.943.351 1.303 0l4.605-4.504c.239-.226.336-.561.251-.876-.084-.315-.336-.561-.658-.643-.322-.083-.664.011-.895.246z" opacity=".48"/><rect height="7.89474" rx="3.94737" width="31.5789" x="49.4736" y="61.6841"/><rect height="7.89474" opacity=".48" rx="3.94737" width="50.5263" x="49.4736" y="96.4209"/><rect height="7.89474" opacity=".24" rx="3.94737" width="63.1579" x="49.4736" y="131.158"/></g></svg>