<svg fill="none" height="200" viewBox="0 0 200 200" width="200" xmlns="http://www.w3.org/2000/svg"><g fill="#919eab"><path d="m36 80.1053c0-5.581 4.5243-10.1053 10.1053-10.1053h107.7897c5.581 0 10.105 4.5243 10.105 10.1053v40.4207c0 5.581-4.524 10.106-10.105 10.106h-107.7897c-5.581 0-10.1053-4.525-10.1053-10.106z" opacity=".24"/><rect height="8.42105" opacity=".48" rx="4.21053" width="26.9474" x="88.2104" y="88.5264"/><rect height="8.42105" opacity=".24" rx="4.21053" width="53.8947" x="88.2104" y="103.684"/><path clip-rule="evenodd" d="m66.3032 89.0863 11.1633 18.0377c.8251 1.318.853 2.968.0727 4.311-.8909 1.475-2.523 2.372-4.279 2.354h-22.3264c-1.7681.007-3.4029-.914-4.279-2.411-.7576-1.328-.7299-2.95.0727-4.254l11.1633-18.0377c.9173-1.3982 2.503-2.2443 4.2062-2.2443s3.2889.8461 4.2062 2.2443zm-6.4834 19.0887c0 1.241 1.0233 2.246 2.2857 2.246 1.2623 0 2.2857-1.005 2.2857-2.246 0-1.24-1.0234-2.245-2.2857-2.245-1.2624 0-2.2857 1.005-2.2857 2.245zm2.2857-4.491c1.2623 0 2.2857-1.005 2.2857-2.245v-8.9829c0-1.2402-1.0234-2.2456-2.2857-2.2456-1.2624 0-2.2857 1.0054-2.2857 2.2456v8.9829c0 1.24 1.0233 2.245 2.2857 2.245z" fill-rule="evenodd"/></g></svg>