<svg fill="none" height="200" viewBox="0 0 200 200" width="200" xmlns="http://www.w3.org/2000/svg"><g fill="#919eab"><path d="m100 154c29.823 0 54-24.177 54-54 0-29.8234-24.177-54-54-54-29.8234 0-54 24.1766-54 54 0 29.823 24.1766 54 54 54z" opacity=".24"/><path d="m99.9997 100.41c5.7713 0 10.4503-4.4087 10.4503-9.8476s-4.679-9.848-10.4503-9.848c-5.7716 0-10.4504 4.4091-10.4504 9.848s4.6788 9.8476 10.4504 9.8476zm-7.1889 3.065c4.6767-1.46 9.7012-1.46 14.3782 0 4.596 1.435 8.407 4.626 10.568 8.85l1.18 2.307c.812 1.587.157 3.518-1.464 4.313-.456.224-.96.341-1.47.341h-32.0063c-1.8128 0-3.2823-1.439-3.2823-3.215 0-.499.119-.992.3477-1.439l1.1799-2.307c2.1612-4.224 5.972-7.415 10.5688-8.85z"/></g></svg>