<svg fill="none" height="200" viewBox="0 0 200 200" width="200" xmlns="http://www.w3.org/2000/svg"><g fill="#919eab"><path d="m36 98.158c0-5.581 4.5243-10.1053 10.1053-10.1053h107.7897c5.581 0 10.105 4.5243 10.105 10.1053v40.421c0 5.581-4.524 10.105-10.105 10.105h-107.7897c-5.581 0-10.1053-4.524-10.1053-10.105z" opacity=".24"/><rect height="8.42105" opacity=".48" rx="4.21053" width="26.9474" x="49.4736" y="106.579"/><rect height="8.42105" opacity=".24" rx="4.21053" width="53.8947" x="49.4736" y="121.737"/><rect height="30.3158" opacity=".24" rx="15.1579" width="107.789" x="46.1055" y="51"/><path d="m61.162 60.2632c2.7347 0 4.9516 2.2169 4.9516 4.9516 0 .94-.262 1.8189-.7168 2.5675l2.2578 2.2578c.4604.4604.4604 1.2068 0 1.6673-.4464.4464-1.1619.4599-1.6246.0405l-.0427-.0405-2.2577-2.2579c-.7487.4549-1.6275.7168-2.5676.7168-2.7347 0-4.9516-2.2169-4.9516-4.9515 0-2.7347 2.2169-4.9516 4.9516-4.9516zm0 2.3579c-1.4324 0-2.5937 1.1612-2.5937 2.5937 0 1.4324 1.1613 2.5936 2.5937 2.5936.6994 0 1.3492-.2748 1.834-.7596s.7597-1.1347.7597-1.834c0-1.4325-1.1612-2.5937-2.5937-2.5937z" opacity=".48"/><rect height="8.42105" rx="4.21053" width="47.1579" x="76.4209" y="61.9473"/></g></svg>