<svg fill="none" height="200" viewBox="0 0 200 200" width="200" xmlns="http://www.w3.org/2000/svg"><g fill="#919eab"><path d="m67.3426 75h-14.1657c-4.516 0-8.1769 3.6727-8.1769 8.2031v32.8129c0 4.53 3.6609 8.203 8.1769 8.203h14.1657c1.367 0 2.6435-.686 3.4018-1.827l13.6281-20.508c.9156-1.377.9156-3.172 0-4.5497l-13.6281-20.5078c-.7583-1.1411-2.0348-1.8265-3.4018-1.8265z"/><path d="m138.309 75h-52.9617c-1.5078 0-2.8932.8325-3.6047 2.1662-.7115 1.3336-.6335 2.9519.2028 4.2105l10.6043 15.9576c.9156 1.3777.9156 3.1727 0 4.5497l-10.6043 15.958c-.8363 1.259-.9143 2.877-.2028 4.211.7115 1.333 2.0969 2.166 3.6047 2.166h52.9617c1.367 0 2.644-.686 3.402-1.827l10.604-15.957c2.747-4.133 2.747-9.5179 0-13.6511l-10.604-15.9574c-.758-1.1411-2.035-1.8265-3.402-1.8265z" opacity=".24"/></g></svg>