<svg fill="none" height="200" viewBox="0 0 200 200" width="200" xmlns="http://www.w3.org/2000/svg"><g fill="#919eab"><path clip-rule="evenodd" d="m78.6667 68c-5.8911 0-10.6667 4.7756-10.6667 10.6667v42.6663c0 5.891 4.7756 10.667 10.6667 10.667h42.6663c5.891 0 10.667-4.776 10.667-10.667v-42.6663c0-5.8911-4.776-10.6667-10.667-10.6667zm5.3333 7.1111c-4.9092 0-8.8889 3.9797-8.8889 8.8889v32c0 4.909 3.9797 8.889 8.8889 8.889h32c4.909 0 8.889-3.98 8.889-8.889v-32c0-4.9092-3.98-8.8889-8.889-8.8889z" fill-rule="evenodd" opacity=".24"/><path d="m111.599 87.8567c1.299-1.4649 3.535-1.5952 4.994-.291 1.435 1.2831 1.584 3.4768.351 4.9424l-.062.0715-17.953 20.2474c-1.3313 1.502-3.6312 1.592-5.0746.217l-.0681-.067-10.5282-10.571c-1.3813-1.387-1.3813-3.6355 0-5.0224 1.3587-1.3641 3.5476-1.3865 4.9334-.067l.0687.067 7.8774 7.9094z"/></g></svg>