<svg fill="none" height="200" viewBox="0 0 200 200" width="200" xmlns="http://www.w3.org/2000/svg"><g clip-rule="evenodd" fill="#919eab" fill-rule="evenodd"><path d="m153.471 91.4441c-1.568-9.5673-6.445-16.6993-14.109-20.5262-4.703-2.2614-9.58-3.3051-14.805-3.3051-7.142 0-13.761 2.0874-19.683 4.0009l-.523.1606c-4.301 1.3234-7.9591 2.4486-10.9731 2.4486-2.6128 0-4.5288-.8697-5.9223-2.6092-1.1236-1.4428-.4721-3.6241.3186-6.2718l.0004-.0012c.0672-.225.1354-.4535.2036-.6851l.0376-.1312c1.0401-3.6338 2.3656-8.2641-.5602-12.0454-1.7418-2.2613-4.7029-3.479-8.1866-3.479-3.4836 0-7.1415 1.2177-10.1026 3.1311-14.4572 9.9152-23.1664 26.4406-23.1664 44.1836 0 29.9193 24.3857 54.2723 54.345 54.2723 24.212 0 45.636-16.177 52.255-39.486.523-2.436 2.265-10.785.871-19.6569zm-29.089 13.3939c-6.793 0-12.192-5.3923-12.192-12.1764s5.399-12.1765 12.192-12.1765c6.794 0 12.193 5.3924 12.193 12.1765s-5.399 12.1764-12.193 12.1764zm-31.3525 22.614c0 3.827 3.1353 6.958 6.9673 6.958 3.8322 0 6.9672-3.131 6.9672-6.958s-3.135-6.958-6.9672-6.958c-3.832 0-6.9673 3.131-6.9673 6.958zm-18.1709-3.52c-3.4816-.377-6.2148-3.344-6.2148-6.917 0-3.349 2.4005-6.165 5.5678-6.816.4524-.093.9205-.142 1.3995-.142 0 0 .0001 0 0 0 3.8321 0 6.9676 3.131 6.9676 6.958 0 3.349-2.4006 6.164-5.568 6.816-.4523.093-.9203.142-1.3992.142-.0001 0 .0001 0 0 0-.2542 0-.5056-.014-.7529-.041zm-13.1817-31.2702c0-3.8269 3.1353-6.958 6.9673-6.958s6.9673 3.1311 6.9673 6.958-3.1353 6.9581-6.9673 6.9581-6.9673-3.1312-6.9673-6.9581z" opacity=".24"/><path d="m93.0294 127.452c0 3.827 3.1353 6.958 6.9673 6.958 3.8323 0 6.9673-3.131 6.9673-6.958s-3.135-6.958-6.9673-6.958c-3.832 0-6.9673 3.131-6.9673 6.958zm-18.1709-3.52c-3.4816-.378-6.2148-3.344-6.2148-6.917 0-3.349 2.4005-6.165 5.5677-6.816.4525-.093.9206-.142 1.3996-.142 3.8321 0 6.9676 3.131 6.9676 6.958 0 3.348-2.4006 6.164-5.568 6.816-.4523.093-.9203.142-1.3992.142-.2542 0-.5056-.014-.7529-.041zm-13.1817-31.2703c0-3.827 3.1353-6.9581 6.9673-6.9581s6.9673 3.1311 6.9673 6.9581c0 3.8269-3.1353 6.958-6.9673 6.958s-6.9673-3.1311-6.9673-6.958z" opacity=".48"/><path d="m124.382 104.838c-6.793 0-12.193-5.3922-12.193-12.1763s5.4-12.1766 12.193-12.1766 12.193 5.3925 12.193 12.1766-5.4 12.1763-12.193 12.1763z"/></g></svg>