<svg fill="none" height="200" viewBox="0 0 200 200" width="200" xmlns="http://www.w3.org/2000/svg"><g fill="#919eab"><rect height="51.5789" opacity=".24" rx="25.7895" width="140" x="30" y="74"/><rect height="12.8947" opacity=".48" rx="6.44737" width="60.7895" x="83.4209" y="93.342"/><path clip-rule="evenodd" d="m76.0527 99.7895c0 11.1915-9.0721 20.2635-20.2632 20.2635-11.191 0-20.2631-9.072-20.2631-20.2635 0-11.191 9.0721-20.2631 20.2631-20.2631 11.1911 0 20.2632 9.0721 20.2632 20.2631zm-24.4747 8.8505 3.7168-1.965c.3095-.164.6798-.164.9892 0l3.7168 1.965c.2819.149.6047.201.9185.147.7881-.136 1.3174-.889 1.1822-1.682l-.7112-4.171c-.0583-.342.0546-.691.3022-.934l3.0118-2.9525c.228-.2236.3764-.5165.4222-.8335.115-.7959-.4333-1.5349-1.2246-1.6506l-4.1571-.6076c-.3451-.0504-.6432-.2677-.7968-.5808l-1.8603-3.7914c-.1409-.2872-.372-.5197-.6575-.6614-.7171-.356-1.5852-.0599-1.9391.6614l-1.8602 3.7914c-.1537.3131-.4517.5304-.7969.5808l-4.1571.6076c-.3151.0461-.6063.1954-.8285.4247-.5582.576-.5465 1.498.0261 2.0594l3.0118 2.9525c.2476.243.3606.592.3023.934l-.7113 4.171c-.0538.316-.0027.64.1455.924.3721.712 1.2475.986 1.9552.611z" fill-rule="evenodd"/></g></svg>