<svg fill="none" height="200" viewBox="0 0 200 200" width="200" xmlns="http://www.w3.org/2000/svg"><g fill="#919eab"><path d="m40 67c0-5.5228 4.4772-10 10-10h100c5.523 0 10 4.4772 10 10v10h-120z" opacity=".48"/><path d="m40 77v56.667c0 5.523 4.4772 10 10 10h100c5.523 0 10-4.477 10-10v-56.667z" opacity=".24"/><g opacity=".48"><path d="m50 96.1667c0-2.7614 2.2386-5 5-5h20c2.7614 0 5 2.2386 5 5v6.6663c0 2.762-2.2386 5-5 5h-20c-2.7614 0-5-2.238-5-5z"/><path d="m85 96.1667c0-2.7614 2.2386-5 5-5h55c2.761 0 5 2.2386 5 5v6.6663c0 2.762-2.239 5-5 5h-55c-2.7614 0-5-2.238-5-5z"/></g><g opacity=".24"><path d="m50 117.833c0-2.761 2.2386-5 5-5h20c2.7614 0 5 2.239 5 5v6.667c0 2.761-2.2386 5-5 5h-20c-2.7614 0-5-2.239-5-5z"/><path d="m85 117.833c0-2.761 2.2386-5 5-5h55c2.761 0 5 2.239 5 5v6.667c0 2.761-2.239 5-5 5h-55c-2.7614 0-5-2.239-5-5z"/></g></g></svg>