<svg width="200" height="200" viewBox="0 0 200 200" fill="none" xmlns="http://www.w3.org/2000/svg">
<path d="M40 111.559V100.441C40 79.4768 40 68.992 47.032 62.4821C52.876 57.0618 66.1839 56.1501 81.9999 56V156C66.1839 155.85 52.876 154.938 47.032 149.518C40 143.008 40 132.523 40 111.559Z" fill="#919EAB"/>
<path opacity="0.24" fill-rule="evenodd" clip-rule="evenodd" d="M152.968 62.5111C160 69.0167 160 79.4944 160 100.444V111.556C160 132.506 160 142.983 152.968 149.489C145.936 155.994 134.626 156 112 156H82V56H112C134.626 56 145.942 56 152.968 62.5111Z" fill="#919EAB"/>
<g opacity="0.48">
<path d="M139.4 90C140.62 90 141.79 90.4741 142.653 91.318C143.515 92.1619 144 93.3065 144 94.5C144 95.6935 143.515 96.838 142.653 97.682C141.79 98.5259 140.62 99 139.4 99H102.6C101.38 99 100.21 98.5259 99.3473 97.682C98.4846 96.838 98 95.6935 98 94.5C98 93.3065 98.4846 92.1619 99.3473 91.318C100.21 90.4741 101.38 90 102.6 90H139.4Z" fill="#919EAB"/>
<path d="M133.267 113C134.487 113 135.657 113.474 136.519 114.318C137.382 115.162 137.867 116.306 137.867 117.5C137.867 118.693 137.382 119.838 136.519 120.682C135.657 121.526 134.487 122 133.267 122H108.733C107.513 122 106.343 121.526 105.481 120.682C104.618 119.838 104.133 118.693 104.133 117.5C104.133 116.306 104.618 115.162 105.481 114.318C106.343 113.474 107.513 113 108.733 113H133.267Z" fill="#919EAB"/>
</g>
</svg>
