<svg fill="none" height="200" viewBox="0 0 200 200" width="200" xmlns="http://www.w3.org/2000/svg" xmlns:xlink="http://www.w3.org/1999/xlink"><filter id="a" color-interpolation-filters="sRGB" filterUnits="userSpaceOnUse" height="61.792" width="115.187" x="50.0806" y="125.272"><feFlood flood-opacity="0" result="BackgroundImageFix"/><feColorMatrix in="SourceAlpha" result="hardAlpha" type="matrix" values="0 0 0 0 0 0 0 0 0 0 0 0 0 0 0 0 0 0 127 0"/><feOffset dx="8" dy="8"/><feGaussianBlur stdDeviation="8"/><feColorMatrix type="matrix" values="0 0 0 0 0.772549 0 0 0 0 0.792157 0 0 0 0 0.819608 0 0 0 0.16 0"/><feBlend in2="BackgroundImageFix" mode="normal" result="effect1_dropShadow_1587_120562"/><feBlend in="SourceGraphic" in2="effect1_dropShadow_1587_120562" mode="normal" result="shape"/><feColorMatrix in="SourceAlpha" result="hardAlpha" type="matrix" values="0 0 0 0 0 0 0 0 0 0 0 0 0 0 0 0 0 0 127 0"/><feOffset dx="-2" dy="-2"/><feGaussianBlur stdDeviation="2"/><feComposite in2="hardAlpha" k2="-1" k3="1" operator="arithmetic"/><feColorMatrix type="matrix" values="0 0 0 0 0.772549 0 0 0 0 0.792157 0 0 0 0 0.819608 0 0 0 0.48 0"/><feBlend in2="shape" mode="normal" result="effect2_innerShadow_1587_120562"/></filter><filter id="b" color-interpolation-filters="sRGB" filterUnits="userSpaceOnUse" height="90.9048" width="113.947" x="40.1943" y="86.2739"><feFlood flood-opacity="0" result="BackgroundImageFix"/><feColorMatrix in="SourceAlpha" result="hardAlpha" type="matrix" values="0 0 0 0 0 0 0 0 0 0 0 0 0 0 0 0 0 0 127 0"/><feOffset dx="8" dy="8"/><feGaussianBlur stdDeviation="8"/><feColorMatrix type="matrix" values="0 0 0 0 0 0 0 0 0 0.470588 0 0 0 0 0.403922 0 0 0 0.16 0"/><feBlend in2="BackgroundImageFix" mode="normal" result="effect1_dropShadow_1587_120562"/><feBlend in="SourceGraphic" in2="effect1_dropShadow_1587_120562" mode="normal" result="shape"/><feColorMatrix in="SourceAlpha" result="hardAlpha" type="matrix" values="0 0 0 0 0 0 0 0 0 0 0 0 0 0 0 0 0 0 127 0"/><feOffset dx="-2" dy="-2"/><feGaussianBlur stdDeviation="2"/><feComposite in2="hardAlpha" k2="-1" k3="1" operator="arithmetic"/><feColorMatrix type="matrix" values="0 0 0 0 0 0 0 0 0 0.470588 0 0 0 0 0.403922 0 0 0 0.48 0"/><feBlend in2="shape" mode="normal" result="effect2_innerShadow_1587_120562"/></filter><filter id="c" color-interpolation-filters="sRGB" filterUnits="userSpaceOnUse" height="93.9109" width="80.1079" x="38" y="45"><feFlood flood-opacity="0" result="BackgroundImageFix"/><feColorMatrix in="SourceAlpha" result="hardAlpha" type="matrix" values="0 0 0 0 0 0 0 0 0 0 0 0 0 0 0 0 0 0 127 0"/><feOffset dx="8" dy="8"/><feGaussianBlur stdDeviation="8"/><feColorMatrix type="matrix" values="0 0 0 0 0.717647 0 0 0 0 0.431373 0 0 0 0 0 0 0 0 0.16 0"/><feBlend in2="BackgroundImageFix" mode="normal" result="effect1_dropShadow_1587_120562"/><feBlend in="SourceGraphic" in2="effect1_dropShadow_1587_120562" mode="normal" result="shape"/><feColorMatrix in="SourceAlpha" result="hardAlpha" type="matrix" values="0 0 0 0 0 0 0 0 0 0 0 0 0 0 0 0 0 0 127 0"/><feOffset dx="-2" dy="-2"/><feGaussianBlur stdDeviation="2"/><feComposite in2="hardAlpha" k2="-1" k3="1" operator="arithmetic"/><feColorMatrix type="matrix" values="0 0 0 0 0.717647 0 0 0 0 0.431373 0 0 0 0 0 0 0 0 0.48 0"/><feBlend in2="shape" mode="normal" result="effect2_innerShadow_1587_120562"/></filter><g filter="url(#a)"><path d="m139.446 156.591-43.2488-22.921c-1.1271-.599-2.5016-.516-3.5669.206l-33.0706 22.921c-1.2371.86-1.7731 2.421-1.3196 3.859.4399 1.424 1.7732 2.408 3.2714 2.408h76.3195c1.574 0 2.955-1.073 3.333-2.614.385-1.534-.33-3.123-1.718-3.859z" fill="#fff"/></g><g filter="url(#b)"><path d="m129.989 96.6884c-.454-1.4377-1.78-2.4145-3.285-2.4145h-63.5231c-1.6081 0-3.0033 1.1213-3.3538 2.6966l-11.5527 52.0255c-.3024 1.383.268 2.807 1.4364 3.598.5773.392 1.2508.585 1.9174.585.6873 0 1.3676-.2 1.9587-.613l75.0691-52.025c1.244-.8533 1.773-2.4148 1.333-3.8526z" fill="#00a76f"/></g><path d="m143.748 104.221c-.247-1.121-1.038-2.036-2.103-2.456-1.072-.419-2.275-.275-3.21.372l-33.077 22.92c-.99.688-1.546 1.837-1.471 3.027.069 1.204.763 2.277 1.821 2.834l43.242 22.921c.509.268 1.059.406 1.609.406.735 0 1.47-.234 2.082-.709 1.065-.811 1.567-2.166 1.278-3.48z" fill="#fff"/><path d="m143.748 104.221c-.247-1.121-1.038-2.036-2.103-2.456-1.072-.419-2.275-.275-3.21.372l-33.077 22.92c-.99.688-1.546 1.837-1.471 3.027.069 1.204.763 2.277 1.821 2.834l43.242 22.921c.509.268 1.059.406 1.609.406.735 0 1.47-.234 2.082-.709 1.065-.811 1.567-2.166 1.278-3.48z" fill="#007867" opacity=".24"/><g filter="url(#c)"><path d="m70.0539 53c13.264 0 24.0539 10.8 24.0539 24.0764 0 12.3547-19.2981 34.2366-21.4973 36.6926-.6529.722-1.5807 1.142-2.5566 1.142s-1.9037-.42-2.5566-1.142c-2.1992-2.456-21.4973-24.3379-21.4973-36.6926 0-13.2764 10.7899-24.0764 24.0539-24.0764zm0 13.758c-5.6934 0-10.3088 4.6197-10.3088 10.3184 0 5.6988 4.6154 10.3185 10.3088 10.3185s10.3088-4.6197 10.3088-10.3185c0-5.6987-4.6154-10.3184-10.3088-10.3184z" fill="#ffab00"/></g></svg>