<svg fill="none" height="200" viewBox="0 0 200 200" width="200" xmlns="http://www.w3.org/2000/svg" xmlns:xlink="http://www.w3.org/1999/xlink"><filter id="a" color-interpolation-filters="sRGB" filterUnits="userSpaceOnUse" height="128" width="128" x="44" y="52"><feFlood flood-opacity="0" result="BackgroundImageFix"/><feColorMatrix in="SourceAlpha" result="hardAlpha" type="matrix" values="0 0 0 0 0 0 0 0 0 0 0 0 0 0 0 0 0 0 127 0"/><feOffset dx="8" dy="8"/><feGaussianBlur stdDeviation="8"/><feColorMatrix type="matrix" values="0 0 0 0 0.717647 0 0 0 0 0.431373 0 0 0 0 0 0 0 0 0.16 0"/><feBlend in2="BackgroundImageFix" mode="normal" result="effect1_dropShadow_3961_127861"/><feBlend in="SourceGraphic" in2="effect1_dropShadow_3961_127861" mode="normal" result="shape"/><feColorMatrix in="SourceAlpha" result="hardAlpha" type="matrix" values="0 0 0 0 0 0 0 0 0 0 0 0 0 0 0 0 0 0 127 0"/><feOffset dx="-2" dy="-2"/><feGaussianBlur stdDeviation="2"/><feComposite in2="hardAlpha" k2="-1" k3="1" operator="arithmetic"/><feColorMatrix type="matrix" values="0 0 0 0 0.717647 0 0 0 0 0.431373 0 0 0 0 0 0 0 0 0.48 0"/><feBlend in2="shape" mode="normal" result="effect2_innerShadow_3961_127861"/></filter><filter id="b" color-interpolation-filters="sRGB" filterUnits="userSpaceOnUse" height="127.883" width="127.996" x="44" y="52.1133"><feFlood flood-opacity="0" result="BackgroundImageFix"/><feColorMatrix in="SourceAlpha" result="hardAlpha" type="matrix" values="0 0 0 0 0 0 0 0 0 0 0 0 0 0 0 0 0 0 127 0"/><feOffset dx="8" dy="8"/><feGaussianBlur stdDeviation="8"/><feColorMatrix type="matrix" values="0 0 0 0 0 0 0 0 0 0.470588 0 0 0 0 0.403922 0 0 0 0.16 0"/><feBlend in2="BackgroundImageFix" mode="normal" result="effect1_dropShadow_3961_127861"/><feBlend in="SourceGraphic" in2="effect1_dropShadow_3961_127861" mode="normal" result="shape"/><feColorMatrix in="SourceAlpha" result="hardAlpha" type="matrix" values="0 0 0 0 0 0 0 0 0 0 0 0 0 0 0 0 0 0 127 0"/><feOffset dx="-2" dy="-2"/><feGaussianBlur stdDeviation="2"/><feComposite in2="hardAlpha" k2="-1" k3="1" operator="arithmetic"/><feColorMatrix type="matrix" values="0 0 0 0 0 0 0 0 0 0.470588 0 0 0 0 0.403922 0 0 0 0.48 0"/><feBlend in2="shape" mode="normal" result="effect2_innerShadow_3961_127861"/></filter><g filter="url(#a)"><path d="m147.964 78.7952c-.04-.6921-.512-1.352-1.12-1.68-.624-.336-1.38-.324-1.988.04l-10.947 6.5637c-3.324-1.7199-5.496-4.9438-5.86-8.6196l12.224-7.3317c.275-.1658.507-.3956.676-.6698.168-.2743.268-.585.292-.9061.021-.3212-.035-.643-.164-.9382-.128-.2951-.326-.555-.576-.7576-3.572-2.884-7.808-4.4359-12.464-4.4959-4.956 0-9.952 2.2958-13.707 6.3037-4.464 4.7557-6.528 9.4715-6.316 14.4074.116 2.708-1.096 5.5399-3.456 7.9077-.476.4959-.668 1.2-.5 1.8639.079.3284.241.6312.47.8797.229.2484.517.4344.838.5402 3.044 1.0079 5.932 2.9119 8.836 5.8197 1.167 1.1679 1.955 2.5917 2.343 4.2397.083.346.257.664.503.921s.555.445.897.543c.18.052.364.076.548.076.531 0 1.04-.21 1.416-.584l3.516-3.5159c1.624.404 3.1.596 4.572.596 5.484 0 10.788-2.288 14.555-6.2797 3.816-4.0476 5.74-9.3474 5.412-14.9232zm-52.5218 47.1658c-.2121-.68-.7641-1.208-1.4559-1.368-1.604-.376-3.0518-1.176-4.1918-2.316-2.9519-2.947-4.8798-5.863-5.8957-8.915-.1076-.324-.296-.614-.5472-.845-.2513-.23-.5572-.392-.8888-.471-.672-.164-1.3839.044-1.8758.532l-.376.38c-1.9639 1.96-4.8358 3.04-8.2116 3.04-11.0277 0-19.9994 8.971-19.9994 19.999 0 .7.0879 1.372.18 2.048l.0639.472c.0419.329.1656.643.3598.913s.4528.487.7522.631c.6081.296 1.32.264 1.904-.084l12.8275-7.696c3.3239 1.72 5.4958 4.944 5.8597 8.62l-13.3795 8.027c-.2848.171-.5226.41-.6916.695-.1691.286-.2641.609-.2764.941-.0131.332.0564.662.2023.96.146.298.3637.555.6338.748 3.4159 2.428 7.3997 3.72 11.5275 3.728h.024c4.9678 0 9.9836-2.332 13.7674-6.392 4.4038-4.724 6.4398-9.403 6.2317-14.307-.108-2.544.9639-5.172 3.0158-7.4.238-.256.404-.57.4813-.911.0773-.34.063-.695-.0412-1.029z" fill="#ffab00"/></g><g filter="url(#b)"><path d="m147.784 149.1-6.896-13.787c-1.02-2.044-3.076-3.316-5.363-3.316h-2.7l-22.999-22.999 1.636-1.636c1.855-1.852 1.855-4.872-.084-6.812-2.488-2.4877-4.8-4.0317-7.276-4.8557-1.784-.5961-3.2-2.012-3.796-3.7958-.8279-2.48-2.3678-4.7918-4.8558-7.2757l-21.2151-21.2111c-4.3879-4.3879-12.0676-4.4078-16.4753 0l-2.3519 2.3479c-2.1959 2.1999-3.4079 5.1238-3.4079 8.2476 0 3.1079 1.212 6.0318 3.4079 8.2317l21.2112 21.2111c2.4878 2.488 4.7998 4.032 7.2756 4.856 1.784.596 3.1999 2.012 3.7958 3.796.824 2.48 2.3719 4.791 4.9318 7.351.908.909 2.1038 1.408 3.3799 1.408 1.268 0 2.4599-.496 3.3599-1.396l1.6359-1.635 22.999 22.999v2.699c0 2.288 1.272 4.344 3.316 5.368l13.787 6.896c.28.133.586.203.896.204.531 0 1.04-.21 1.416-.584l4-4c.296-.298.491-.681.558-1.096s.002-.84-.186-1.216z" fill="#00a76f"/></g></svg>