<svg fill="none" height="200" viewBox="0 0 200 200" width="200" xmlns="http://www.w3.org/2000/svg" xmlns:xlink="http://www.w3.org/1999/xlink"><filter id="a" color-interpolation-filters="sRGB" filterUnits="userSpaceOnUse" height="152" width="130.824" x="43" y="40"><feFlood flood-opacity="0" result="BackgroundImageFix"/><feColorMatrix in="SourceAlpha" result="hardAlpha" type="matrix" values="0 0 0 0 0 0 0 0 0 0 0 0 0 0 0 0 0 0 127 0"/><feOffset dx="8" dy="8"/><feGaussianBlur stdDeviation="8"/><feColorMatrix type="matrix" values="0 0 0 0 0.772549 0 0 0 0 0.792157 0 0 0 0 0.819608 0 0 0 0.16 0"/><feBlend in2="BackgroundImageFix" mode="normal" result="effect1_dropShadow_1587_120567"/><feBlend in="SourceGraphic" in2="effect1_dropShadow_1587_120567" mode="normal" result="shape"/><feColorMatrix in="SourceAlpha" result="hardAlpha" type="matrix" values="0 0 0 0 0 0 0 0 0 0 0 0 0 0 0 0 0 0 127 0"/><feOffset dx="-2" dy="-2"/><feGaussianBlur stdDeviation="2"/><feComposite in2="hardAlpha" k2="-1" k3="1" operator="arithmetic"/><feColorMatrix type="matrix" values="0 0 0 0 0.772549 0 0 0 0 0.792157 0 0 0 0 0.819608 0 0 0 0.48 0"/><feBlend in2="shape" mode="normal" result="effect2_innerShadow_1587_120567"/></filter><filter id="b" color-interpolation-filters="sRGB" filterUnits="userSpaceOnUse" height="49.5293" width="49.5293" x="61.1177" y="65.1765"><feFlood flood-opacity="0" result="BackgroundImageFix"/><feColorMatrix in="SourceAlpha" result="hardAlpha" type="matrix" values="0 0 0 0 0 0 0 0 0 0 0 0 0 0 0 0 0 0 127 0"/><feOffset dx="4" dy="4"/><feGaussianBlur stdDeviation="4"/><feColorMatrix type="matrix" values="0 0 0 0 0 0 0 0 0 0.470588 0 0 0 0 0.403922 0 0 0 0.16 0"/><feBlend in2="BackgroundImageFix" mode="normal" result="effect1_dropShadow_1587_120567"/><feBlend in="SourceGraphic" in2="effect1_dropShadow_1587_120567" mode="normal" result="shape"/><feColorMatrix in="SourceAlpha" result="hardAlpha" type="matrix" values="0 0 0 0 0 0 0 0 0 0 0 0 0 0 0 0 0 0 127 0"/><feOffset dx="-1" dy="-1"/><feGaussianBlur stdDeviation="1"/><feComposite in2="hardAlpha" k2="-1" k3="1" operator="arithmetic"/><feColorMatrix type="matrix" values="0 0 0 0 0 0 0 0 0 0.470588 0 0 0 0 0.403922 0 0 0 0.48 0"/><feBlend in2="shape" mode="normal" result="effect2_innerShadow_1587_120567"/></filter><g filter="url(#a)"><rect fill="#fff" height="120" rx="12" width="98.8235" x="51" y="48"/></g><g filter="url(#b)"><path d="m65.1177 72.769c0-1.9831 1.6094-3.5925 3.5924-3.5925h26.3446c1.983 0 3.5924 1.6094 3.5924 3.5925v4.7899c0 1.983-1.6094 3.5924-3.5924 3.5924-1.9831 0-3.5925-1.6094-3.5925-3.5924v-1.1975h-5.9874v19.1597c1.983 0 3.5925 1.6094 3.5925 3.5924 0 1.9835-1.6095 3.5925-3.5925 3.5925h-7.1849c-1.983 0-3.5924-1.609-3.5924-3.5925 0-1.983 1.6094-3.5924 3.5924-3.5924v-19.1597h-5.9874v1.1975c0 1.983-1.6094 3.5924-3.5924 3.5924s-3.5924-1.6094-3.5924-3.5924z" fill="#00a76f"/></g><rect fill="#007867" height="8.82353" opacity=".4" rx="4.41176" width="24.7059" x="109.235" y="69.1765"/><rect fill="#007867" height="8.82353" opacity=".24" rx="4.41176" width="24.7059" x="109.235" y="81.5293"/><rect fill="#b76e00" height="8.82353" opacity=".16" rx="4.41176" width="24.7059" x="109.235" y="93.8823"/><g fill="#007867"><rect height="8.82353" opacity=".16" rx="4.41176" width="70.5882" x="65.1177" y="113.294"/><rect height="8.82353" opacity=".16" rx="4.41176" width="70.5882" x="65.1177" y="125.647"/></g></svg>