<svg fill="none" height="200" viewBox="0 0 200 200" width="200" xmlns="http://www.w3.org/2000/svg" xmlns:xlink="http://www.w3.org/1999/xlink"><filter id="a" color-interpolation-filters="sRGB" filterUnits="userSpaceOnUse" height="182" width="92" x="62" y="25"><feFlood flood-opacity="0" result="BackgroundImageFix"/><feColorMatrix in="SourceAlpha" result="hardAlpha" type="matrix" values="0 0 0 0 0 0 0 0 0 0 0 0 0 0 0 0 0 0 127 0"/><feOffset dx="8" dy="8"/><feGaussianBlur stdDeviation="8"/><feColorMatrix type="matrix" values="0 0 0 0 0.772549 0 0 0 0 0.792157 0 0 0 0 0.819608 0 0 0 0.16 0"/><feBlend in2="BackgroundImageFix" mode="normal" result="effect1_dropShadow_1587_120557"/><feBlend in="SourceGraphic" in2="effect1_dropShadow_1587_120557" mode="normal" result="shape"/><feColorMatrix in="SourceAlpha" result="hardAlpha" type="matrix" values="0 0 0 0 0 0 0 0 0 0 0 0 0 0 0 0 0 0 127 0"/><feOffset dx="-2" dy="-2"/><feGaussianBlur stdDeviation="2"/><feComposite in2="hardAlpha" k2="-1" k3="1" operator="arithmetic"/><feColorMatrix type="matrix" values="0 0 0 0 0.772549 0 0 0 0 0.792157 0 0 0 0 0.819608 0 0 0 0.48 0"/><feBlend in2="shape" mode="normal" result="effect2_innerShadow_1587_120557"/></filter><filter id="b" color-interpolation-filters="sRGB" filterUnits="userSpaceOnUse" height="25.375" width="25.375" x="76.3125" y="47.75"><feFlood flood-opacity="0" result="BackgroundImageFix"/><feColorMatrix in="SourceAlpha" result="hardAlpha" type="matrix" values="0 0 0 0 0 0 0 0 0 0 0 0 0 0 0 0 0 0 127 0"/><feOffset dx="4" dy="4"/><feGaussianBlur stdDeviation="4"/><feColorMatrix type="matrix" values="0 0 0 0 0 0 0 0 0 0.470588 0 0 0 0 0.403922 0 0 0 0.16 0"/><feBlend in2="BackgroundImageFix" mode="normal" result="effect1_dropShadow_1587_120557"/><feBlend in="SourceGraphic" in2="effect1_dropShadow_1587_120557" mode="normal" result="shape"/><feColorMatrix in="SourceAlpha" result="hardAlpha" type="matrix" values="0 0 0 0 0 0 0 0 0 0 0 0 0 0 0 0 0 0 127 0"/><feOffset dx="-1" dy="-1"/><feGaussianBlur stdDeviation="1"/><feComposite in2="hardAlpha" k2="-1" k3="1" operator="arithmetic"/><feColorMatrix type="matrix" values="0 0 0 0 0 0 0 0 0 0.470588 0 0 0 0 0.403922 0 0 0 0.48 0"/><feBlend in2="shape" mode="normal" result="effect2_innerShadow_1587_120557"/></filter><filter id="c" color-interpolation-filters="sRGB" filterUnits="userSpaceOnUse" height="25.375" width="25.375" x="76.3125" y="64.625"><feFlood flood-opacity="0" result="BackgroundImageFix"/><feColorMatrix in="SourceAlpha" result="hardAlpha" type="matrix" values="0 0 0 0 0 0 0 0 0 0 0 0 0 0 0 0 0 0 127 0"/><feOffset dx="4" dy="4"/><feGaussianBlur stdDeviation="4"/><feColorMatrix type="matrix" values="0 0 0 0 0.717647 0 0 0 0 0.431373 0 0 0 0 0 0 0 0 0.16 0"/><feBlend in2="BackgroundImageFix" mode="normal" result="effect1_dropShadow_1587_120557"/><feBlend in="SourceGraphic" in2="effect1_dropShadow_1587_120557" mode="normal" result="shape"/><feColorMatrix in="SourceAlpha" result="hardAlpha" type="matrix" values="0 0 0 0 0 0 0 0 0 0 0 0 0 0 0 0 0 0 127 0"/><feOffset dx="-1" dy="-1"/><feGaussianBlur stdDeviation="1"/><feComposite in2="hardAlpha" k2="-1" k3="1" operator="arithmetic"/><feColorMatrix type="matrix" values="0 0 0 0 0.717647 0 0 0 0 0.431373 0 0 0 0 0 0 0 0 0.48 0"/><feBlend in2="shape" mode="normal" result="effect2_innerShadow_1587_120557"/></filter><filter id="d" color-interpolation-filters="sRGB" filterUnits="userSpaceOnUse" height="25.375" width="25.375" x="76.3125" y="81.5"><feFlood flood-opacity="0" result="BackgroundImageFix"/><feColorMatrix in="SourceAlpha" result="hardAlpha" type="matrix" values="0 0 0 0 0 0 0 0 0 0 0 0 0 0 0 0 0 0 127 0"/><feOffset dx="4" dy="4"/><feGaussianBlur stdDeviation="4"/><feColorMatrix type="matrix" values="0 0 0 0 0 0 0 0 0 0.470588 0 0 0 0 0.403922 0 0 0 0.16 0"/><feBlend in2="BackgroundImageFix" mode="normal" result="effect1_dropShadow_1587_120557"/><feBlend in="SourceGraphic" in2="effect1_dropShadow_1587_120557" mode="normal" result="shape"/><feColorMatrix in="SourceAlpha" result="hardAlpha" type="matrix" values="0 0 0 0 0 0 0 0 0 0 0 0 0 0 0 0 0 0 127 0"/><feOffset dx="-1" dy="-1"/><feGaussianBlur stdDeviation="1"/><feComposite in2="hardAlpha" k2="-1" k3="1" operator="arithmetic"/><feColorMatrix type="matrix" values="0 0 0 0 0 0 0 0 0 0.470588 0 0 0 0 0.403922 0 0 0 0.48 0"/><feBlend in2="shape" mode="normal" result="effect2_innerShadow_1587_120557"/></filter><filter id="e" color-interpolation-filters="sRGB" filterUnits="userSpaceOnUse" height="25.375" width="25.375" x="76.3125" y="98.375"><feFlood flood-opacity="0" result="BackgroundImageFix"/><feColorMatrix in="SourceAlpha" result="hardAlpha" type="matrix" values="0 0 0 0 0 0 0 0 0 0 0 0 0 0 0 0 0 0 127 0"/><feOffset dx="4" dy="4"/><feGaussianBlur stdDeviation="4"/><feColorMatrix type="matrix" values="0 0 0 0 0 0 0 0 0 0.470588 0 0 0 0 0.403922 0 0 0 0.16 0"/><feBlend in2="BackgroundImageFix" mode="normal" result="effect1_dropShadow_1587_120557"/><feBlend in="SourceGraphic" in2="effect1_dropShadow_1587_120557" mode="normal" result="shape"/><feColorMatrix in="SourceAlpha" result="hardAlpha" type="matrix" values="0 0 0 0 0 0 0 0 0 0 0 0 0 0 0 0 0 0 127 0"/><feOffset dx="-1" dy="-1"/><feGaussianBlur stdDeviation="1"/><feComposite in2="hardAlpha" k2="-1" k3="1" operator="arithmetic"/><feColorMatrix type="matrix" values="0 0 0 0 0 0 0 0 0 0.470588 0 0 0 0 0.403922 0 0 0 0.48 0"/><feBlend in2="shape" mode="normal" result="effect2_innerShadow_1587_120557"/></filter><filter id="f" color-interpolation-filters="sRGB" filterUnits="userSpaceOnUse" height="25.375" width="25.375" x="76.3125" y="115.25"><feFlood flood-opacity="0" result="BackgroundImageFix"/><feColorMatrix in="SourceAlpha" result="hardAlpha" type="matrix" values="0 0 0 0 0 0 0 0 0 0 0 0 0 0 0 0 0 0 127 0"/><feOffset dx="4" dy="4"/><feGaussianBlur stdDeviation="4"/><feColorMatrix type="matrix" values="0 0 0 0 0 0 0 0 0 0.470588 0 0 0 0 0.403922 0 0 0 0.16 0"/><feBlend in2="BackgroundImageFix" mode="normal" result="effect1_dropShadow_1587_120557"/><feBlend in="SourceGraphic" in2="effect1_dropShadow_1587_120557" mode="normal" result="shape"/><feColorMatrix in="SourceAlpha" result="hardAlpha" type="matrix" values="0 0 0 0 0 0 0 0 0 0 0 0 0 0 0 0 0 0 127 0"/><feOffset dx="-1" dy="-1"/><feGaussianBlur stdDeviation="1"/><feComposite in2="hardAlpha" k2="-1" k3="1" operator="arithmetic"/><feColorMatrix type="matrix" values="0 0 0 0 0 0 0 0 0 0.470588 0 0 0 0 0.403922 0 0 0 0.48 0"/><feBlend in2="shape" mode="normal" result="effect2_innerShadow_1587_120557"/></filter><clipPath id="g"><path d="m0 0h200v200h-200z"/></clipPath><g clip-path="url(#g)"><g filter="url(#a)"><rect fill="#fff" height="150" rx="12" width="60" x="70" y="33"/></g><g filter="url(#b)"><path d="m85 61.125c2.5888 0 4.6875-2.0987 4.6875-4.6875s-2.0987-4.6875-4.6875-4.6875-4.6875 2.0987-4.6875 4.6875 2.0987 4.6875 4.6875 4.6875z" fill="#00a76f"/></g><path d="m115.312 52.2188h-17.4995c-2.4162 0-4.375 1.8887-4.375 4.2187s1.9588 4.2187 4.375 4.2187h17.4995c2.417 0 4.376-1.8887 4.376-4.2187s-1.959-4.2187-4.376-4.2187z" fill="#007867" opacity=".4"/><g filter="url(#c)"><path d="m85 78c2.5888 0 4.6875-2.0987 4.6875-4.6875s-2.0987-4.6875-4.6875-4.6875-4.6875 2.0987-4.6875 4.6875 2.0987 4.6875 4.6875 4.6875z" fill="#ffab00"/></g><path d="m115.312 69.0938h-17.4995c-2.4162 0-4.375 1.8887-4.375 4.2187s1.9588 4.2187 4.375 4.2187h17.4995c2.417 0 4.376-1.8887 4.376-4.2187s-1.959-4.2187-4.376-4.2187z" fill="#b76e00" opacity=".16"/><g filter="url(#d)"><path d="m85 94.875c2.5888 0 4.6875-2.0987 4.6875-4.6875s-2.0987-4.6875-4.6875-4.6875-4.6875 2.0987-4.6875 4.6875 2.0987 4.6875 4.6875 4.6875z" fill="#00a76f"/></g><path d="m115.312 85.9688h-17.4995c-2.4162 0-4.375 1.8887-4.375 4.2187s1.9588 4.2187 4.375 4.2187h17.4995c2.417 0 4.376-1.8887 4.376-4.2187s-1.959-4.2187-4.376-4.2187z" fill="#007867" opacity=".12"/><g filter="url(#e)"><path d="m85 111.75c2.5888 0 4.6875-2.099 4.6875-4.688 0-2.588-2.0987-4.687-4.6875-4.687s-4.6875 2.099-4.6875 4.687c0 2.589 2.0987 4.688 4.6875 4.688z" fill="#00a76f"/></g><path d="m115.312 102.844h-17.4995c-2.4162 0-4.375 1.889-4.375 4.218 0 2.33 1.9588 4.219 4.375 4.219h17.4995c2.417 0 4.376-1.889 4.376-4.219 0-2.329-1.959-4.218-4.376-4.218z" fill="#007867" opacity=".12"/><g filter="url(#f)"><path d="m85 128.625c2.5888 0 4.6875-2.099 4.6875-4.687 0-2.589-2.0987-4.688-4.6875-4.688s-4.6875 2.099-4.6875 4.688c0 2.588 2.0987 4.687 4.6875 4.687z" fill="#00a76f"/></g><path d="m115.312 119.719h-17.4995c-2.4162 0-4.375 1.889-4.375 4.219 0 2.329 1.9588 4.218 4.375 4.218h17.4995c2.417 0 4.376-1.889 4.376-4.218 0-2.33-1.959-4.219-4.376-4.219z" fill="#007867" opacity=".12"/></g></svg>