<svg fill="none" height="200" viewBox="0 0 200 200" width="200" xmlns="http://www.w3.org/2000/svg" xmlns:xlink="http://www.w3.org/1999/xlink"><filter id="a" color-interpolation-filters="sRGB" filterUnits="userSpaceOnUse" height="85.6262" width="83.7144" x="38" y="46"><feFlood flood-opacity="0" result="BackgroundImageFix"/><feColorMatrix in="SourceAlpha" result="hardAlpha" type="matrix" values="0 0 0 0 0 0 0 0 0 0 0 0 0 0 0 0 0 0 127 0"/><feOffset dx="8" dy="8"/><feGaussianBlur stdDeviation="8"/><feColorMatrix type="matrix" values="0 0 0 0 0.717647 0 0 0 0 0.431373 0 0 0 0 0 0 0 0 0.16 0"/><feBlend in2="BackgroundImageFix" mode="normal" result="effect1_dropShadow_1587_120561"/><feBlend in="SourceGraphic" in2="effect1_dropShadow_1587_120561" mode="normal" result="shape"/><feColorMatrix in="SourceAlpha" result="hardAlpha" type="matrix" values="0 0 0 0 0 0 0 0 0 0 0 0 0 0 0 0 0 0 127 0"/><feOffset dx="-2" dy="-2"/><feGaussianBlur stdDeviation="2"/><feComposite in2="hardAlpha" k2="-1" k3="1" operator="arithmetic"/><feColorMatrix type="matrix" values="0 0 0 0 0.717647 0 0 0 0 0.431373 0 0 0 0 0 0 0 0 0.48 0"/><feBlend in2="shape" mode="normal" result="effect2_innerShadow_1587_120561"/></filter><filter id="b" color-interpolation-filters="sRGB" filterUnits="userSpaceOnUse" height="83.7266" width="83.6533" x="92.7808" y="50.4888"><feFlood flood-opacity="0" result="BackgroundImageFix"/><feColorMatrix in="SourceAlpha" result="hardAlpha" type="matrix" values="0 0 0 0 0 0 0 0 0 0 0 0 0 0 0 0 0 0 127 0"/><feOffset dx="8" dy="8"/><feGaussianBlur stdDeviation="8"/><feColorMatrix type="matrix" values="0 0 0 0 0.772549 0 0 0 0 0.792157 0 0 0 0 0.819608 0 0 0 0.16 0"/><feBlend in2="BackgroundImageFix" mode="normal" result="effect1_dropShadow_1587_120561"/><feBlend in="SourceGraphic" in2="effect1_dropShadow_1587_120561" mode="normal" result="shape"/><feColorMatrix in="SourceAlpha" result="hardAlpha" type="matrix" values="0 0 0 0 0 0 0 0 0 0 0 0 0 0 0 0 0 0 127 0"/><feOffset dx="-2" dy="-2"/><feGaussianBlur stdDeviation="2"/><feComposite in2="hardAlpha" k2="-1" k3="1" operator="arithmetic"/><feColorMatrix type="matrix" values="0 0 0 0 0.772549 0 0 0 0 0.792157 0 0 0 0 0.819608 0 0 0 0.48 0"/><feBlend in2="shape" mode="normal" result="effect2_innerShadow_1587_120561"/></filter><filter id="c" color-interpolation-filters="sRGB" filterUnits="userSpaceOnUse" height="83.7842" width="118.716" x="41.1143" y="102.216"><feFlood flood-opacity="0" result="BackgroundImageFix"/><feColorMatrix in="SourceAlpha" result="hardAlpha" type="matrix" values="0 0 0 0 0 0 0 0 0 0 0 0 0 0 0 0 0 0 127 0"/><feOffset dx="8" dy="8"/><feGaussianBlur stdDeviation="8"/><feColorMatrix type="matrix" values="0 0 0 0 0 0 0 0 0 0.470588 0 0 0 0 0.403922 0 0 0 0.16 0"/><feBlend in2="BackgroundImageFix" mode="normal" result="effect1_dropShadow_1587_120561"/><feBlend in="SourceGraphic" in2="effect1_dropShadow_1587_120561" mode="normal" result="shape"/><feColorMatrix in="SourceAlpha" result="hardAlpha" type="matrix" values="0 0 0 0 0 0 0 0 0 0 0 0 0 0 0 0 0 0 127 0"/><feOffset dx="-2" dy="-2"/><feGaussianBlur stdDeviation="2"/><feComposite in2="hardAlpha" k2="-1" k3="1" operator="arithmetic"/><feColorMatrix type="matrix" values="0 0 0 0 0 0 0 0 0 0.470588 0 0 0 0 0.403922 0 0 0 0.48 0"/><feBlend in2="shape" mode="normal" result="effect2_innerShadow_1587_120561"/></filter><g filter="url(#a)"><path d="m95.9241 54.0013c-1.6913.0652-3.0158.1499-3.9737.254-4.8124.5228-9.5347 1.699-14.0263 3.5012-6.2743 2.5177-11.9753 6.2078-16.7773 10.8598-4.8021 4.6518-8.6114 10.1746-11.2103 16.2527s-3.9365 12.5924-3.9365 19.171v1.862c0 .952.7718 1.724 1.7238 1.724h48.2667c.9521 0 1.7238-.772 1.7238-1.724v-1.862-48.3158c.0003-.952-.7713-1.724-1.7233-1.7242-.0223 0-.0446.0004-.0669.0013z" fill="#ffab00"/></g><g filter="url(#b)"><path d="m152.433 108.421c-.074-1.809-.171-3.222-.29-4.239-.554-4.7286-1.758-9.3675-3.584-13.7837-2.599-6.2828-6.409-11.9913-11.211-16.8-4.802-4.8086-10.503-8.623-16.777-11.2254-4.531-1.8792-9.296-3.0999-14.152-3.6332-.93-.1021-2.212-.1853-3.847-.2496-.951-.0372-1.753.7037-1.79 1.6551-.001.0222-.001.0446-.001.0669v47.4179c0 1.428 1.157 2.585 2.585 2.585h21.418 24.004 1.923c.952 0 1.723-.772 1.723-1.724 0-.023 0-.047-.001-.07z" fill="#fff"/></g><g filter="url(#c)"><path d="m49.1153 111.998c.0383 1.122.0862 2.016.1437 2.682.7489 8.667 3.6696 17.032 8.523 24.306 5.6824 8.516 13.7591 15.153 23.2087 19.072 9.4495 3.92 19.8473 4.945 29.8793 2.947 8.381-1.669 16.192-5.387 22.753-10.788.303-.25.653-.551 1.05-.904 1.423-1.265 1.551-3.444.286-4.867-.045-.05-.09-.098-.138-.144l-33.03-33.075c-.647-.647-1.524-1.011-2.4395-1.011h-48.5126c-.9521-.001-1.7242.771-1.7246 1.723-.0001.02.0003.039.001.059z" fill="#00a76f"/></g><path d="m140.748 145.71c.222-.248.419-.472.589-.672 7.73-9.073 12.373-20.373 13.248-32.258.01-.144.021-.301.03-.469.111-1.901-1.339-3.532-3.24-3.643-.067-.004-.135-.006-.202-.006h-48.995c-.676 0-1.225.548-1.225 1.225v.511c0 .457.182.896.506 1.22l34.286 34.229c1.346 1.346 3.529 1.345 4.875-.002.044-.044.087-.089.128-.135z" fill="#fff"/><path d="m140.748 145.71c.222-.248.419-.472.589-.672 7.73-9.073 12.373-20.373 13.248-32.258.01-.144.021-.301.03-.469.111-1.901-1.339-3.532-3.24-3.643-.067-.004-.135-.006-.202-.006h-48.995c-.676 0-1.225.548-1.225 1.225v.511c0 .457.182.896.506 1.22l34.286 34.229c1.346 1.346 3.529 1.345 4.875-.002.044-.044.087-.089.128-.135z" fill="#007867" opacity=".12"/></svg>