<svg fill="none" height="200" viewBox="0 0 200 200" width="200" xmlns="http://www.w3.org/2000/svg" xmlns:xlink="http://www.w3.org/1999/xlink"><filter id="a" color-interpolation-filters="sRGB" filterUnits="userSpaceOnUse" height="35.5349" width="35.5347" x="146.465" y="49"><feFlood flood-opacity="0" result="BackgroundImageFix"/><feColorMatrix in="SourceAlpha" result="hardAlpha" type="matrix" values="0 0 0 0 0 0 0 0 0 0 0 0 0 0 0 0 0 0 127 0"/><feOffset dx="4" dy="4"/><feGaussianBlur stdDeviation="4"/><feColorMatrix type="matrix" values="0 0 0 0 0.717647 0 0 0 0 0.431373 0 0 0 0 0 0 0 0 0.16 0"/><feBlend in2="BackgroundImageFix" mode="normal" result="effect1_dropShadow_1587_120564"/><feBlend in="SourceGraphic" in2="effect1_dropShadow_1587_120564" mode="normal" result="shape"/><feColorMatrix in="SourceAlpha" result="hardAlpha" type="matrix" values="0 0 0 0 0 0 0 0 0 0 0 0 0 0 0 0 0 0 127 0"/><feOffset dx="-1" dy="-1"/><feGaussianBlur stdDeviation="1"/><feComposite in2="hardAlpha" k2="-1" k3="1" operator="arithmetic"/><feColorMatrix type="matrix" values="0 0 0 0 0.717647 0 0 0 0 0.431373 0 0 0 0 0 0 0 0 0.48 0"/><feBlend in2="shape" mode="normal" result="effect2_innerShadow_1587_120564"/></filter><filter id="b" color-interpolation-filters="sRGB" filterUnits="userSpaceOnUse" height="110.14" width="136.186" x="39.9067" y="77.5581"><feFlood flood-opacity="0" result="BackgroundImageFix"/><feColorMatrix in="SourceAlpha" result="hardAlpha" type="matrix" values="0 0 0 0 0 0 0 0 0 0 0 0 0 0 0 0 0 0 127 0"/><feOffset dx="8" dy="8"/><feGaussianBlur stdDeviation="8"/><feColorMatrix type="matrix" values="0 0 0 0 0.772549 0 0 0 0 0.792157 0 0 0 0 0.819608 0 0 0 0.16 0"/><feBlend in2="BackgroundImageFix" mode="normal" result="effect1_dropShadow_1587_120564"/><feBlend in="SourceGraphic" in2="effect1_dropShadow_1587_120564" mode="normal" result="shape"/><feColorMatrix in="SourceAlpha" result="hardAlpha" type="matrix" values="0 0 0 0 0 0 0 0 0 0 0 0 0 0 0 0 0 0 127 0"/><feOffset dx="-2" dy="-2"/><feGaussianBlur stdDeviation="2"/><feComposite in2="hardAlpha" k2="-1" k3="1" operator="arithmetic"/><feColorMatrix type="matrix" values="0 0 0 0 0.772549 0 0 0 0 0.792157 0 0 0 0 0.819608 0 0 0 0.48 0"/><feBlend in2="shape" mode="normal" result="effect2_innerShadow_1587_120564"/></filter><filter id="c" color-interpolation-filters="sRGB" filterUnits="userSpaceOnUse" height="87.3489" width="136.186" x="39.9067" y="100.349"><feFlood flood-opacity="0" result="BackgroundImageFix"/><feColorMatrix in="SourceAlpha" result="hardAlpha" type="matrix" values="0 0 0 0 0 0 0 0 0 0 0 0 0 0 0 0 0 0 127 0"/><feOffset dx="8" dy="8"/><feGaussianBlur stdDeviation="8"/><feColorMatrix type="matrix" values="0 0 0 0 0 0 0 0 0 0.470588 0 0 0 0 0.403922 0 0 0 0.16 0"/><feBlend in2="BackgroundImageFix" mode="normal" result="effect1_dropShadow_1587_120564"/><feBlend in="SourceGraphic" in2="effect1_dropShadow_1587_120564" mode="normal" result="shape"/><feColorMatrix in="SourceAlpha" result="hardAlpha" type="matrix" values="0 0 0 0 0 0 0 0 0 0 0 0 0 0 0 0 0 0 127 0"/><feOffset dx="-2" dy="-2"/><feGaussianBlur stdDeviation="2"/><feComposite in2="hardAlpha" k2="-1" k3="1" operator="arithmetic"/><feColorMatrix type="matrix" values="0 0 0 0 0 0 0 0 0 0.470588 0 0 0 0 0.403922 0 0 0 0.48 0"/><feBlend in2="shape" mode="normal" result="effect2_innerShadow_1587_120564"/></filter><filter id="d" color-interpolation-filters="sRGB" filterUnits="userSpaceOnUse" height="30.6511" width="25.7676" x="26" y="113.302"><feFlood flood-opacity="0" result="BackgroundImageFix"/><feColorMatrix in="SourceAlpha" result="hardAlpha" type="matrix" values="0 0 0 0 0 0 0 0 0 0 0 0 0 0 0 0 0 0 127 0"/><feOffset dx="4" dy="4"/><feGaussianBlur stdDeviation="4"/><feColorMatrix type="matrix" values="0 0 0 0 0.717647 0 0 0 0 0.431373 0 0 0 0 0 0 0 0 0.16 0"/><feBlend in2="BackgroundImageFix" mode="normal" result="effect1_dropShadow_1587_120564"/><feBlend in="SourceGraphic" in2="effect1_dropShadow_1587_120564" mode="normal" result="shape"/><feColorMatrix in="SourceAlpha" result="hardAlpha" type="matrix" values="0 0 0 0 0 0 0 0 0 0 0 0 0 0 0 0 0 0 127 0"/><feOffset dx="-1" dy="-1"/><feGaussianBlur stdDeviation="1"/><feComposite in2="hardAlpha" k2="-1" k3="1" operator="arithmetic"/><feColorMatrix type="matrix" values="0 0 0 0 0.717647 0 0 0 0 0.431373 0 0 0 0 0 0 0 0 0.48 0"/><feBlend in2="shape" mode="normal" result="effect2_innerShadow_1587_120564"/></filter><filter id="e" color-interpolation-filters="sRGB" filterUnits="userSpaceOnUse" height="30.6511" width="25.7676" x="156.232" y="113.302"><feFlood flood-opacity="0" result="BackgroundImageFix"/><feColorMatrix in="SourceAlpha" result="hardAlpha" type="matrix" values="0 0 0 0 0 0 0 0 0 0 0 0 0 0 0 0 0 0 127 0"/><feOffset dx="4" dy="4"/><feGaussianBlur stdDeviation="4"/><feColorMatrix type="matrix" values="0 0 0 0 0.717647 0 0 0 0 0.431373 0 0 0 0 0 0 0 0 0.16 0"/><feBlend in2="BackgroundImageFix" mode="normal" result="effect1_dropShadow_1587_120564"/><feBlend in="SourceGraphic" in2="effect1_dropShadow_1587_120564" mode="normal" result="shape"/><feColorMatrix in="SourceAlpha" result="hardAlpha" type="matrix" values="0 0 0 0 0 0 0 0 0 0 0 0 0 0 0 0 0 0 127 0"/><feOffset dx="-1" dy="-1"/><feGaussianBlur stdDeviation="1"/><feComposite in2="hardAlpha" k2="-1" k3="1" operator="arithmetic"/><feColorMatrix type="matrix" values="0 0 0 0 0.717647 0 0 0 0 0.431373 0 0 0 0 0 0 0 0 0.48 0"/><feBlend in2="shape" mode="normal" result="effect2_innerShadow_1587_120564"/></filter><g filter="url(#a)"><path clip-rule="evenodd" d="m170 62.7674c0 5.3944-4.373 9.7675-9.767 9.7675-5.395 0-9.768-4.3731-9.768-9.7675s4.373-9.7674 9.768-9.7674c5.394 0 9.767 4.373 9.767 9.7674zm-7.828.1115 2.677 2.6768c.505.5051.505 1.3234 0 1.8282-.252.2523-.583.3785-.914.3785s-.661-.1262-.914-.3785l-2.677-2.6769-2.677 2.6767c-.252.2523-.583.3785-.914.3785s-.661-.126-.914-.3785c-.505-.5046-.505-1.3232 0-1.8282l2.677-2.6769-2.677-2.6768c-.505-.5046-.505-1.3231 0-1.8282.505-.5048 1.323-.5048 1.828 0l2.677 2.6771 2.677-2.6769c.505-.5048 1.323-.5048 1.828 0 .505.5049.505 1.3234 0 1.8282z" fill="#ffab00" fill-rule="evenodd"/></g><g filter="url(#b)"><rect fill="#fff" height="78.1395" rx="12" width="104.186" x="47.9067" y="85.5581"/></g><path d="m142.325 108.349-28.717 13.249c-4.52 2.085-9.587 2.344-14.2706.729l-8.0517-2.777c-4.1104-1.418-8.608-.502-11.9538 2.433l-31.4252 27.064 61.2443 3.255z" fill="#007867" opacity=".16"/><g filter="url(#c)"><path d="m58.0812 163.698c-6.3531-.046-10.1745-4.734-10.1745-10.51v-4.154l32.8229-11.373c2.6131-.905 5.5081-.496 7.7611 1.097l6.7825 4.796c2.5934 1.834 6.1558 1.494 8.3468-.796l32.677-31.777c2.453-2.562 6.258-3.341 9.535-1.95l6.261 2.656v41.501c0 5.776-3.415 10.464-9.768 10.51z" fill="#00a76f"/></g><path d="m162.083 117.302c-1.022 0-1.851.848-1.851 1.894v10.864c0 .458.163.902.458 1.247.673.787 1.842.867 2.611.178l6.067-5.432c.062-.055.12-.115.174-.178.673-.787.595-1.984-.174-2.672l-6.067-5.432c-.337-.302-.77-.469-1.218-.469z" fill="#fff"/><path d="m37.917 117.302c-.4482 0-.8812.167-1.2185.469l-6.0666 5.432c-.7691.688-.847 1.885-.174 2.672.0541.063.1122.123.174.178l6.0666 5.432c.7691.689 1.9381.609 2.6111-.178.2952-.345.4578-.789.4578-1.247v-10.864c0-1.046-.8284-1.894-1.8504-1.894z" fill="#fff"/><g filter="url(#d)"><path d="m37.917 117.302c-.4482 0-.8812.167-1.2185.469l-6.0666 5.432c-.7691.688-.847 1.885-.174 2.672.0541.063.1122.123.174.178l6.0666 5.432c.7691.689 1.9381.609 2.6111-.178.2952-.345.4578-.789.4578-1.247v-10.864c0-1.046-.8284-1.894-1.8504-1.894z" fill="#ffab00"/></g><g filter="url(#e)" opacity=".48"><path d="m162.083 117.302c-1.022 0-1.851.848-1.851 1.894v10.864c0 .458.163.902.458 1.247.673.787 1.842.867 2.611.178l6.067-5.432c.062-.055.12-.115.174-.178.673-.787.595-1.984-.174-2.672l-6.067-5.432c-.337-.302-.77-.469-1.218-.469z" fill="#ffab00"/></g></svg>