<svg fill="none" height="200" viewBox="0 0 200 200" width="200" xmlns="http://www.w3.org/2000/svg" xmlns:xlink="http://www.w3.org/1999/xlink"><filter id="a" color-interpolation-filters="sRGB" filterUnits="userSpaceOnUse" height="108.447" width="108.364" x="75.6362" y="62"><feFlood flood-opacity="0" result="BackgroundImageFix"/><feColorMatrix in="SourceAlpha" result="hardAlpha" type="matrix" values="0 0 0 0 0 0 0 0 0 0 0 0 0 0 0 0 0 0 127 0"/><feOffset dx="8" dy="8"/><feGaussianBlur stdDeviation="8"/><feColorMatrix type="matrix" values="0 0 0 0 0 0 0 0 0 0.470588 0 0 0 0 0.403922 0 0 0 0.16 0"/><feBlend in2="BackgroundImageFix" mode="normal" result="effect1_dropShadow_1587_120569"/><feBlend in="SourceGraphic" in2="effect1_dropShadow_1587_120569" mode="normal" result="shape"/><feColorMatrix in="SourceAlpha" result="hardAlpha" type="matrix" values="0 0 0 0 0 0 0 0 0 0 0 0 0 0 0 0 0 0 127 0"/><feOffset dx="-2" dy="-2"/><feGaussianBlur stdDeviation="2"/><feComposite in2="hardAlpha" k2="-1" k3="1" operator="arithmetic"/><feColorMatrix type="matrix" values="0 0 0 0 0 0 0 0 0 0.470588 0 0 0 0 0.403922 0 0 0 0.48 0"/><feBlend in2="shape" mode="normal" result="effect2_innerShadow_1587_120569"/></filter><path d="m85.4815 72.3506c4.3518-1.703 9.0227-2.48 13.6551-2.2609-7.3777 2.9882-14.1475 8.1644-18.4415 15.283-3.7274 6.0933-5.5182 13.3463-5.851 20.5553-1.1251 14.182 5.8179 28.492 16.8845 36.353 2.5555 1.785 5.3338 3.233 8.2714 4.148-7.1078.467-14.337-1.35-20.4575-5.223-7.3997-4.621-13.1545-12.134-15.8695-20.786-3.356-10.519-2.1182-22.5715 3.3945-32.0211 4.2087-7.3406 10.797-13.1214 18.414-16.0483z" fill="#fff"/><path d="m56.3933 76.2154c6.1537-4.2672 13.5745-6.5117 20.932-6.1527-6.8479 3.0063-13.2853 7.5654-17.5714 14.0799-5.1896 7.7026-7.0132 17.4224-6.6991 26.7474.6225 12.618 7.3409 24.654 17.2987 31.545 2.4212 1.711 5.1097 2.908 7.8285 3.964-7.5035.505-15.1364-1.605-21.4609-5.907-7.0462-4.738-12.4617-12.139-14.9959-20.566-2.2477-7.372-2.3028-15.478-.1432-22.8826 2.4378-8.4935 7.7899-15.9917 14.8113-20.828z" fill="#fff"/><path d="m56.3933 76.2154c6.1537-4.2672 13.5745-6.5117 20.932-6.1527-6.8479 3.0063-13.2853 7.5654-17.5714 14.0799-5.1896 7.7026-7.0132 17.4224-6.6991 26.7474.6225 12.618 7.3409 24.654 17.2987 31.545 2.4212 1.711 5.1097 2.908 7.8285 3.964-7.5035.505-15.1364-1.605-21.4609-5.907-7.0462-4.738-12.4617-12.139-14.9959-20.566-2.2477-7.372-2.3028-15.478-.1432-22.8826 2.4378-8.4935 7.7899-15.9917 14.8113-20.828z" fill="#007867" opacity=".16"/><path d="m85.4815 72.3506c4.3518-1.703 9.0227-2.48 13.6551-2.2609-7.3777 2.9882-14.1475 8.1644-18.4415 15.283-3.7274 6.0933-5.5182 13.3463-5.851 20.5553-1.1251 14.182 5.8179 28.492 16.8845 36.353 2.5555 1.785 5.3338 3.233 8.2714 4.148-7.1078.467-14.337-1.35-20.4575-5.223-7.3997-4.621-13.1545-12.134-15.8695-20.786-3.356-10.519-2.1182-22.5715 3.3945-32.0211 4.2087-7.3406 10.797-13.1214 18.414-16.0483z" fill="#007867" opacity=".4"/><g filter="url(#a)"><path d="m118.968 70.1076c8.219-.6272 16.621 1.5024 23.528 6.0098 9.309 5.966 15.807 16.1448 17.169 27.1346 1.385 10.147-1.566 20.789-7.994 28.76-5.578 7.06-13.723 12.037-22.563 13.732-6.42 1.26-13.16.819-19.364-1.261-6.061-2.018-11.595-5.598-15.9244-10.301-6.1603-6.602-9.8483-15.456-10.1515-24.488-.347-8.338 2.1516-16.7608 7.0058-23.5496 6.4373-9.1897 17.0931-15.2637 28.2941-16.0368z" fill="#00a76f"/></g></svg>