<svg fill="none" height="200" viewBox="0 0 200 200" width="200" xmlns="http://www.w3.org/2000/svg" xmlns:xlink="http://www.w3.org/1999/xlink"><filter id="a" color-interpolation-filters="sRGB" filterUnits="userSpaceOnUse" height="104" width="104" x="58.5718" y="66.5713"><feFlood flood-opacity="0" result="BackgroundImageFix"/><feColorMatrix in="SourceAlpha" result="hardAlpha" type="matrix" values="0 0 0 0 0 0 0 0 0 0 0 0 0 0 0 0 0 0 127 0"/><feOffset dx="8" dy="8"/><feGaussianBlur stdDeviation="8"/><feColorMatrix type="matrix" values="0 0 0 0 0 0 0 0 0 0.470588 0 0 0 0 0.403922 0 0 0 0.16 0"/><feBlend in2="BackgroundImageFix" mode="normal" result="effect1_dropShadow_3961_127848"/><feBlend in="SourceGraphic" in2="effect1_dropShadow_3961_127848" mode="normal" result="shape"/><feColorMatrix in="SourceAlpha" result="hardAlpha" type="matrix" values="0 0 0 0 0 0 0 0 0 0 0 0 0 0 0 0 0 0 127 0"/><feOffset dx="-2" dy="-2"/><feGaussianBlur stdDeviation="2"/><feComposite in2="hardAlpha" k2="-1" k3="1" operator="arithmetic"/><feColorMatrix type="matrix" values="0 0 0 0 0 0 0 0 0 0.470588 0 0 0 0 0.403922 0 0 0 0.48 0"/><feBlend in2="shape" mode="normal" result="effect2_innerShadow_3961_127848"/></filter><filter id="b" color-interpolation-filters="sRGB" filterUnits="userSpaceOnUse" height="88.5715" width="88.5718" x="89.4282" y="97.4285"><feFlood flood-opacity="0" result="BackgroundImageFix"/><feColorMatrix in="SourceAlpha" result="hardAlpha" type="matrix" values="0 0 0 0 0 0 0 0 0 0 0 0 0 0 0 0 0 0 127 0"/><feOffset dx="8" dy="8"/><feGaussianBlur stdDeviation="8"/><feColorMatrix type="matrix" values="0 0 0 0 0.717647 0 0 0 0 0.431373 0 0 0 0 0 0 0 0 0.16 0"/><feBlend in2="BackgroundImageFix" mode="normal" result="effect1_dropShadow_3961_127848"/><feBlend in="SourceGraphic" in2="effect1_dropShadow_3961_127848" mode="normal" result="shape"/><feColorMatrix in="SourceAlpha" result="hardAlpha" type="matrix" values="0 0 0 0 0 0 0 0 0 0 0 0 0 0 0 0 0 0 127 0"/><feOffset dx="-2" dy="-2"/><feGaussianBlur stdDeviation="2"/><feComposite in2="hardAlpha" k2="-1" k3="1" operator="arithmetic"/><feColorMatrix type="matrix" values="0 0 0 0 0.717647 0 0 0 0 0.431373 0 0 0 0 0 0 0 0 0.48 0"/><feBlend in2="shape" mode="normal" result="effect2_innerShadow_3961_127848"/></filter><filter id="c" color-interpolation-filters="sRGB" filterUnits="userSpaceOnUse" height="88.0513" width="88" x="42" y="50"><feFlood flood-opacity="0" result="BackgroundImageFix"/><feColorMatrix in="SourceAlpha" result="hardAlpha" type="matrix" values="0 0 0 0 0 0 0 0 0 0 0 0 0 0 0 0 0 0 127 0"/><feOffset dx="4" dy="4"/><feGaussianBlur stdDeviation="4"/><feColorMatrix type="matrix" values="0 0 0 0 0.772549 0 0 0 0 0.792157 0 0 0 0 0.819608 0 0 0 0.16 0"/><feBlend in2="BackgroundImageFix" mode="normal" result="effect1_dropShadow_3961_127848"/><feBlend in="SourceGraphic" in2="effect1_dropShadow_3961_127848" mode="normal" result="shape"/><feColorMatrix in="SourceAlpha" result="hardAlpha" type="matrix" values="0 0 0 0 0 0 0 0 0 0 0 0 0 0 0 0 0 0 127 0"/><feOffset dx="-1" dy="-1"/><feGaussianBlur stdDeviation="1"/><feComposite in2="hardAlpha" k2="-1" k3="1" operator="arithmetic"/><feColorMatrix type="matrix" values="0 0 0 0 0.772549 0 0 0 0 0.792157 0 0 0 0 0.819608 0 0 0 0.48 0"/><feBlend in2="shape" mode="normal" result="effect2_innerShadow_3961_127848"/></filter><g filter="url(#a)"><path clip-rule="evenodd" d="m71.0907 79.0902c2.8934-2.8934 6.8177-4.5189 10.9096-4.5189h41.1427c4.092 0 8.016 1.6255 10.91 4.5189 2.893 2.8934 4.519 6.8177 4.519 10.9097v10.2861c0 2.84-2.303 5.142-5.143 5.142s-5.143-2.302-5.143-5.142v-10.2861c0-1.364-.542-2.6721-1.506-3.6366-.965-.9645-2.273-1.5063-3.637-1.5063h-41.1427c-1.3639 0-2.672.5418-3.6365 1.5063s-1.5063 2.2726-1.5063 3.6366v41.1431c0 1.364.5418 2.672 1.5063 3.636.9645.965 2.2726 1.507 3.6365 1.507h10.2857c2.8404 0 5.1429 2.302 5.1429 5.142 0 2.841-2.3025 5.143-5.1429 5.143h-10.2857c-4.0919 0-8.0162-1.625-10.9096-4.519-2.8934-2.893-4.5189-6.817-4.5189-10.909v-41.1431c0-4.092 1.6255-8.0163 4.5189-10.9097z" fill="#00a76f" fill-rule="evenodd"/></g><g filter="url(#b)"><path clip-rule="evenodd" d="m98.9347 106.935c1.3773-1.378 3.4153-1.858 5.2633-1.242l46.285 15.428c1.974.658 3.356 2.44 3.504 4.514.147 2.075-.97 4.035-2.83 4.965l-19.038 9.519-9.519 19.038c-.931 1.861-2.89 2.978-4.965 2.83-2.075-.147-3.856-1.53-4.514-3.504l-15.4287-46.285c-.616-1.848-.1351-3.886 1.2424-5.263zm11.7683 11.768 8.249 24.749 4.734-9.466c.497-.996 1.304-1.803 2.3-2.3l9.466-4.733z" fill="#ffab00" fill-rule="evenodd"/></g><g filter="url(#c)"><path clip-rule="evenodd" d="m51.1429 54c2.8403 0 5.1428 2.3025 5.1428 5.1429v.0514c0 2.8403-2.3025 5.1428-5.1428 5.1428-2.8404 0-5.1429-2.3025-5.1429-5.1428v-.0514c0-2.8404 2.3025-5.1429 5.1429-5.1429zm20.5714 0c2.8403 0 5.1428 2.3025 5.1428 5.1429v.0514c0 2.8403-2.3025 5.1428-5.1428 5.1428-2.8404 0-5.1429-2.3025-5.1429-5.1428v-.0514c0-2.8404 2.3025-5.1429 5.1429-5.1429zm20.5714 0c2.8403 0 5.1428 2.3025 5.1428 5.1429v.0514c0 2.8403-2.3025 5.1428-5.1428 5.1428s-5.1429-2.3025-5.1429-5.1428v-.0514c0-2.8404 2.3026-5.1429 5.1429-5.1429zm20.5713 0c2.84 0 5.143 2.3025 5.143 5.1429v.0514c0 2.8403-2.303 5.1428-5.143 5.1428s-5.143-2.3025-5.143-5.1428v-.0514c0-2.8404 2.303-5.1429 5.143-5.1429zm-61.7141 20.5714c2.8403 0 5.1428 2.3026 5.1428 5.1429v.0514c0 2.8403-2.3025 5.1429-5.1428 5.1429-2.8404 0-5.1429-2.3026-5.1429-5.1429v-.0514c0-2.8403 2.3025-5.1429 5.1429-5.1429zm0 20.5714c2.8403 0 5.1428 2.3026 5.1428 5.1432v.051c0 2.84-2.3025 5.143-5.1428 5.143-2.8404 0-5.1429-2.303-5.1429-5.143v-.051c0-2.8406 2.3025-5.1432 5.1429-5.1432zm0 20.5712c2.8403 0 5.1428 2.303 5.1428 5.143v.052c0 2.84-2.3025 5.142-5.1428 5.142-2.8404 0-5.1429-2.302-5.1429-5.142v-.052c0-2.84 2.3025-5.143 5.1429-5.143z" fill="#fff" fill-rule="evenodd"/></g></svg>