<svg fill="none" height="200" viewBox="0 0 200 200" width="200" xmlns="http://www.w3.org/2000/svg" xmlns:xlink="http://www.w3.org/1999/xlink"><filter id="a" color-interpolation-filters="sRGB" filterUnits="userSpaceOnUse" height="120.421" width="152" x="32" y="56"><feFlood flood-opacity="0" result="BackgroundImageFix"/><feColorMatrix in="SourceAlpha" result="hardAlpha" type="matrix" values="0 0 0 0 0 0 0 0 0 0 0 0 0 0 0 0 0 0 127 0"/><feOffset dx="8" dy="8"/><feGaussianBlur stdDeviation="8"/><feColorMatrix type="matrix" values="0 0 0 0 0.772549 0 0 0 0 0.792157 0 0 0 0 0.819608 0 0 0 0.16 0"/><feBlend in2="BackgroundImageFix" mode="normal" result="effect1_dropShadow_2208_147554"/><feBlend in="SourceGraphic" in2="effect1_dropShadow_2208_147554" mode="normal" result="shape"/><feColorMatrix in="SourceAlpha" result="hardAlpha" type="matrix" values="0 0 0 0 0 0 0 0 0 0 0 0 0 0 0 0 0 0 127 0"/><feOffset dx="-2" dy="-2"/><feGaussianBlur stdDeviation="2"/><feComposite in2="hardAlpha" k2="-1" k3="1" operator="arithmetic"/><feColorMatrix type="matrix" values="0 0 0 0 0.772549 0 0 0 0 0.792157 0 0 0 0 0.819608 0 0 0 0.48 0"/><feBlend in2="shape" mode="normal" result="effect2_innerShadow_2208_147554"/></filter><filter id="b" color-interpolation-filters="sRGB" filterUnits="userSpaceOnUse" height="82.5264" width="114.111" x="50.9473" y="74.9473"><feFlood flood-opacity="0" result="BackgroundImageFix"/><feColorMatrix in="SourceAlpha" result="hardAlpha" type="matrix" values="0 0 0 0 0 0 0 0 0 0 0 0 0 0 0 0 0 0 127 0"/><feOffset dx="8" dy="8"/><feGaussianBlur stdDeviation="8"/><feColorMatrix type="matrix" values="0 0 0 0 0 0 0 0 0 0.470588 0 0 0 0 0.403922 0 0 0 0.16 0"/><feBlend in2="BackgroundImageFix" mode="normal" result="effect1_dropShadow_2208_147554"/><feBlend in="SourceGraphic" in2="effect1_dropShadow_2208_147554" mode="normal" result="shape"/><feColorMatrix in="SourceAlpha" result="hardAlpha" type="matrix" values="0 0 0 0 0 0 0 0 0 0 0 0 0 0 0 0 0 0 127 0"/><feOffset dx="-2" dy="-2"/><feGaussianBlur stdDeviation="2"/><feComposite in2="hardAlpha" k2="-1" k3="1" operator="arithmetic"/><feColorMatrix type="matrix" values="0 0 0 0 0 0 0 0 0 0.470588 0 0 0 0 0.403922 0 0 0 0.48 0"/><feBlend in2="shape" mode="normal" result="effect2_innerShadow_2208_147554"/></filter><g filter="url(#a)"><rect fill="#fff" height="88.4211" rx="12" width="120" x="40" y="64"/></g><g filter="url(#b)"><path d="m135.139 133.474h-70.2682c-3.2658 0-5.9235-2.654-5.9235-5.92v-38.6874c0-3.2657 2.6577-5.9193 5.9235-5.9193h70.2642c3.266 0 5.924 2.6536 5.924 5.9193v38.6874c.004 3.266-2.654 5.92-5.92 5.92zm-56.4495-11.839v-15.396l7.8953 9.867 7.8952-9.867v15.396h7.895v-26.849h-7.895l-7.8952 9.871-7.8953-9.871h-7.8953v26.845h7.8953zm52.8965-13.425h-7.895v-13.424h-7.9v13.424h-7.895l11.847 13.819z" fill="#00a76f"/></g></svg>