<svg fill="none" height="200" viewBox="0 0 200 200" width="200" xmlns="http://www.w3.org/2000/svg" xmlns:xlink="http://www.w3.org/1999/xlink"><filter id="a" color-interpolation-filters="sRGB" filterUnits="userSpaceOnUse" height="88.842" width="152" x="32" y="72"><feFlood flood-opacity="0" result="BackgroundImageFix"/><feColorMatrix in="SourceAlpha" result="hardAlpha" type="matrix" values="0 0 0 0 0 0 0 0 0 0 0 0 0 0 0 0 0 0 127 0"/><feOffset dx="8" dy="8"/><feGaussianBlur stdDeviation="8"/><feColorMatrix type="matrix" values="0 0 0 0 0.772549 0 0 0 0 0.792157 0 0 0 0 0.819608 0 0 0 0.16 0"/><feBlend in2="BackgroundImageFix" mode="normal" result="effect1_dropShadow_1589_121148"/><feBlend in="SourceGraphic" in2="effect1_dropShadow_1589_121148" mode="normal" result="shape"/><feColorMatrix in="SourceAlpha" result="hardAlpha" type="matrix" values="0 0 0 0 0 0 0 0 0 0 0 0 0 0 0 0 0 0 127 0"/><feOffset dx="-2" dy="-2"/><feGaussianBlur stdDeviation="2"/><feComposite in2="hardAlpha" k2="-1" k3="1" operator="arithmetic"/><feColorMatrix type="matrix" values="0 0 0 0 0.772549 0 0 0 0 0.792157 0 0 0 0 0.819608 0 0 0 0.48 0"/><feBlend in2="shape" mode="normal" result="effect2_innerShadow_1589_121148"/></filter><filter id="b" color-interpolation-filters="sRGB" filterUnits="userSpaceOnUse" height="38.1052" width="38.1055" x="124.421" y="93.3684"><feFlood flood-opacity="0" result="BackgroundImageFix"/><feColorMatrix in="SourceAlpha" result="hardAlpha" type="matrix" values="0 0 0 0 0 0 0 0 0 0 0 0 0 0 0 0 0 0 127 0"/><feOffset dx="4" dy="4"/><feGaussianBlur stdDeviation="4"/><feColorMatrix type="matrix" values="0 0 0 0 0.717647 0 0 0 0 0.431373 0 0 0 0 0 0 0 0 0.16 0"/><feBlend in2="BackgroundImageFix" mode="normal" result="effect1_dropShadow_1589_121148"/><feBlend in="SourceGraphic" in2="effect1_dropShadow_1589_121148" mode="normal" result="shape"/><feColorMatrix in="SourceAlpha" result="hardAlpha" type="matrix" values="0 0 0 0 0 0 0 0 0 0 0 0 0 0 0 0 0 0 127 0"/><feOffset dx="-1" dy="-1"/><feGaussianBlur stdDeviation="1"/><feComposite in2="hardAlpha" k2="-1" k3="1" operator="arithmetic"/><feColorMatrix type="matrix" values="0 0 0 0 0.717647 0 0 0 0 0.431373 0 0 0 0 0 0 0 0 0.48 0"/><feBlend in2="shape" mode="normal" result="effect2_innerShadow_1589_121148"/></filter><g filter="url(#a)"><rect fill="#fff" height="56.8421" rx="12" width="120" x="40" y="80"/></g><rect fill="#007867" height="7.89474" opacity=".4" rx="3.94737" width="22.1053" x="49.4736" y="97.3684"/><rect fill="#007867" height="7.89474" opacity=".16" rx="3.94737" width="50.5263" x="49.4736" y="111.579"/><g filter="url(#b)"><path clip-rule="evenodd" d="m150.526 108.421c0 6.104-4.948 11.053-11.052 11.053-6.105 0-11.053-4.949-11.053-11.053s4.948-11.0526 11.053-11.0526c6.104 0 11.052 4.9486 11.052 11.0526zm-8.858.126 3.029 3.029c.572.572.572 1.498.001 2.069-.286.285-.66.428-1.035.428-.374 0-.748-.143-1.034-.428l-3.03-3.029-3.028 3.029c-.286.285-.661.428-1.035.428s-.748-.143-1.034-.428c-.572-.571-.572-1.498 0-2.069l3.029-3.029-3.029-3.029c-.572-.571-.572-1.497 0-2.069.571-.571 1.497-.571 2.068 0l3.029 3.029 3.03-3.029c.571-.571 1.497-.571 2.068 0 .572.572.572 1.498 0 2.069z" fill="#ffab00" fill-rule="evenodd"/></g></svg>