<svg fill="none" height="200" viewBox="0 0 200 200" width="200" xmlns="http://www.w3.org/2000/svg" xmlns:xlink="http://www.w3.org/1999/xlink"><filter id="a" color-interpolation-filters="sRGB" filterUnits="userSpaceOnUse" height="112" width="158.667" x="28.667" y="47"><feFlood flood-opacity="0" result="BackgroundImageFix"/><feColorMatrix in="SourceAlpha" result="hardAlpha" type="matrix" values="0 0 0 0 0 0 0 0 0 0 0 0 0 0 0 0 0 0 127 0"/><feOffset dx="8" dy="8"/><feGaussianBlur stdDeviation="8"/><feColorMatrix type="matrix" values="0 0 0 0 0.772549 0 0 0 0 0.792157 0 0 0 0 0.819608 0 0 0 0.16 0"/><feBlend in2="BackgroundImageFix" mode="normal" result="effect1_dropShadow_1587_120565"/><feBlend in="SourceGraphic" in2="effect1_dropShadow_1587_120565" mode="normal" result="shape"/><feColorMatrix in="SourceAlpha" result="hardAlpha" type="matrix" values="0 0 0 0 0 0 0 0 0 0 0 0 0 0 0 0 0 0 127 0"/><feOffset dx="-2" dy="-2"/><feGaussianBlur stdDeviation="2"/><feComposite in2="hardAlpha" k2="-1" k3="1" operator="arithmetic"/><feColorMatrix type="matrix" values="0 0 0 0 0.772549 0 0 0 0 0.792157 0 0 0 0 0.819608 0 0 0 0.48 0"/><feBlend in2="shape" mode="normal" result="effect2_innerShadow_1587_120565"/></filter><filter id="b" color-interpolation-filters="sRGB" filterUnits="userSpaceOnUse" height="36" width="29.3335" x="12" y="81"><feFlood flood-opacity="0" result="BackgroundImageFix"/><feColorMatrix in="SourceAlpha" result="hardAlpha" type="matrix" values="0 0 0 0 0 0 0 0 0 0 0 0 0 0 0 0 0 0 127 0"/><feOffset dx="4" dy="4"/><feGaussianBlur stdDeviation="4"/><feColorMatrix type="matrix" values="0 0 0 0 0 0 0 0 0 0.470588 0 0 0 0 0.403922 0 0 0 0.16 0"/><feBlend in2="BackgroundImageFix" mode="normal" result="effect1_dropShadow_1587_120565"/><feBlend in="SourceGraphic" in2="effect1_dropShadow_1587_120565" mode="normal" result="shape"/><feColorMatrix in="SourceAlpha" result="hardAlpha" type="matrix" values="0 0 0 0 0 0 0 0 0 0 0 0 0 0 0 0 0 0 127 0"/><feOffset dx="-1" dy="-1"/><feGaussianBlur stdDeviation="1"/><feComposite in2="hardAlpha" k2="-1" k3="1" operator="arithmetic"/><feColorMatrix type="matrix" values="0 0 0 0 0 0 0 0 0 0.470588 0 0 0 0 0.403922 0 0 0 0.48 0"/><feBlend in2="shape" mode="normal" result="effect2_innerShadow_1587_120565"/></filter><filter id="c" color-interpolation-filters="sRGB" filterUnits="userSpaceOnUse" height="36" width="29.3335" x="166.667" y="81"><feFlood flood-opacity="0" result="BackgroundImageFix"/><feColorMatrix in="SourceAlpha" result="hardAlpha" type="matrix" values="0 0 0 0 0 0 0 0 0 0 0 0 0 0 0 0 0 0 127 0"/><feOffset dx="4" dy="4"/><feGaussianBlur stdDeviation="4"/><feColorMatrix type="matrix" values="0 0 0 0 0 0 0 0 0 0.470588 0 0 0 0 0.403922 0 0 0 0.16 0"/><feBlend in2="BackgroundImageFix" mode="normal" result="effect1_dropShadow_1587_120565"/><feBlend in="SourceGraphic" in2="effect1_dropShadow_1587_120565" mode="normal" result="shape"/><feColorMatrix in="SourceAlpha" result="hardAlpha" type="matrix" values="0 0 0 0 0 0 0 0 0 0 0 0 0 0 0 0 0 0 127 0"/><feOffset dx="-1" dy="-1"/><feGaussianBlur stdDeviation="1"/><feComposite in2="hardAlpha" k2="-1" k3="1" operator="arithmetic"/><feColorMatrix type="matrix" values="0 0 0 0 0 0 0 0 0 0.470588 0 0 0 0 0.403922 0 0 0 0.48 0"/><feBlend in2="shape" mode="normal" result="effect2_innerShadow_1587_120565"/></filter><filter id="d" color-interpolation-filters="sRGB" filterUnits="userSpaceOnUse" height="31" width="31" x="88.5" y="143"><feFlood flood-opacity="0" result="BackgroundImageFix"/><feColorMatrix in="SourceAlpha" result="hardAlpha" type="matrix" values="0 0 0 0 0 0 0 0 0 0 0 0 0 0 0 0 0 0 127 0"/><feOffset dx="4" dy="4"/><feGaussianBlur stdDeviation="4"/><feColorMatrix type="matrix" values="0 0 0 0 0 0 0 0 0 0.470588 0 0 0 0 0.403922 0 0 0 0.16 0"/><feBlend in2="BackgroundImageFix" mode="normal" result="effect1_dropShadow_1587_120565"/><feBlend in="SourceGraphic" in2="effect1_dropShadow_1587_120565" mode="normal" result="shape"/><feColorMatrix in="SourceAlpha" result="hardAlpha" type="matrix" values="0 0 0 0 0 0 0 0 0 0 0 0 0 0 0 0 0 0 127 0"/><feOffset dx="-1" dy="-1"/><feGaussianBlur stdDeviation="1"/><feComposite in2="hardAlpha" k2="-1" k3="1" operator="arithmetic"/><feColorMatrix type="matrix" values="0 0 0 0 0 0 0 0 0 0.470588 0 0 0 0 0.403922 0 0 0 0.48 0"/><feBlend in2="shape" mode="normal" result="effect2_innerShadow_1587_120565"/></filter><filter id="e" color-interpolation-filters="sRGB" filterUnits="userSpaceOnUse" height="38.7759" width="38.1934" x="75.7183" y="86.833"><feFlood flood-opacity="0" result="BackgroundImageFix"/><feColorMatrix in="SourceAlpha" result="hardAlpha" type="matrix" values="0 0 0 0 0 0 0 0 0 0 0 0 0 0 0 0 0 0 127 0"/><feOffset dx="4" dy="4"/><feGaussianBlur stdDeviation="4"/><feColorMatrix type="matrix" values="0 0 0 0 0.717647 0 0 0 0 0.431373 0 0 0 0 0 0 0 0 0.16 0"/><feBlend in2="BackgroundImageFix" mode="normal" result="effect1_dropShadow_1587_120565"/><feBlend in="SourceGraphic" in2="effect1_dropShadow_1587_120565" mode="normal" result="shape"/><feColorMatrix in="SourceAlpha" result="hardAlpha" type="matrix" values="0 0 0 0 0 0 0 0 0 0 0 0 0 0 0 0 0 0 127 0"/><feOffset dx="-1" dy="-1"/><feGaussianBlur stdDeviation="1"/><feComposite in2="hardAlpha" k2="-1" k3="1" operator="arithmetic"/><feColorMatrix type="matrix" values="0 0 0 0 0.717647 0 0 0 0 0.431373 0 0 0 0 0 0 0 0 0.48 0"/><feBlend in2="shape" mode="normal" result="effect2_innerShadow_1587_120565"/></filter><g filter="url(#a)"><rect fill="#fff" height="80" rx="12" width="126.667" x="36.667" y="55"/></g><path d="m44.621 134.791c-4.5416-.945-7.954-4.969-7.954-9.791v-2.598l26.2128-26.17c3.8723-3.8647 10.2488-3.8647 14.1211 0l38.8331 38.768h-67.2462c-.5692 0-3.1708-.114-3.6838-.172-.095-.011-.1894-.024-.283-.037z" fill="#007867" opacity=".4"/><path d="m153.334 135h-37.5l-25.0698-25.028 32.1648-32.1463c3.77-3.7676 9.977-3.7676 13.747 0l26.658 26.6423v20.532c0 5.523-4.477 10-10 10z" fill="#007867" opacity=".24"/><g filter="url(#b)"><path d="m26.8074 85c-.6119 0-1.2029.2273-1.6634.6396l-8.2814 7.4151c-1.0498.94-1.1562 2.5731-.2376 3.6474.0739.0864.1532.1676.2376.2432l8.2814 7.4147c1.0499.94 2.6457.832 3.5644-.243.4029-.471.6249-1.076.6249-1.702v-14.8302c0-1.4275-1.1309-2.5848-2.5259-2.5848z" fill="#00a76f"/></g><g filter="url(#c)" opacity=".48"><path d="m173.192 85c-1.395 0-2.525 1.1573-2.525 2.5848v14.8302c0 .626.222 1.231.624 1.702.919 1.075 2.515 1.183 3.565.243l8.281-7.4147c.085-.0756.164-.1568.238-.2432.918-1.0743.812-2.7074-.238-3.6474l-8.281-7.4151c-.461-.4123-1.052-.6396-1.664-.6396z" fill="#00a76f"/></g><path d="m78 149c3.0376 0 5.5 2.462 5.5 5.5s-2.4624 5.5-5.5 5.5-5.5-2.462-5.5-5.5 2.4624-5.5 5.5-5.5z" fill="#007867" opacity=".08"/><g filter="url(#d)"><path d="m100 147c4.142 0 7.5 3.358 7.5 7.5s-3.358 7.5-7.5 7.5c-4.1421 0-7.5-3.358-7.5-7.5s3.3579-7.5 7.5-7.5z" fill="#00a76f"/></g><path d="m122 149c3.038 0 5.5 2.462 5.5 5.5s-2.462 5.5-5.5 5.5-5.5-2.462-5.5-5.5 2.462-5.5 5.5-5.5z" fill="#007867" opacity=".24"/><g filter="url(#e)"><path clip-rule="evenodd" d="m101.912 98.8308c-1.538-4.6458-5.9169-7.9977-11.0784-7.9977-5.2037 0-9.6116 3.4068-11.1152 8.1117l14.6887 14.6642h.0002l-3.6431-3.637z" fill="#ffab00" fill-rule="evenodd"/></g></svg>