<svg fill="none" height="200" viewBox="0 0 200 200" width="200" xmlns="http://www.w3.org/2000/svg" xmlns:xlink="http://www.w3.org/1999/xlink"><filter id="a" color-interpolation-filters="sRGB" filterUnits="userSpaceOnUse" height="151.531" width="157" x="30" y="40"><feFlood flood-opacity="0" result="BackgroundImageFix"/><feColorMatrix in="SourceAlpha" result="hardAlpha" type="matrix" values="0 0 0 0 0 0 0 0 0 0 0 0 0 0 0 0 0 0 127 0"/><feOffset dx="8" dy="8"/><feGaussianBlur stdDeviation="8"/><feColorMatrix type="matrix" values="0 0 0 0 0.772549 0 0 0 0 0.792157 0 0 0 0 0.819608 0 0 0 0.16 0"/><feBlend in2="BackgroundImageFix" mode="normal" result="effect1_dropShadow_1587_120559"/><feBlend in="SourceGraphic" in2="effect1_dropShadow_1587_120559" mode="normal" result="shape"/><feColorMatrix in="SourceAlpha" result="hardAlpha" type="matrix" values="0 0 0 0 0 0 0 0 0 0 0 0 0 0 0 0 0 0 127 0"/><feOffset dx="-2" dy="-2"/><feGaussianBlur stdDeviation="2"/><feComposite in2="hardAlpha" k2="-1" k3="1" operator="arithmetic"/><feColorMatrix type="matrix" values="0 0 0 0 0.772549 0 0 0 0 0.792157 0 0 0 0 0.819608 0 0 0 0.48 0"/><feBlend in2="shape" mode="normal" result="effect2_innerShadow_1587_120559"/></filter><filter id="b" color-interpolation-filters="sRGB" filterUnits="userSpaceOnUse" height="46.3264" width="45.2095" x="110.121" y="104.333"><feFlood flood-opacity="0" result="BackgroundImageFix"/><feColorMatrix in="SourceAlpha" result="hardAlpha" type="matrix" values="0 0 0 0 0 0 0 0 0 0 0 0 0 0 0 0 0 0 127 0"/><feOffset dx="4" dy="4"/><feGaussianBlur stdDeviation="4"/><feColorMatrix type="matrix" values="0 0 0 0 0 0 0 0 0 0.470588 0 0 0 0 0.403922 0 0 0 0.16 0"/><feBlend in2="BackgroundImageFix" mode="normal" result="effect1_dropShadow_1587_120559"/><feBlend in="SourceGraphic" in2="effect1_dropShadow_1587_120559" mode="normal" result="shape"/><feColorMatrix in="SourceAlpha" result="hardAlpha" type="matrix" values="0 0 0 0 0 0 0 0 0 0 0 0 0 0 0 0 0 0 127 0"/><feOffset dx="-1" dy="-1"/><feGaussianBlur stdDeviation="1"/><feComposite in2="hardAlpha" k2="-1" k3="1" operator="arithmetic"/><feColorMatrix type="matrix" values="0 0 0 0 0 0 0 0 0 0.470588 0 0 0 0 0.403922 0 0 0 0.48 0"/><feBlend in2="shape" mode="normal" result="effect2_innerShadow_1587_120559"/></filter><filter id="c" color-interpolation-filters="sRGB" filterUnits="userSpaceOnUse" height="49.9548" width="50.9517" x="50.1289" y="59.8291"><feFlood flood-opacity="0" result="BackgroundImageFix"/><feColorMatrix in="SourceAlpha" result="hardAlpha" type="matrix" values="0 0 0 0 0 0 0 0 0 0 0 0 0 0 0 0 0 0 127 0"/><feOffset dx="4" dy="4"/><feGaussianBlur stdDeviation="4"/><feColorMatrix type="matrix" values="0 0 0 0 0.717647 0 0 0 0 0.431373 0 0 0 0 0 0 0 0 0.16 0"/><feBlend in2="BackgroundImageFix" mode="normal" result="effect1_dropShadow_1587_120559"/><feBlend in="SourceGraphic" in2="effect1_dropShadow_1587_120559" mode="normal" result="shape"/><feColorMatrix in="SourceAlpha" result="hardAlpha" type="matrix" values="0 0 0 0 0 0 0 0 0 0 0 0 0 0 0 0 0 0 127 0"/><feOffset dx="-1" dy="-1"/><feGaussianBlur stdDeviation="1"/><feComposite in2="hardAlpha" k2="-1" k3="1" operator="arithmetic"/><feColorMatrix type="matrix" values="0 0 0 0 0.717647 0 0 0 0 0.431373 0 0 0 0 0 0 0 0 0.48 0"/><feBlend in2="shape" mode="normal" result="effect2_innerShadow_1587_120559"/></filter><g fill="#fff" filter="url(#a)"><path d="m152.919 92.3223c5.565.0066 10.074 4.5127 10.081 10.0727v44.323c-.007 5.56-4.516 10.066-10.081 10.073h-2.016v8.729c-.002.742-.41 1.422-1.064 1.772-.653.35-1.447.314-2.065-.095l-15.621-10.406h-27.621c-5.5648-.007-10.0742-4.513-10.0808-10.073v-44.323c.0066-5.56 4.516-10.0661 10.0808-10.0727z"/><path d="m96.4677 48c5.5643.0067 10.0743 4.5127 10.0803 10.0732v30.2197h-2.016c-7.7899.01-14.1026 6.3181-14.1126 14.1021v10.074h-21.5726l-15.6149 10.405c-.6187.413-1.4144.451-2.0701.101-.6558-.351-1.0651-1.034-1.065-1.777v-8.729h-2.0162c-5.5646-.007-10.0739-4.513-10.0806-10.074v-44.3218c.0067-5.5605 4.516-10.0665 10.0806-10.0732z"/></g><g filter="url(#b)"><path d="m132.625 108.333 10.706 30.326h-6.903l-2.194-7.188h-11.016l-2.192 7.188h-6.905l10.667-30.326zm-3.887 4.69c-.457 1.764-1.76 6.123-3.909 13.077h7.879c-2.028-6.515-3.171-10.2-3.428-11.054-.256-.854-.437-1.529-.542-2.023z" fill="#00a76f"/></g><g filter="url(#c)"><path d="m74.3466 63.8291c-.1493.8018-.2216 1.6161-.2157 2.4317v2.3571h9.1835c1.6737.0203 3.347-.0645 5.0101-.2538v5.6249c-1.5928-.1534-3.1923-.2253-4.7924-.2156h-.8346c-.5589 2.4742-1.4401 4.8645-2.621 7.1097-1.1382 2.1599-2.54 4.1704-4.1734 5.9855 3.9683 2.6485 8.464 4.406 13.1774 5.1514-1.3836 1.7119-2.4625 3.6486-3.1895 5.7257-5.1302-1.4257-9.9371-3.8267-14.1573-7.0714-4.3563 3.272-9.2965 5.6849-14.5564 7.1096-.7074-1.9701-1.7375-3.809-3.0484-5.4415 4.8069-.9203 9.3841-2.782 13.4677-5.4778-1.7743-1.9242-3.3102-4.0549-4.5745-6.3462-1.1924-2.133-2.1309-4.3981-2.7964-6.749h-.7258c-1.742 0-3.375.0725-4.8266.2155v-5.6208c1.6502.1894 3.3108.2742 4.9717.2538h8.6391v-2.3209c.0057-.8275-.0665-1.6538-.2157-2.4679zm2.2884 9.9382-10.5283.0021c.5591 1.9273 1.377 3.77 2.4315 5.4778.8544 1.4683 1.8782 2.8314 3.0504 4.0615 1.1215-1.2176 2.0854-2.5713 2.8689-4.0293.9869-1.7234 1.7202-3.5798 2.1775-5.5121z" fill="#ffab00"/></g></svg>