<svg width="200" height="200" viewBox="0 0 200 200" fill="none" xmlns="http://www.w3.org/2000/svg">
<path opacity="0.24" d="M149.372 111H43.438V121H149.372C148.855 119.427 148.575 117.746 148.575 116C148.575 114.254 148.855 112.573 149.372 111Z" fill="#919EAB"/>
<g filter="url(#filter0_di_4130_41285)">
<circle cx="37" cy="116" r="15" fill="#00A76F"/>
</g>
<g filter="url(#filter1_di_4130_41285)">
<path fill-rule="evenodd" clip-rule="evenodd" d="M36.3543 121L43.8716 113.415C44.5314 112.749 44.5314 111.666 43.8714 111C43.5517 110.678 43.1269 110.5 42.6749 110.5C42.2229 110.5 41.798 110.678 41.4783 111L35.1576 117.378L32.523 114.719C32.2035 114.397 31.7785 114.219 31.3265 114.219C30.8744 114.219 30.4495 114.397 30.13 114.719C29.8103 115.042 29.6343 115.471 29.6343 115.927C29.6343 116.383 29.8103 116.812 30.13 117.134L33.9612 121C34.2809 121.322 34.7058 121.5 35.1578 121.5C35.6098 121.5 36.0346 121.322 36.3543 121Z" fill="white"/>
</g>
<g filter="url(#filter2_di_4130_41285)">
<circle cx="100" cy="116" r="20" fill="#FFAB00"/>
</g>
<g filter="url(#filter3_di_4130_41285)">
<path d="M95.9362 125C95.1987 125 94.6624 124.832 94.3272 124.497C94.0088 124.145 93.8496 123.634 93.8496 122.964C93.8496 122.494 93.9501 122.075 94.1512 121.707C94.3691 121.338 94.6457 120.978 94.9808 120.626L99.3803 116.025C100.034 115.321 100.495 114.718 100.763 114.215C101.048 113.712 101.19 113.209 101.19 112.707C101.19 112.07 100.981 111.592 100.562 111.274C100.143 110.955 99.5395 110.796 98.7518 110.796C98.3496 110.796 97.9222 110.855 97.4697 110.972C97.0172 111.073 96.5311 111.257 96.0116 111.525C95.5591 111.726 95.1484 111.785 94.7797 111.701C94.4278 111.617 94.1261 111.433 93.8747 111.148C93.6401 110.863 93.4892 110.536 93.4222 110.168C93.3719 109.799 93.4306 109.439 93.5982 109.087C93.7658 108.718 94.0674 108.416 94.5032 108.182C95.2741 107.763 96.0702 107.461 96.8915 107.277C97.7295 107.092 98.5674 107 99.4054 107C100.78 107 101.928 107.201 102.85 107.603C103.788 108.006 104.5 108.592 104.986 109.363C105.472 110.117 105.715 111.056 105.715 112.179C105.715 112.883 105.607 113.57 105.389 114.24C105.188 114.911 104.852 115.581 104.383 116.251C103.931 116.922 103.319 117.634 102.548 118.388L98.4753 122.411V121.254H104.685C105.305 121.254 105.774 121.413 106.093 121.732C106.428 122.05 106.595 122.511 106.595 123.115C106.595 123.718 106.428 124.187 106.093 124.522C105.774 124.841 105.305 125 104.685 125H95.9362Z" fill="white"/>
</g>
<circle opacity="0.48" cx="163" cy="116" r="15" fill="#919EAB"/>
<path d="M162.725 122.5C162.118 122.5 161.51 122.44 160.902 122.321C160.294 122.202 159.769 122.035 159.328 121.82C158.946 121.642 158.678 121.421 158.523 121.159C158.38 120.897 158.321 120.628 158.344 120.354C158.368 120.08 158.464 119.836 158.631 119.621C158.809 119.406 159.036 119.263 159.31 119.192C159.596 119.108 159.918 119.144 160.276 119.299C160.717 119.49 161.122 119.621 161.492 119.693C161.861 119.764 162.231 119.8 162.6 119.8C163.029 119.8 163.387 119.752 163.673 119.657C163.959 119.561 164.174 119.418 164.317 119.228C164.46 119.025 164.532 118.775 164.532 118.477C164.532 118.059 164.383 117.755 164.084 117.565C163.798 117.362 163.375 117.261 162.815 117.261H161.849C161.396 117.261 161.051 117.147 160.812 116.921C160.574 116.694 160.455 116.373 160.455 115.955C160.455 115.538 160.574 115.216 160.812 114.99C161.051 114.763 161.396 114.65 161.849 114.65H162.493C162.839 114.65 163.131 114.602 163.369 114.507C163.62 114.412 163.81 114.274 163.941 114.096C164.073 113.905 164.138 113.672 164.138 113.398C164.138 113.005 163.995 112.707 163.709 112.504C163.435 112.301 163.024 112.2 162.475 112.2C162.141 112.2 161.802 112.236 161.456 112.307C161.11 112.379 160.741 112.504 160.347 112.683C160.037 112.814 159.751 112.844 159.489 112.772C159.239 112.701 159.03 112.564 158.863 112.361C158.708 112.146 158.613 111.914 158.577 111.664C158.541 111.401 158.583 111.145 158.702 110.895C158.821 110.644 159.048 110.436 159.382 110.269C159.882 110.019 160.425 109.828 161.009 109.697C161.605 109.566 162.201 109.5 162.797 109.5C163.739 109.5 164.543 109.637 165.211 109.911C165.879 110.185 166.385 110.585 166.731 111.109C167.089 111.622 167.267 112.242 167.267 112.969C167.267 113.446 167.178 113.887 166.999 114.292C166.82 114.698 166.558 115.037 166.212 115.312C165.867 115.574 165.461 115.765 164.996 115.884V115.633C165.831 115.765 166.481 116.116 166.946 116.688C167.422 117.249 167.661 117.952 167.661 118.798C167.661 119.561 167.464 120.223 167.071 120.783C166.677 121.344 166.111 121.773 165.372 122.071C164.633 122.357 163.751 122.5 162.725 122.5Z" fill="#919EAB"/>
<defs>
<filter id="filter0_di_4130_41285" x="18" y="97" width="46" height="46" filterUnits="userSpaceOnUse" color-interpolation-filters="sRGB">
<feFlood flood-opacity="0" result="BackgroundImageFix"/>
<feColorMatrix in="SourceAlpha" type="matrix" values="0 0 0 0 0 0 0 0 0 0 0 0 0 0 0 0 0 0 127 0" result="hardAlpha"/>
<feOffset dx="4" dy="4"/>
<feGaussianBlur stdDeviation="4"/>
<feColorMatrix type="matrix" values="0 0 0 0 0 0 0 0 0 0.470588 0 0 0 0 0.403922 0 0 0 0.16 0"/>
<feBlend mode="normal" in2="BackgroundImageFix" result="effect1_dropShadow_4130_41285"/>
<feBlend mode="normal" in="SourceGraphic" in2="effect1_dropShadow_4130_41285" result="shape"/>
<feColorMatrix in="SourceAlpha" type="matrix" values="0 0 0 0 0 0 0 0 0 0 0 0 0 0 0 0 0 0 127 0" result="hardAlpha"/>
<feOffset dx="-1" dy="-1"/>
<feGaussianBlur stdDeviation="1"/>
<feComposite in2="hardAlpha" operator="arithmetic" k2="-1" k3="1"/>
<feColorMatrix type="matrix" values="0 0 0 0 0 0 0 0 0 0.470588 0 0 0 0 0.403922 0 0 0 0.48 0"/>
<feBlend mode="normal" in2="shape" result="effect2_innerShadow_4130_41285"/>
</filter>
<filter id="filter1_di_4130_41285" x="25.6343" y="106.5" width="30.7319" height="27" filterUnits="userSpaceOnUse" color-interpolation-filters="sRGB">
<feFlood flood-opacity="0" result="BackgroundImageFix"/>
<feColorMatrix in="SourceAlpha" type="matrix" values="0 0 0 0 0 0 0 0 0 0 0 0 0 0 0 0 0 0 127 0" result="hardAlpha"/>
<feOffset dx="4" dy="4"/>
<feGaussianBlur stdDeviation="4"/>
<feColorMatrix type="matrix" values="0 0 0 0 0.772549 0 0 0 0 0.792157 0 0 0 0 0.819608 0 0 0 0.16 0"/>
<feBlend mode="normal" in2="BackgroundImageFix" result="effect1_dropShadow_4130_41285"/>
<feBlend mode="normal" in="SourceGraphic" in2="effect1_dropShadow_4130_41285" result="shape"/>
<feColorMatrix in="SourceAlpha" type="matrix" values="0 0 0 0 0 0 0 0 0 0 0 0 0 0 0 0 0 0 127 0" result="hardAlpha"/>
<feOffset dx="-1" dy="-1"/>
<feGaussianBlur stdDeviation="1"/>
<feComposite in2="hardAlpha" operator="arithmetic" k2="-1" k3="1"/>
<feColorMatrix type="matrix" values="0 0 0 0 0.772549 0 0 0 0 0.792157 0 0 0 0 0.819608 0 0 0 0.48 0"/>
<feBlend mode="normal" in2="shape" result="effect2_innerShadow_4130_41285"/>
</filter>
<filter id="filter2_di_4130_41285" x="72" y="88" width="72" height="72" filterUnits="userSpaceOnUse" color-interpolation-filters="sRGB">
<feFlood flood-opacity="0" result="BackgroundImageFix"/>
<feColorMatrix in="SourceAlpha" type="matrix" values="0 0 0 0 0 0 0 0 0 0 0 0 0 0 0 0 0 0 127 0" result="hardAlpha"/>
<feOffset dx="8" dy="8"/>
<feGaussianBlur stdDeviation="8"/>
<feColorMatrix type="matrix" values="0 0 0 0 0.717647 0 0 0 0 0.431373 0 0 0 0 0 0 0 0 0.16 0"/>
<feBlend mode="normal" in2="BackgroundImageFix" result="effect1_dropShadow_4130_41285"/>
<feBlend mode="normal" in="SourceGraphic" in2="effect1_dropShadow_4130_41285" result="shape"/>
<feColorMatrix in="SourceAlpha" type="matrix" values="0 0 0 0 0 0 0 0 0 0 0 0 0 0 0 0 0 0 127 0" result="hardAlpha"/>
<feOffset dx="-2" dy="-2"/>
<feGaussianBlur stdDeviation="2"/>
<feComposite in2="hardAlpha" operator="arithmetic" k2="-1" k3="1"/>
<feColorMatrix type="matrix" values="0 0 0 0 0.717647 0 0 0 0 0.431373 0 0 0 0 0 0 0 0 0.48 0"/>
<feBlend mode="normal" in2="shape" result="effect2_innerShadow_4130_41285"/>
</filter>
<filter id="filter3_di_4130_41285" x="89.4048" y="103" width="29.1904" height="34" filterUnits="userSpaceOnUse" color-interpolation-filters="sRGB">
<feFlood flood-opacity="0" result="BackgroundImageFix"/>
<feColorMatrix in="SourceAlpha" type="matrix" values="0 0 0 0 0 0 0 0 0 0 0 0 0 0 0 0 0 0 127 0" result="hardAlpha"/>
<feOffset dx="4" dy="4"/>
<feGaussianBlur stdDeviation="4"/>
<feColorMatrix type="matrix" values="0 0 0 0 0.772549 0 0 0 0 0.792157 0 0 0 0 0.819608 0 0 0 0.16 0"/>
<feBlend mode="normal" in2="BackgroundImageFix" result="effect1_dropShadow_4130_41285"/>
<feBlend mode="normal" in="SourceGraphic" in2="effect1_dropShadow_4130_41285" result="shape"/>
<feColorMatrix in="SourceAlpha" type="matrix" values="0 0 0 0 0 0 0 0 0 0 0 0 0 0 0 0 0 0 127 0" result="hardAlpha"/>
<feOffset dx="-1" dy="-1"/>
<feGaussianBlur stdDeviation="1"/>
<feComposite in2="hardAlpha" operator="arithmetic" k2="-1" k3="1"/>
<feColorMatrix type="matrix" values="0 0 0 0 0.772549 0 0 0 0 0.792157 0 0 0 0 0.819608 0 0 0 0.48 0"/>
<feBlend mode="normal" in2="shape" result="effect2_innerShadow_4130_41285"/>
</filter>
</defs>
</svg>
