<svg fill="none" height="200" viewBox="0 0 200 200" width="200" xmlns="http://www.w3.org/2000/svg" xmlns:xlink="http://www.w3.org/1999/xlink"><filter id="a" color-interpolation-filters="sRGB" filterUnits="userSpaceOnUse" height="30.2007" width="50.8477" x="49.8921" y="143.396"><feFlood flood-opacity="0" result="BackgroundImageFix"/><feColorMatrix in="SourceAlpha" result="hardAlpha" type="matrix" values="0 0 0 0 0 0 0 0 0 0 0 0 0 0 0 0 0 0 127 0"/><feOffset dx="4" dy="4"/><feGaussianBlur stdDeviation="4"/><feColorMatrix type="matrix" values="0 0 0 0 0.772549 0 0 0 0 0.792157 0 0 0 0 0.819608 0 0 0 0.16 0"/><feBlend in2="BackgroundImageFix" mode="normal" result="effect1_dropShadow_3103_43411"/><feBlend in="SourceGraphic" in2="effect1_dropShadow_3103_43411" mode="normal" result="shape"/><feColorMatrix in="SourceAlpha" result="hardAlpha" type="matrix" values="0 0 0 0 0 0 0 0 0 0 0 0 0 0 0 0 0 0 127 0"/><feOffset dx="-1" dy="-1"/><feGaussianBlur stdDeviation="1"/><feComposite in2="hardAlpha" k2="-1" k3="1" operator="arithmetic"/><feColorMatrix type="matrix" values="0 0 0 0 0.772549 0 0 0 0 0.792157 0 0 0 0 0.819608 0 0 0 0.48 0"/><feBlend in2="shape" mode="normal" result="effect2_innerShadow_3103_43411"/></filter><filter id="b" color-interpolation-filters="sRGB" filterUnits="userSpaceOnUse" height="98.1948" width="82.6304" x="38" y="80.0098"><feFlood flood-opacity="0" result="BackgroundImageFix"/><feColorMatrix in="SourceAlpha" result="hardAlpha" type="matrix" values="0 0 0 0 0 0 0 0 0 0 0 0 0 0 0 0 0 0 127 0"/><feOffset dx="8" dy="8"/><feGaussianBlur stdDeviation="8"/><feColorMatrix type="matrix" values="0 0 0 0 0 0 0 0 0 0.470588 0 0 0 0 0.403922 0 0 0 0.16 0"/><feBlend in2="BackgroundImageFix" mode="normal" result="effect1_dropShadow_3103_43411"/><feBlend in="SourceGraphic" in2="effect1_dropShadow_3103_43411" mode="normal" result="shape"/><feColorMatrix in="SourceAlpha" result="hardAlpha" type="matrix" values="0 0 0 0 0 0 0 0 0 0 0 0 0 0 0 0 0 0 127 0"/><feOffset dx="-2" dy="-2"/><feGaussianBlur stdDeviation="2"/><feComposite in2="hardAlpha" k2="-1" k3="1" operator="arithmetic"/><feColorMatrix type="matrix" values="0 0 0 0 0 0 0 0 0 0.470588 0 0 0 0 0.403922 0 0 0 0.48 0"/><feBlend in2="shape" mode="normal" result="effect2_innerShadow_3103_43411"/></filter><filter id="c" color-interpolation-filters="sRGB" filterUnits="userSpaceOnUse" height="26.9143" width="42.7827" x="115.647" y="96.6416"><feFlood flood-opacity="0" result="BackgroundImageFix"/><feColorMatrix in="SourceAlpha" result="hardAlpha" type="matrix" values="0 0 0 0 0 0 0 0 0 0 0 0 0 0 0 0 0 0 127 0"/><feOffset dx="4" dy="4"/><feGaussianBlur stdDeviation="4"/><feColorMatrix type="matrix" values="0 0 0 0 0.772549 0 0 0 0 0.792157 0 0 0 0 0.819608 0 0 0 0.16 0"/><feBlend in2="BackgroundImageFix" mode="normal" result="effect1_dropShadow_3103_43411"/><feBlend in="SourceGraphic" in2="effect1_dropShadow_3103_43411" mode="normal" result="shape"/><feColorMatrix in="SourceAlpha" result="hardAlpha" type="matrix" values="0 0 0 0 0 0 0 0 0 0 0 0 0 0 0 0 0 0 127 0"/><feOffset dx="-1" dy="-1"/><feGaussianBlur stdDeviation="1"/><feComposite in2="hardAlpha" k2="-1" k3="1" operator="arithmetic"/><feColorMatrix type="matrix" values="0 0 0 0 0.772549 0 0 0 0 0.792157 0 0 0 0 0.819608 0 0 0 0.48 0"/><feBlend in2="shape" mode="normal" result="effect2_innerShadow_3103_43411"/></filter><filter id="d" color-interpolation-filters="sRGB" filterUnits="userSpaceOnUse" height="82.8755" width="70.9126" x="105.583" y="47"><feFlood flood-opacity="0" result="BackgroundImageFix"/><feColorMatrix in="SourceAlpha" result="hardAlpha" type="matrix" values="0 0 0 0 0 0 0 0 0 0 0 0 0 0 0 0 0 0 127 0"/><feOffset dx="8" dy="8"/><feGaussianBlur stdDeviation="8"/><feColorMatrix type="matrix" values="0 0 0 0 0.717647 0 0 0 0 0.431373 0 0 0 0 0 0 0 0 0.16 0"/><feBlend in2="BackgroundImageFix" mode="normal" result="effect1_dropShadow_3103_43411"/><feBlend in="SourceGraphic" in2="effect1_dropShadow_3103_43411" mode="normal" result="shape"/><feColorMatrix in="SourceAlpha" result="hardAlpha" type="matrix" values="0 0 0 0 0 0 0 0 0 0 0 0 0 0 0 0 0 0 127 0"/><feOffset dx="-2" dy="-2"/><feGaussianBlur stdDeviation="2"/><feComposite in2="hardAlpha" k2="-1" k3="1" operator="arithmetic"/><feColorMatrix type="matrix" values="0 0 0 0 0.717647 0 0 0 0 0.431373 0 0 0 0 0 0 0 0 0.48 0"/><feBlend in2="shape" mode="normal" result="effect2_innerShadow_3103_43411"/></filter><g filter="url(#a)"><path d="m71.3158 161.597c9.6229 0 17.4237-3.179 17.4237-7.101 0-3.921-7.8008-7.1-17.4237-7.1-9.6228 0-17.4237 3.179-17.4237 7.1 0 3.922 7.8009 7.101 17.4237 7.101z" fill="#fff"/></g><g filter="url(#b)"><path d="m71.3151 88.0098c-13.981 0-25.3151 11.3338-25.3151 25.3152 0 21.29 25.3151 40.88 25.3151 40.88s25.315-19.59 25.315-40.88c0-13.9814-11.3338-25.3152-25.315-25.3152zm0 35.4122c-5.5762 0-10.0967-4.521-10.0967-10.097s4.5205-10.097 10.0967-10.097 10.0969 4.52 10.0969 10.097c0 5.576-4.5205 10.097-10.0969 10.097z" fill="#00a76f"/></g><g filter="url(#c)"><path d="m133.038 111.556c7.396 0 13.392-2.443 13.392-5.457s-5.996-5.457-13.392-5.457c-7.395 0-13.391 2.443-13.391 5.457s5.996 5.457 13.391 5.457z" fill="#fff"/></g><g filter="url(#d)"><path d="m133.039 55c-10.745 0-19.456 8.7109-19.456 19.4564 0 16.3633 19.456 31.4196 19.456 31.4196s19.457-15.0563 19.457-31.4196c0-10.7455-8.711-19.4564-19.457-19.4564zm0 27.2165c-4.286 0-7.76-3.4742-7.76-7.7601 0-4.2858 3.474-7.7601 7.76-7.7601s7.76 3.4743 7.76 7.7601c0 4.2859-3.474 7.7601-7.76 7.7601z" fill="#ffab00"/></g><path d="m112.151 107.709c.889 0 1.61-.72 1.61-1.61s-.721-1.61-1.61-1.61h-.735c-.536 0-1.074.035-1.6.105-.42.06-.799.284-1.056.622-.256.338-.368.764-.312 1.185.056.42.276.802.611 1.061.336.26.761.377 1.182.325.389-.052.782-.077 1.175-.077h.735zm-5.324 45.094h-.007l-2.127.01c-.427 0-.837.171-1.138.474-.301.302-.47.712-.469 1.139.001.428.171.837.474 1.138s.713.47 1.14.469h.007l2.127-.009c.427-.002.836-.174 1.137-.477.3-.304.468-.714.466-1.141-.002-.426-.172-.834-.474-1.134s-.71-.469-1.136-.469zm7.235-24.235c.211 0 .421-.042.616-.123.195-.08.373-.199.522-.349.15-.149.269-.327.35-.522.08-.196.122-.405.122-.616 0-.212-.042-.421-.122-.617-.081-.195-.2-.373-.35-.522-.149-.15-.327-.268-.522-.349s-.405-.123-.616-.123h-2.127c-.212 0-.421.042-.616.123-.196.081-.373.199-.523.349-.149.149-.268.327-.349.522-.081.196-.123.405-.122.617-.001.211.041.42.122.616.081.195.2.373.349.522.15.15.327.269.523.349.195.081.404.123.616.123zm-12.063-16.809c.273.197.601.303.938.303.256 0 .508-.061.736-.177.228-.117.424-.286.573-.494.351-.488.75-.939 1.191-1.346.31-.291.493-.692.509-1.117.015-.425-.138-.838-.426-1.151-.288-.312-.688-.498-1.113-.517-.424-.018-.839.132-1.154.417-.601.555-1.145 1.17-1.623 1.835-.249.347-.35.778-.281 1.2.069.421.303.798.65 1.047zm13.336 41.005h-.008l-2.126.009c-.212.001-.421.043-.616.124-.196.082-.373.201-.522.351s-.268.327-.348.523c-.081.195-.122.405-.121.616 0 .212.042.421.124.616.081.196.2.373.35.522s.328.267.523.348c.196.08.405.122.617.121h.007l2.127-.009c.422-.008.825-.182 1.121-.484.295-.302.461-.708.46-1.13-.001-.423-.168-.828-.465-1.129-.297-.3-.701-.472-1.123-.478zm-17.0157.077h-.0075l-2.1268.01c-.4226.008-.8252.181-1.1209.483-.2958.302-.461.708-.4601 1.131.0009.422.168.828.465 1.128.2971.301.7005.473 1.1231.479h.0075l2.1268-.01c.4271-.002.8358-.174 1.1365-.477.3006-.303.4684-.714.4666-1.141-.0018-.426-.1723-.833-.4741-1.134-.3017-.3-.7102-.469-1.1361-.469zm7.5387-25.875c.349 0 .689-.113.968-.322.279-.21.483-.505.58-.84.097-.336.083-.694-.041-1.02-.124-.327-.351-.604-.647-.791-.507-.32-.981-.691-1.414-1.107-.152-.147-.332-.262-.529-.339s-.407-.115-.618-.11c-.212.004-.42.049-.614.134s-.369.207-.515.359c-.147.153-.262.332-.339.529s-.115.407-.111.619c.004.211.05.42.135.613.084.194.206.369.359.516.59.567 1.236 1.073 1.928 1.51.257.163.554.249.858.249zm-3.098-8.74c-.109-.559-.164-1.128-.163-1.698v-.089c.003-.211-.037-.421-.115-.618-.079-.196-.195-.375-.343-.526s-.324-.272-.519-.355c-.194-.083-.403-.127-.614-.13h-.02c-.423 0-.83.167-1.1314.465s-.4732.703-.4781 1.127l-.0006.127c0 .777.0748 1.556.2224 2.313.0405.208.1214.405.2382.582.1169.176.2675.327.4425.446.176.118.372.2.58.242.207.042.42.043.628.003.208-.041.405-.122.582-.239.176-.116.327-.267.446-.442.118-.176.2-.373.242-.58s.043-.421.003-.628zm19.809 10.342c.212 0 .421-.042.617-.123.195-.08.373-.199.522-.349.15-.149.268-.327.349-.522.081-.196.123-.405.123-.616 0-.212-.042-.421-.123-.617-.081-.195-.199-.373-.349-.522-.149-.15-.327-.268-.522-.349-.196-.081-.405-.123-.617-.123h-2.126c-.212 0-.421.042-.617.123-.195.081-.373.199-.522.349-.15.149-.268.327-.349.522-.081.196-.123.405-.123.617 0 .211.042.42.123.616.081.195.199.373.349.522.149.15.327.269.522.349.196.081.405.123.617.123zm24.856 2.932c.335 0 .661-.104.934-.298.272-.194.478-.468.588-.784s.118-.658.025-.979c-.094-.322-.285-.606-.548-.813-.622-.491-1.281-.933-1.972-1.322-.184-.104-.387-.17-.597-.196-.21-.025-.422-.009-.626.048s-.394.154-.561.284c-.166.131-.305.293-.409.477s-.17.387-.196.597c-.025.21-.009.423.048.626.057.204.154.395.284.561.131.166.293.305.477.409.545.307 1.065.656 1.556 1.044.284.225.635.347.997.346zm-6.794 21.043c-.528.073-1.068.111-1.606.113l-.302.002c-.42.011-.82.185-1.113.487-.294.302-.458.706-.457 1.127s.167.824.462 1.125c.295.3.695.473 1.116.482h.008l.301-.002c.679-.003 1.358-.051 2.032-.144.423-.058.805-.282 1.063-.623.258-.34.37-.769.311-1.192-.122-.881-.936-1.498-1.815-1.375zm6.646-3.209c-.454.432-.94.828-1.454 1.185-.351.243-.591.616-.667 1.036s.018.854.261 1.205c.148.214.346.389.577.51.231.12.487.183.748.183.327 0 .647-.1.916-.287.651-.452 1.266-.953 1.84-1.5.153-.146.276-.32.362-.514.085-.193.132-.401.137-.613.005-.211-.031-.422-.108-.619-.076-.197-.19-.377-.336-.53-.146-.154-.32-.277-.514-.362-.193-.086-.401-.133-.613-.138-.211-.005-.421.031-.619.108-.197.076-.377.19-.53.336zm5.41-7.766c-.419-.079-.853.012-1.206.253-.352.241-.595.612-.674 1.032-.116.614-.279 1.218-.489 1.807-.071.2-.102.411-.092.622.011.211.063.418.154.609.183.386.512.684.914.827s.845.121 1.231-.062c.191-.09.362-.218.504-.375s.252-.34.323-.539c.266-.747.473-1.514.62-2.293.079-.42-.012-.854-.253-1.206-.241-.353-.612-.596-1.032-.675zm-2.017-8.182c-.387.181-.686.508-.832.909-.146.402-.127.845.054 1.232.264.566.484 1.153.656 1.753.097.336.3.632.579.842.279.211.619.325.968.325.25 0 .496-.058.719-.169s.418-.273.568-.472c.15-.2.252-.431.297-.676.046-.246.034-.498-.035-.738-.22-.763-.498-1.508-.834-2.227-.18-.387-.507-.687-.909-.833-.401-.146-.844-.126-1.231.054zm-19.593-4.818c.212 0 .421-.042.617-.123.195-.08.372-.199.522-.349.15-.149.268-.327.349-.522.081-.196.123-.405.123-.616 0-.212-.042-.421-.123-.617-.081-.195-.199-.373-.349-.522-.15-.15-.327-.268-.522-.349-.196-.081-.405-.123-.617-.123h-2.127c-.211 0-.42.042-.616.123-.195.081-.373.199-.522.349-.15.149-.268.327-.349.522-.081.196-.123.405-.123.617 0 .211.042.42.123.616.081.195.199.373.349.522.149.15.327.269.522.349.196.081.405.123.616.123zm-7.235 24.157h-.007l-2.127.01c-.427.001-.836.171-1.138.474-.301.303-.47.713-.469 1.14s.172.836.474 1.137c.303.302.713.471 1.14.47h.008l2.127-.01c.427-.002.835-.174 1.136-.477s.468-.714.467-1.141c-.002-.426-.173-.833-.474-1.134-.302-.3-.711-.469-1.137-.469zm15.128-24.157c.182 0 .363.004.543.012.427.019.844-.132 1.159-.421.315-.288.502-.69.521-1.116.01-.212-.023-.423-.095-.621-.072-.199-.183-.382-.325-.538-.143-.156-.315-.282-.507-.371-.191-.09-.399-.141-.61-.15-.228-.01-.457-.015-.685-.015h-1.513c-.211 0-.421.041-.616.122s-.373.2-.523.349c-.149.15-.268.327-.349.523-.081.195-.122.405-.122.616s.041.421.122.616c.081.196.2.373.349.523.15.149.328.268.523.349s.405.122.616.122zm-6.62 24.119h-.007l-2.127.009c-.423.008-.825.182-1.121.484s-.461.708-.46 1.13c.001.423.168.828.465 1.129s.7.472 1.123.478h.007l2.127-.009c.423-.008.825-.182 1.121-.484.296-.301.461-.708.46-1.13-.001-.423-.168-.828-.465-1.129-.297-.3-.7-.472-1.123-.478z" fill="#007867" opacity=".24"/></svg>