<svg fill="none" height="200" viewBox="0 0 200 200" width="200" xmlns="http://www.w3.org/2000/svg"><g fill="#919eab"><path d="m102.728 57.2727c0-4.0166 3.256-7.2727 7.272-7.2727h32.728c4.016 0 7.272 3.2561 7.272 7.2727v32.7273c0 4.0166-3.256 7.2727-7.272 7.2727h-32.728c-4.016 0-7.272-3.2561-7.272-7.2727z"/><g opacity=".24"><path d="m50 57.2727c0-4.0166 3.2561-7.2727 7.2727-7.2727h32.7273c4.0166 0 7.2727 3.2561 7.2727 7.2727v32.7273c0 4.0166-3.2561 7.2727-7.2727 7.2727h-32.7273c-4.0166 0-7.2727-3.2561-7.2727-7.2727z"/><path d="m50 110c0-4.017 3.2561-7.273 7.2727-7.273h32.7273c4.0166 0 7.2727 3.256 7.2727 7.273v32.727c0 4.017-3.2561 7.273-7.2727 7.273h-32.7273c-4.0166 0-7.2727-3.256-7.2727-7.273z"/><path d="m102.727 110c0-4.017 3.256-7.273 7.273-7.273h32.727c4.017 0 7.273 3.256 7.273 7.273v32.727c0 4.017-3.256 7.273-7.273 7.273h-32.727c-4.017 0-7.273-3.256-7.273-7.273z"/></g></g></svg>