<svg fill="none" height="200" viewBox="0 0 200 200" width="200" xmlns="http://www.w3.org/2000/svg"><g fill="#919eab"><path d="m100 154c29.823 0 54-24.177 54-54 0-29.8234-24.177-54-54-54-29.8234 0-54 24.1766-54 54 0 29.823 24.1766 54 54 54z" opacity=".24"/><path d="m98.1026 116.525-7.9453 4.177c-1.6651.875-3.7247.235-4.6001-1.43-.3486-.663-.4689-1.423-.3423-2.161l1.5174-8.847c.2347-1.369-.219-2.765-1.2133-3.734l-6.4278-6.266c-1.3472-1.3131-1.3747-3.4697-.0616-4.8169.5229-.5364 1.2081-.8855 1.9494-.9933l8.8831-1.2907c1.3741-.1997 2.5619-1.0627 3.1764-2.3079l3.9726-8.0494c.8326-1.687 2.8751-2.3796 4.5619-1.547.672.3315 1.216.8752 1.547 1.547l3.973 8.0494c.614 1.2452 1.802 2.1082 3.176 2.3079l8.883 1.2907c1.862.2706 3.152 1.9991 2.882 3.8608-.108.7413-.457 1.4265-.994 1.9494l-6.428 6.266c-.994.969-1.448 2.365-1.213 3.734l1.518 8.847c.318 1.854-.928 3.615-2.782 3.933-.738.127-1.498.006-2.161-.342l-7.945-4.177c-1.229-.646-2.6974-.646-3.9264 0z"/></g></svg>