<svg fill="none" height="200" viewBox="0 0 200 200" width="200" xmlns="http://www.w3.org/2000/svg"><g fill="#919eab"><path d="m67 70c0-4.4183 3.5817-8 8-8h52c4.418 0 8 3.5817 8 8s-3.582 8-8 8h-52c-4.4183 0-8-3.5817-8-8z"/><path d="m46 79c4.9706 0 9-4.0294 9-9s-4.0294-9-9-9-9 4.0294-9 9 4.0294 9 9 9z"/><g opacity=".48"><path d="m67 100c0-4.4183 3.5817-8 8-8h80c4.418 0 8 3.5817 8 8 0 4.418-3.582 8-8 8h-80c-4.4183 0-8-3.582-8-8z"/><path d="m46 109c4.9706 0 9-4.029 9-9 0-4.9706-4.0294-9-9-9s-9 4.0294-9 9c0 4.971 4.0294 9 9 9z"/></g><g opacity=".24"><path d="m67 130c0-4.418 3.5817-8 8-8h32c4.418 0 8 3.582 8 8s-3.582 8-8 8h-32c-4.4183 0-8-3.582-8-8z"/><path d="m46 139c4.9706 0 9-4.029 9-9s-4.0294-9-9-9-9 4.029-9 9 4.0294 9 9 9z"/></g></g></svg>