<svg fill="none" height="200" viewBox="0 0 200 200" width="200" xmlns="http://www.w3.org/2000/svg"><g fill="#919eab"><path d="m40 98.2105c0-5.2322 4.2415-9.4737 9.4737-9.4737h101.0523c5.232 0 9.474 4.2415 9.474 9.4737v37.8945c0 5.232-4.242 9.474-9.474 9.474h-101.0523c-5.2322 0-9.4737-4.242-9.4737-9.474z" opacity=".24"/><rect height="7.89474" opacity=".48" rx="3.94737" width="25.2632" x="52.6313" y="106.105"/><rect height="7.89474" opacity=".24" rx="3.94737" width="50.5263" x="52.6313" y="120.316"/><path d="m62.1055 60.3158c0-3.4881 2.8276-6.3158 6.3158-6.3158h63.1577c3.488 0 6.316 2.8277 6.316 6.3158v15.7895c0 3.4881-2.828 6.3158-6.316 6.3158h-63.1577c-3.4882 0-6.3158-2.8277-6.3158-6.3158z" opacity=".24"/><rect height="9.47368" rx="4.73684" width="37.8947" x="81.0527" y="63.4736"/></g></svg>