<svg fill="none" height="200" viewBox="0 0 200 200" width="200" xmlns="http://www.w3.org/2000/svg"><g fill="#919eab"><path d="m43.2432 113.243c7.3141 0 13.2433-5.929 13.2433-13.243s-5.9292-13.2432-13.2433-13.2432c-7.314 0-13.2432 5.9292-13.2432 13.2432s5.9292 13.243 13.2432 13.243z" opacity=".24"/><path d="m40.812 105c-.3455 0-.6116-.089-.7984-.266-.1774-.187-.2661-.448-.2661-.784 0-.337.0887-.593.2661-.771.1868-.177.4529-.266.7984-.266h1.2605v-5.7281h1.1764l-2.0308 1.2465c-.2427.1494-.4715.2101-.6863.182-.2147-.0373-.3968-.1307-.5462-.2801s-.2474-.3314-.2941-.5462c-.0467-.2147-.028-.4295.056-.6442.0841-.2148.2521-.3969.5042-.5463l1.9328-1.2044c.2054-.1308.4155-.2288.6303-.2942.2241-.0653.4575-.098.7002-.098.3549 0 .6303.0934.8264.2801.1961.1774.2941.4389.2941.7843v6.8486h1.1204c.3455 0 .6069.089.7844.266.1867.178.2801.434.2801.771 0 .336-.0934.597-.2801.784-.1775.177-.4389.266-.7844.266z"/><path d="m118.919 113.243c7.314 0 13.243-5.929 13.243-13.243s-5.929-13.2432-13.243-13.2432-13.243 5.9292-13.243 13.2432 5.929 13.243 13.243 13.243z" opacity=".24"/><path d="m118.708 105c-.468 0-.935-.046-1.403-.138-.468-.091-.871-.22-1.211-.385-.293-.137-.499-.307-.619-.509-.11-.201-.155-.408-.137-.619s.092-.399.22-.564c.138-.165.312-.275.523-.33.22-.064.467-.036.742.083.34.147.652.247.936.302s.568.083.853.083c.33 0 .605-.037.825-.11s.385-.183.495-.33c.11-.156.165-.349.165-.578 0-.321-.114-.555-.344-.701-.22-.156-.545-.234-.976-.234h-.743c-.349 0-.614-.087-.798-.262-.183-.174-.275-.421-.275-.7424 0-.3209.092-.5685.275-.7428.184-.1742.449-.2613.798-.2613h.495c.266 0 .491-.0367.674-.1101.193-.0733.339-.1788.44-.3163.101-.1467.152-.3256.152-.5365 0-.3026-.11-.5318-.331-.6877-.21-.1559-.527-.2339-.949-.2339-.256 0-.518.0275-.784.0826-.266.055-.55.1513-.853.2888-.238.1009-.458.1238-.66.0688-.192-.055-.353-.1605-.481-.3164-.119-.165-.193-.3439-.22-.5364-.028-.2018.004-.3989.096-.5915s.266-.353.523-.4814c.385-.1926.802-.3393 1.251-.4402.459-.1009.917-.1513 1.376-.1513.724 0 1.343.1055 1.857.3164.513.2109.903.5181 1.169.9216.275.3943.413.8711.413 1.4305 0 .3668-.069.7061-.207 1.0179-.137.3118-.339.5731-.605.784-.266.2018-.578.3485-.935.4402v-.1926c.642.1009 1.142.371 1.499.812.367.431.55.972.55 1.623 0 .587-.151 1.096-.454 1.527-.302.43-.738.761-1.306.99-.569.22-1.247.33-2.036.33z"/><path d="m156.757 113.243c7.314 0 13.243-5.929 13.243-13.243s-5.929-13.2432-13.243-13.2432-13.243 5.9292-13.243 13.2432 5.929 13.243 13.243 13.243z" opacity=".24"/><path d="m158.099 105c-.388 0-.692-.106-.913-.318-.212-.212-.318-.526-.318-.941v-.498h-2.78c-.406 0-.724-.092-.955-.276-.221-.185-.332-.466-.332-.844 0-.221.042-.433.125-.636.083-.212.23-.466.442-.761l3.375-4.9238c.185-.2766.392-.4795.623-.6086.23-.1291.502-.1936.816-.1936.35 0 .627.106.83.3181.202.2029.304.5164.304.9405v5.0624h.332c.35 0 .613.083.788.249.185.166.277.401.277.705 0 .314-.092.553-.277.719-.175.166-.438.249-.788.249h-.332v.498c0 .406-.106.72-.318.941-.203.212-.503.318-.899.318zm-1.231-3.679v-3.2643h.387l-2.6 3.8593v-.595z"/><path clip-rule="evenodd" d="m94.3244 100c0 7.314-5.9292 13.243-13.2433 13.243-7.314 0-13.2432-5.929-13.2432-13.243s5.9292-13.2432 13.2432-13.2432c7.3141 0 13.2433 5.9292 13.2433 13.2432zm-17.0018 4.256c0 .409.0973.722.2919.937.2048.205.5326.307.9832.307h5.3464c.379 0 .6657-.097.8603-.292.2049-.205.3073-.492.3073-.86 0-.369-.1024-.651-.3073-.845-.1946-.195-.4813-.292-.8603-.292h-3.0792l1.7733-1.752c.4712-.46.845-.896 1.1215-1.305.2868-.4101.4917-.8197.6146-1.2294.1331-.4097.1997-.8296.1997-1.2598 0-.6862-.1485-1.2598-.4455-1.7207-.2971-.4711-.7324-.8296-1.3059-1.0754-.5633-.2458-1.2649-.3687-2.1048-.3687-.5121 0-1.0242.0563-1.5363.169-.5018.1127-.9883.297-1.4595.5531-.2663.1434-.4506.3277-.553.553-.1025.2151-.1383.4353-.1076.6607.041.2253.1332.425.2766.5991.1536.1741.3379.2868.553.338.2254.0512.4763.0154.7528-.1075.3175-.1639.6145-.2766.8911-.338.2765-.0717.5377-.1076.7835-.1076.4814 0 .8501.0973 1.1061.2919.2561.1946.3841.4865.3841.8757 0 .3073-.087.6146-.2611.9218-.1639.3073-.4456.676-.845 1.1058l-2.6886 2.812c-.2048.215-.3738.435-.507.66-.1229.226-.1843.482-.1843.769z" fill-rule="evenodd"/></g></svg>