<svg fill="none" height="200" viewBox="0 0 200 200" width="200" xmlns="http://www.w3.org/2000/svg"><g fill="#919eab"><path d="m73.3332 51.3333c0-1.8409-1.4924-3.3333-3.3334-3.3333-1.8409 0-3.3333 1.4924-3.3333 3.3333v10h6.6667z"/><path d="m133.333 51.3333c0-1.8409-1.492-3.3333-3.333-3.3333s-3.333 1.4924-3.333 3.3333v10h6.666z"/><path d="m40 74.6667c0-5.5228 4.4772-10 10-10h100c5.523 0 10 4.4772 10 10v66.6663c0 5.523-4.477 10-10 10h-100c-5.5228 0-10-4.477-10-10z" opacity=".24"/><g opacity=".24"><path d="m60 115.5c0-2.761 2.2386-5 5-5h13.3333c2.7615 0 5 2.239 5 5v6.667c0 2.761-2.2385 5-5 5h-13.3333c-2.7614 0-5-2.239-5-5z"/><path d="m88.3333 115.5c0-2.761 2.2386-5 5-5h13.3337c2.761 0 5 2.239 5 5v6.667c0 2.761-2.239 5-5 5h-13.3337c-2.7614 0-5-2.239-5-5z"/></g><g opacity=".48"><path d="m60 93.8333c0-2.7615 2.2386-5 5-5h13.3333c2.7615 0 5 2.2385 5 5v6.6667c0 2.761-2.2385 5-5 5h-13.3333c-2.7614 0-5-2.239-5-5z"/><path d="m88.3333 93.8333c0-2.7615 2.2386-5 5-5h13.3337c2.761 0 5 2.2385 5 5v6.6667c0 2.761-2.239 5-5 5h-13.3337c-2.7614 0-5-2.239-5-5z"/><path d="m116.667 93.8333c0-2.7615 2.238-5 5-5h13.333c2.761 0 5 2.2385 5 5v6.6667c0 2.761-2.239 5-5 5h-13.333c-2.762 0-5-2.239-5-5z"/></g><g opacity=".48"><path d="m73.3332 73.0001c0 1.8409-1.4924 3.3333-3.3334 3.3333-1.8409 0-3.3333-1.4924-3.3333-3.3333 0-1.841 1.4924-3.3334 3.3333-3.3334 1.841 0 3.3334 1.4924 3.3334 3.3334z"/><path d="m133.333 73.0001c0 1.8409-1.492 3.3333-3.333 3.3333s-3.333-1.4924-3.333-3.3333c0-1.841 1.492-3.3334 3.333-3.3334s3.333 1.4924 3.333 3.3334z"/></g></g></svg>