<svg fill="none" height="200" viewBox="0 0 200 200" width="200" xmlns="http://www.w3.org/2000/svg"><g fill="#919eab"><path d="m38.7214 109.046-5.1651 2.731c-.9418.498-2.1066.134-2.6017-.813-.1972-.378-.2652-.81-.1936-1.23l.9877-5.792c.0517-.304-.0485-.613-.2681-.828l-4.183-4.1016c-.7619-.747-.7775-1.9739-.0348-2.7403.2957-.3051.6832-.5037 1.1025-.565l5.7762-.8443c.3062-.0447.5706-.2375.7069-.5153l2.5842-5.2669c.4708-.9597 1.626-1.3537 2.5801-.8801.38.1886.6875.498.875.8801l2.5842 5.2669c.1363.2778.4007.4706.7069.5153l5.7762.8443c1.0529.1539 1.7824 1.1372 1.6294 2.1963-.0609.4218-.2583.8115-.5617 1.109l-4.183 4.1016c-.2196.215-.3198.524-.2681.828l.9877 5.792c.1799 1.055-.5245 2.057-1.5731 2.238-.4176.072-.8472.003-1.2222-.195l-5.1651-2.731c-.2745-.146-.603-.146-.8775 0z"/><path d="m69.1411 109.046-5.1651 2.731c-.9417.498-2.1066.134-2.6017-.813-.1971-.378-.2652-.81-.1936-1.23l.9877-5.792c.0517-.304-.0484-.613-.2681-.828l-4.1829-4.1016c-.7619-.747-.7775-1.9739-.0349-2.7403.2958-.3051.6833-.5037 1.1026-.565l5.7762-.8443c.3061-.0447.5705-.2375.7068-.5153l2.5842-5.2669c.4709-.9597 1.6261-1.3537 2.5802-.8801.3799.1886.6875.498.875.8801l2.5842 5.2669c.1362.2778.4007.4706.7068.5153l5.7762.8443c1.053.1539 1.7825 1.1372 1.6295 2.1963-.0609.4218-.2584.8115-.5618 1.109l-4.1829 4.1016c-.2197.215-.3199.524-.2682.828l.9877 5.792c.1799 1.055-.5244 2.057-1.5731 2.238-.4176.072-.8471.003-1.2221-.195l-5.1651-2.731c-.2745-.146-.6031-.146-.8776 0z"/><path d="m99.5609 109.046-5.1651 2.731c-.9418.498-2.1066.134-2.6017-.813-.1972-.378-.2652-.81-.1936-1.23l.9877-5.792c.0517-.304-.0485-.613-.2681-.828l-4.183-4.1016c-.7619-.747-.7775-1.9739-.0348-2.7403.2957-.3051.6832-.5037 1.1025-.565l5.7762-.8443c.3062-.0447.5706-.2375.7069-.5153l2.5842-5.2669c.4709-.9597 1.626-1.3537 2.5799-.8801.38.1886.688.498.875.8801l2.584 5.2669c.137.2778.401.4706.707.5153l5.776.8443c1.053.1539 1.783 1.1372 1.63 2.1963-.061.4218-.258.8115-.562 1.109l-4.183 4.1016c-.219.215-.32.524-.268.828l.988 5.792c.18 1.055-.525 2.057-1.573 2.238-.418.072-.847.003-1.222-.195l-5.166-2.731c-.274-.146-.6026-.146-.8771 0z"/><g opacity=".24"><path d="m129.981 109.046-5.165 2.731c-.942.498-2.107.134-2.602-.813-.197-.378-.265-.81-.194-1.23l.988-5.792c.052-.304-.049-.613-.268-.828l-4.183-4.1016c-.762-.747-.778-1.9739-.035-2.7403.296-.3051.683-.5037 1.103-.565l5.776-.8443c.306-.0447.57-.2375.707-.5153l2.584-5.2669c.471-.9597 1.626-1.3537 2.58-.8801.38.1886.687.498.875.8801l2.584 5.2669c.136.2778.401.4706.707.5153l5.776.8443c1.053.1539 1.783 1.1372 1.63 2.1963-.061.4218-.259.8115-.562 1.109l-4.183 4.1016c-.22.215-.32.524-.268.828l.988 5.792c.179 1.055-.525 2.057-1.574 2.238-.417.072-.847.003-1.222-.195l-5.165-2.731c-.274-.146-.603-.146-.877 0z"/><path d="m160.4 109.046-5.165 2.731c-.941.498-2.106.134-2.601-.813-.198-.378-.266-.81-.194-1.23l.988-5.792c.051-.304-.049-.613-.268-.828l-4.183-4.1016c-.762-.747-.778-1.9739-.035-2.7403.296-.3051.683-.5037 1.102-.565l5.777-.8443c.306-.0447.57-.2375.706-.5153l2.585-5.2669c.47-.9597 1.626-1.3537 2.58-.8801.38.1886.687.498.875.8801l2.584 5.2669c.136.2778.401.4706.707.5153l5.776.8443c1.053.1539 1.782 1.1372 1.629 2.1963-.06.4218-.258.8115-.561 1.109l-4.183 4.1016c-.22.215-.32.524-.268.828l.987 5.792c.18 1.055-.524 2.057-1.573 2.238-.417.072-.847.003-1.222-.195l-5.165-2.731c-.275-.146-.603-.146-.878 0z"/></g></g></svg>