<svg fill="none" height="200" viewBox="0 0 200 200" width="200" xmlns="http://www.w3.org/2000/svg"><g fill="#919eab"><path clip-rule="evenodd" d="m132 100c0 17.673-14.327 32-32 32-17.6731 0-32-14.327-32-32 0-17.6731 14.3269-32 32-32 17.673 0 32 14.3269 32 32zm-7.111 0c0 13.746-11.143 24.889-24.889 24.889-13.7458 0-24.8889-11.143-24.8889-24.889 0-13.7458 11.1431-24.8889 24.8889-24.8889 13.746 0 24.889 11.1431 24.889 24.8889z" fill-rule="evenodd" opacity=".24"/><path d="m99.9999 117.778c9.8181 0 17.7781-7.96 17.7781-17.7781 0-9.8183-7.96-17.7777-17.7781-17.7777-9.8183 0-17.7777 7.9594-17.7777 17.7777 0 9.8181 7.9594 17.7781 17.7777 17.7781z"/></g></svg>