<svg fill="none" height="200" viewBox="0 0 200 200" width="200" xmlns="http://www.w3.org/2000/svg"><g fill="#919eab"><path clip-rule="evenodd" d="m66.8421 100.026c0 10.174-8.2474 18.421-18.421 18.421-10.1737 0-18.4211-8.247-18.4211-18.421 0-10.1734 8.2474-18.4208 18.4211-18.4208 10.1736 0 18.421 8.2474 18.421 18.4208zm-12.8947 5.831c0 1.025-.598 1.538-1.794 1.538h-7.1554c-1.196 0-1.794-.513-1.794-1.538 0-.499.1444-.873.4331-1.123.2887-.249.7423-.374 1.3609-.374h1.6703v-7.5035l-1.6496.9769c-.2337.1386-.4743.2079-.7218.2079-.3849 0-.7148-.1698-.9898-.5093-.2749-.3395-.4124-.7171-.4124-1.1328 0-.5681.2406-.9977.7218-1.2887l3.2993-1.933c.6048-.3464 1.1753-.5196 1.7115-.5196.5498 0 .9932.1662 1.33.4988s.5052.7829.5052 1.3511v9.8522h1.6909c.6186 0 1.0722.125 1.3609.374.2887.25.4331.624.4331 1.123z" fill-rule="evenodd" opacity=".48"/><path clip-rule="evenodd" d="m170 100.026c0 12.717-10.309 23.027-23.026 23.027-12.718 0-23.027-10.31-23.027-23.027 0-12.7168 10.309-23.026 23.027-23.026 12.717 0 23.026 10.3092 23.026 23.026zm-15.204 10.496c-.448.371-1.131.557-2.047.557h-11.408c-.75 0-1.344-.222-1.782-.666-.437-.443-.656-1.006-.656-1.687 0-.888.354-1.692 1.063-2.415l6.625-6.842c1.376-1.4241 2.063-2.7347 2.063-3.9318 0-.7018-.203-1.2384-.609-1.61-.406-.3715-.985-.5572-1.735-.5572-.604 0-1.161.0877-1.672.2631-.51.1755-1.099.4283-1.766.7585l-.625.3096c-.083.0413-.245.129-.484.2632-.24.1342-.454.2322-.641.2941-.188.0619-.386.0929-.594.0929-.521 0-.958-.2322-1.313-.6966-.354-.4644-.531-1.0165-.531-1.6563 0-.4541.068-.8256.203-1.1146.136-.289.391-.5573.766-.805.979-.6604 2.078-1.1764 3.297-1.5479 1.219-.3716 2.423-.5573 3.61-.5573 1.542 0 2.896.2528 4.063.7585s2.068 1.2281 2.704 2.1672c.635.9391.953 2.0175.953 3.2353 0 1.259-.255 2.4097-.766 3.452-.51 1.0423-1.38 2.2033-2.609 3.4833l-4.439 4.489h6.283c.916 0 1.599.18 2.047.542.448.361.672.923.672 1.687 0 .784-.224 1.362-.672 1.734z" fill-rule="evenodd"/><path d="m65.9985 105.553h58.9475c-.44-1.771-.674-3.622-.674-5.527 0-1.9047.234-3.7556.674-5.526h-58.9475c.553 1.7446.8511 3.6009.8511 5.526 0 1.926-.2981 3.782-.8511 5.527z" opacity=".24"/><path clip-rule="evenodd" d="m53.9472 105.857c0 1.025-.598 1.538-1.794 1.538h-7.1554c-1.196 0-1.794-.513-1.794-1.538 0-.499.1444-.873.4331-1.123.2887-.249.7423-.374 1.3609-.374h1.6703v-7.5034l-1.6496.9769c-.2337.1386-.4743.2079-.7218.2079-.3849 0-.7148-.1698-.9898-.5093-.2749-.3395-.4124-.7171-.4124-1.1328 0-.5681.2406-.9977.7218-1.2887l3.2992-1.933c.6049-.3464 1.1754-.5196 1.7116-.5196.5498 0 .9932.1662 1.33.4988s.5052.7829.5052 1.3511v9.8521h1.6909c.6186 0 1.0722.125 1.3609.374.2887.25.4331.624.4331 1.123z" fill-rule="evenodd"/></g></svg>