<svg fill="none" height="200" viewBox="0 0 200 200" width="200" xmlns="http://www.w3.org/2000/svg"><g fill="#919eab"><rect height="25.7895" opacity=".24" rx="12.8947" width="140" x="30" y="87.5264"/><path clip-rule="evenodd" d="m126.711 100.421c0 10.174-8.248 18.421-18.421 18.421-10.174 0-18.4213-8.247-18.4213-18.421 0-10.1736 8.2473-18.421 18.4213-18.421 10.173 0 18.421 8.2474 18.421 18.421zm-24.892-4.551c0-1.8467-1.497-3.3437-3.3435-3.3437-1.8467 0-3.3437 1.497-3.3437 3.3437v9.102c0 1.847 1.497 3.344 3.3437 3.344 1.8465 0 3.3435-1.497 3.3435-3.344zm9.474 0c0-1.8467-1.497-3.3437-3.344-3.3437s-3.344 1.497-3.344 3.3437v9.102c0 1.847 1.497 3.344 3.344 3.344s3.344-1.497 3.344-3.344zm6.13-3.3437c1.846 0 3.343 1.497 3.343 3.3437v9.102c0 1.847-1.497 3.344-3.343 3.344-1.847 0-3.344-1.497-3.344-3.344v-9.102c0-1.8467 1.497-3.3437 3.344-3.3437z" fill-rule="evenodd"/><path d="m92.1797 93.0527h-49.2849c-4.0695 0-7.3684 3.299-7.3684 7.3683 0 4.07 3.2989 7.369 7.3684 7.369h49.2849c-1.4568-2.089-2.3112-4.629-2.3112-7.369 0-2.7395.8544-5.2796 2.3112-7.3683z" opacity=".48"/></g></svg>