<svg fill="none" height="200" viewBox="0 0 200 200" width="200" xmlns="http://www.w3.org/2000/svg"><g fill="#919eab"><path d="m40 67c0-5.5228 4.4772-10 10-10h100c5.523 0 10 4.4772 10 10v10h-120z" opacity=".48"/><path d="m40 77v56.667c0 5.523 4.4772 10 10 10h100c5.523 0 10-4.477 10-10v-56.667z" opacity=".24"/><rect height="16.6667" rx="6" width="30" x="50" y="91.1667"/><rect height="16.6667" opacity=".48" rx="6" width="30" x="85" y="91.1667"/><rect height="16.6667" opacity=".48" rx="6" width="30" x="120" y="91.1667"/><rect height="16.6667" opacity=".48" rx="6" width="30" x="50" y="112.833"/><rect height="16.6667" opacity=".24" rx="6" width="30" x="85" y="112.833"/><rect height="16.6667" opacity=".24" rx="6" width="30" x="120" y="112.833"/></g></svg>