<svg fill="none" height="200" viewBox="0 0 200 200" width="200" xmlns="http://www.w3.org/2000/svg"><g fill="#919eab"><path d="m52 50.5882c0-5.8477 4.7405-10.5882 10.5882-10.5882h74.1178c5.848 0 10.588 4.7405 10.588 10.5882v98.8238c0 5.847-4.74 10.588-10.588 10.588h-74.1178c-5.8477 0-10.5882-4.741-10.5882-10.588z" opacity=".24"/><g opacity=".24"><path d="m66.1177 113.235c0-2.437 1.9752-4.412 4.4117-4.412h58.2356c2.436 0 4.411 1.975 4.411 4.412s-1.975 4.412-4.411 4.412h-58.2356c-2.4365 0-4.4117-1.975-4.4117-4.412z"/><path d="m66.1177 129.117c0-2.436 1.9752-4.411 4.4117-4.411h58.2356c2.436 0 4.411 1.975 4.411 4.411 0 2.437-1.975 4.412-4.411 4.412h-58.2356c-2.4365 0-4.4117-1.975-4.4117-4.412z"/></g><g opacity=".48"><path d="m66.1177 65.588c0-2.4365 1.9752-4.4117 4.4117-4.4117h26.4706c2.4366 0 4.412 1.9752 4.412 4.4117 0 2.4366-1.9754 4.4118-4.412 4.4118h-26.4706c-2.4365 0-4.4117-1.9752-4.4117-4.4118z"/><path d="m66.1177 97.3527c0-2.4365 1.9752-4.4117 4.4117-4.4117h26.4706c2.4366 0 4.412 1.9752 4.412 4.4117 0 2.4366-1.9754 4.4123-4.412 4.4123h-26.4706c-2.4365 0-4.4117-1.9757-4.4117-4.4123z"/><path d="m66.1177 81.4704c0-2.4366 1.9752-4.4118 4.4117-4.4118h26.4706c2.4366 0 4.412 1.9752 4.412 4.4118 0 2.4365-1.9754 4.4118-4.412 4.4118h-26.4706c-2.4365 0-4.4117-1.9753-4.4117-4.4118z"/></g><path d="m130.08 81.6956c.508-.4753 1.314-.1188 1.314.5645 0 5.1994-4.24 9.3886-9.464 9.3886h-4v3.0899c0 .8021-.866 1.2775-1.553.8616l-10.061-6.1204c-.656-.3863-.656-1.337 0-1.7232l10.031-6.1204c.687-.4159 1.553.0891 1.553.8616v3.1196h3.791c2.657 0 5.225-1.0101 7.165-2.7928zm-9.105-13.1617c0-.8022.865-1.2776 1.552-.8617l10.031 6.1204c.657.3863.657 1.337 0 1.7232l-10.001 6.0907c-.687.4159-1.552-.0891-1.552-.8616v-3.0899h-3.822c-2.657 0-5.224 1.0101-7.165 2.7928l-1.224 1.129c-.477.4456-1.284.0891-1.284-.5645l.002-.1557c.083-5.127 4.29-9.2329 9.462-9.2329h4.001z"/></g></svg>