<svg fill="none" height="200" viewBox="0 0 200 200" width="200" xmlns="http://www.w3.org/2000/svg"><g fill="#919eab"><path clip-rule="evenodd" d="m118 47c0 9.9411-8.059 18-18 18-9.9411 0-18-8.0589-18-18s8.0589-18 18-18c9.941 0 18 8.0589 18 18zm-16.5-1.5h6c.828 0 1.5.6716 1.5 1.5s-.672 1.5-1.5 1.5h-6v6c0 .8284-.672 1.5-1.5 1.5-.8284 0-1.5-.6716-1.5-1.5v-6h-6c-.8284 0-1.5-.6716-1.5-1.5s.6716-1.5 1.5-1.5h6v-6c0-.8284.6716-1.5 1.5-1.5.828 0 1.5.6716 1.5 1.5z" fill-rule="evenodd"/><path d="m122.4 85.5892c14.138 0 25.6 10.1972 25.6 22.7758v39.859c0 12.579-11.462 22.776-25.6 22.776h-44.8c-14.1385 0-25.6-10.197-25.6-22.776v-39.859c0-12.5786 11.4615-22.7758 25.6-22.7758h6.4l14.001-9.9653c1.1427-.8134 2.756-.8314 3.919-.0543l.079.0543 14.001 9.9653z" opacity=".24"/><rect height="10" opacity=".48" rx="5" width="48" x="64" y="109"/><rect height="10" opacity=".24" rx="5" width="48" x="64" y="145"/><rect height="10" opacity=".24" rx="5" width="72" x="64" y="127"/></g></svg>