<svg fill="none" height="200" viewBox="0 0 200 200" width="200" xmlns="http://www.w3.org/2000/svg"><g fill="#919eab"><rect height="51.5789" opacity=".24" rx="25.7895" width="140" x="30" y="74"/><path clip-rule="evenodd" d="m107.368 77.6843c-4.069 0-7.368 3.299-7.368 7.3684v29.4733c0 4.07 3.299 7.369 7.368 7.369h36.843c12.208 0 22.105-9.897 22.105-22.1054s-9.897-22.1053-22.105-22.1053zm20.813 32.1707 4.476-2.367c.313-.166.688-.166 1.002 0l4.476 2.367c.333.176.714.237 1.085.173.932-.161 1.557-1.051 1.398-1.988l-.857-5.021c-.059-.347.056-.7.306-.946l3.627-3.5553c.269-.2642.444-.6104.499-.9849.135-.9407-.513-1.8141-1.448-1.9507l-5.006-.7317c-.349-.0511-.651-.2713-.807-.5884l-2.24-4.5653c-.166-.3394-.44-.6141-.777-.7816-.847-.4207-1.873-.0707-2.292.7816l-2.239 4.5653c-.156.3171-.458.5373-.808.5884l-5.006.7317c-.372.0544-.716.2308-.979.5018-.66.6807-.646 1.7703.031 2.4338l3.626 3.5553c.251.246.365.599.306.946l-.856 5.021c-.064.373-.003.757.172 1.092.44.842 1.474 1.165 2.311.723z" fill-rule="evenodd"/><path d="m67.8451 89.1171 9.7904 9.6376c.3445.3391.3459.8903.0033 1.2312-.1651.1641-.3896.2571-.6237.2571h-.5021c-.3663 0-.6632.296-.6632.663v8.63c0 .722-.5908 1.306-1.3195 1.306h-2.0913c-.6161 0-1.1503-.422-1.2867-1.016l-1.7655-7.692c-.1365-.595-.6706-1.017-1.2868-1.017h-2.3573c-.6162 0-1.1503.422-1.2868 1.017l-1.7655 7.692c-.1365.594-.6706 1.016-1.2868 1.016h-2.0912c-.7288 0-1.3196-.584-1.3196-1.306v-8.63c0-.367-.2969-.663-.6631-.663h-.6604c-.4859 0-.8797-.3903-.8797-.8711 0-.2339.0951-.4579.2638-.6216l9.9374-9.6399c.5158-.5004 1.3423-.4974 1.8543.0067z"/></g></svg>