<svg fill="none" height="200" viewBox="0 0 200 200" width="200" xmlns="http://www.w3.org/2000/svg"><g fill="#919eab"><rect height="25.2632" opacity=".24" rx="8" width="120" x="40" y="53"/><path d="m59.6052 64.7107h-3.6842v-3.6842c0-.5087-.4124-.921-.9211-.921-.5086 0-.921.4123-.921.921v3.6842h-3.6842c-.5087 0-.9211.4124-.9211.9211s.4124.921.9211.921h3.6842v3.6842c0 .5087.4124.9211.921.9211.5087 0 .9211-.4124.9211-.9211v-3.6842h3.6842c.5087 0 .9211-.4123.9211-.921s-.4124-.9211-.9211-.9211z" opacity=".48"/><rect height="7.89474" rx="3.94737" width="63.1579" x="70" y="61.6841"/><rect height="25.2632" opacity=".24" rx="8" width="110.526" x="49.4736" y="87.7368"/><path d="m69.0788 101.553h-9.2105c-.5087 0-.921-.442-.921-.987s.4123-.9869.921-.9869h9.2105c.5087 0 .9211.4419.9211.9869s-.4124.987-.9211.987z" opacity=".48"/><rect height="7.89474" opacity=".48" rx="3.94737" width="53.6842" x="79.4736" y="96.4209"/><rect height="25.2632" opacity=".24" rx="8" width="110.526" x="49.4736" y="122.474"/><path d="m69.0788 136.29h-9.2105c-.5087 0-.921-.442-.921-.987s.4123-.987.921-.987h9.2105c.5087 0 .9211.442.9211.987s-.4124.987-.9211.987z" opacity=".48"/><rect height="7.89474" opacity=".24" rx="3.94737" width="53.6842" x="79.4736" y="131.158"/></g></svg>