<svg fill="none" height="200" viewBox="0 0 200 200" width="200" xmlns="http://www.w3.org/2000/svg"><g fill="#919eab"><path d="m110.557 125.463h-35.0921c-1.2473 0-2.3733.746-2.862 1.893l-6.6104 15.511c-.4895 1.148-1.6156 1.893-2.862 1.893h-13.3309c-2.2514 0-3.7575-2.32-2.8436-4.38l37.1959-83.8191c.4996-1.1248 1.614-1.85 2.8437-1.85h12.1455c1.2299 0 2.3439.7252 2.8439 1.85l37.196 83.8191c.914 2.06-.593 4.38-2.844 4.38h-13.343c-1.24 0-2.362-.737-2.855-1.876l-6.727-15.544c-.494-1.139-1.616-1.877-2.855-1.877zm-30.9804-15.436h26.8544l-13.3622-32.6753z"/><path d="m152.372 53.1104c.899 0 1.628.7293 1.628 1.63v90.0416c0 .9-.729 1.63-1.628 1.63h-10.29c-.9 0-1.628-.73-1.628-1.63s.729-1.631 1.628-1.631h8.662v-19.162h-5.125c-.9 0-1.628-.73-1.628-1.63 0-.901.728-1.631 1.628-1.631h5.125v-19.377h-8.683c-.899 0-1.628-.729-1.628-1.6302 0-.015.002-.0301.002-.046l-.002-.0451c0-.9008.729-1.6301 1.628-1.6301h8.683v-19.0335h-5.125c-.9 0-1.628-.7302-1.628-1.6309 0-.8999.728-1.6301 1.628-1.6301h5.125v-19.3346h-8.662c-.9 0-1.628-.7302-1.628-1.6301 0-.9007.729-1.63 1.628-1.63zm-40.292 89.9436c.899 0 1.628.73 1.628 1.631 0 .875-.69 1.59-1.556 1.628l-.072.002h-1.52c-.899 0-1.628-.731-1.628-1.63 0-.901.729-1.631 1.628-1.631zm-6.948 0c.9 0 1.629.73 1.629 1.631 0 .875-.69 1.59-1.556 1.628l-.073.002h-1.519c-.899 0-1.629-.731-1.629-1.63 0-.901.73-1.631 1.629-1.631zm-6.9469 0c.8989 0 1.6282.73 1.6282 1.631 0 .875-.6896 1.59-1.5556 1.628l-.0726.002h-1.5195c-.8997 0-1.6282-.731-1.6282-1.63 0-.901.7285-1.631 1.6282-1.631zm-6.9469 0c.8988 0 1.6281.73 1.6281 1.631 0 .875-.6904 1.59-1.5557 1.628l-.0724.002h-1.5196c-.8997 0-1.6281-.731-1.6281-1.63 0-.901.7284-1.631 1.6281-1.631zm-6.9479 0c.8997 0 1.629.73 1.629 1.631 0 .875-.6904 1.59-1.5564 1.628l-.0726.002h-1.5195c-.8989 0-1.6282-.731-1.6282-1.63 0-.901.7293-1.631 1.6282-1.631zm-6.947 0c.8989 0 1.6282.73 1.6282 1.631 0 .875-.6904 1.59-1.5557 1.628l-.0725.002h-1.5195c-.8997 0-1.6282-.731-1.6282-1.63 0-.901.7285-1.631 1.6282-1.631zm-6.947 0c.8989 0 1.6282.73 1.6282 1.631 0 .875-.6904 1.59-1.5557 1.628l-.0725.002h-1.5195c-.8997 0-1.6282-.731-1.6282-1.63 0-.901.7285-1.631 1.6282-1.631zm6.541-34.741c.8989 0 1.6282.73 1.6282 1.63s-.7293 1.631-1.6282 1.631h-1.5203c-.8989 0-1.6282-.731-1.6282-1.631s.7293-1.63 1.6282-1.63zm-6.9478 0c.8997 0 1.629.73 1.629 1.63s-.7293 1.631-1.629 1.631h-1.5195c-.8989 0-1.6282-.731-1.6282-1.631s.7293-1.63 1.6282-1.63zm-6.947 0c.8997 0 1.6282.73 1.6282 1.63s-.7285 1.631-1.6282 1.631h-1.5195c-.8997 0-1.6282-.731-1.6282-1.631s.7285-1.63 1.6282-1.63zm-6.947 0c.8989 0 1.6282.73 1.6282 1.63s-.7293 1.631-1.6282 1.631h-1.5204c-.8988 0-1.6281-.731-1.6281-1.631s.7293-1.63 1.6281-1.63zm-6.9478 0c.8997 0 1.629.73 1.629 1.63s-.7293 1.631-1.629 1.631h-1.5196c-.8988 0-1.6281-.731-1.6281-1.631s.7293-1.63 1.6281-1.63zm87.5563-55.313c.899 0 1.629.7301 1.629 1.63 0 .9008-.73 1.6301-1.629 1.6301h-1.519c-.9 0-1.628-.7293-1.628-1.6301 0-.8999.728-1.63 1.628-1.63zm-6.947 0c.899 0 1.629.7301 1.629 1.63 0 .9008-.73 1.6301-1.629 1.6301h-1.52c-.899 0-1.628-.7293-1.628-1.6301 0-.8999.729-1.63 1.628-1.63zm-6.947 0c.899 0 1.629.7301 1.629 1.63 0 .9008-.73 1.6301-1.629 1.6301h-1.52c-.899 0-1.628-.7293-1.628-1.6301 0-.8999.728-1.63 1.628-1.63zm-6.947 0c.898 0 1.628.7301 1.628 1.63 0 .9008-.73 1.6301-1.628 1.6301h-1.52c-.9 0-1.628-.7293-1.628-1.6301 0-.8999.728-1.63 1.628-1.63zm-6.947 0c.898 0 1.628.7301 1.628 1.63 0 .9008-.73 1.6301-1.628 1.6301h-1.521c-.899 0-1.628-.7293-1.628-1.6301 0-.8999.729-1.63 1.628-1.63zm-6.948 0c.899 0 1.629.7301 1.629 1.63 0 .9008-.73 1.6301-1.629 1.6301h-1.52c-.8987 0-1.628-.7293-1.628-1.6301 0-.8999.7293-1.63 1.628-1.63zm-6.9473 0c.8989 0 1.6282.7301 1.6282 1.63 0 .9008-.7293 1.6301-1.6282 1.6301h-1.5195c-.8997 0-1.6282-.7293-1.6282-1.6301 0-.8999.7285-1.63 1.6282-1.63zm-6.947 0c.8989 0 1.6282.7301 1.6282 1.63 0 .9008-.7293 1.6301-1.6282 1.6301h-1.5203c-.8989 0-1.6282-.7293-1.6282-1.6301 0-.8999.7293-1.63 1.6282-1.63z" opacity=".24"/></g></svg>