<svg fill="none" height="200" viewBox="0 0 200 200" width="200" xmlns="http://www.w3.org/2000/svg"><g fill="#919eab"><rect height="16" rx="8" width="48" x="117" y="92"/><rect height="16" opacity=".48" rx="8" width="48" x="35" y="52"/><rect height="16" opacity=".24" rx="8" width="48" x="35" y="132"/><path d="m100 113.171c.835 0 1.5.506 1.5 1.34v10.978c0 .834-.665 1.34-1.5 1.34-.8347 0-1.5-.506-1.5-1.34v-10.978c0-.834.6653-1.34 1.5-1.34z" opacity=".24"/><path d="m100 73.1707c.835 0 1.5.5059 1.5 1.3406v10.9774c0 .8347-.665 1.3406-1.5 1.3406-.8347 0-1.5-.5059-1.5-1.3406v-10.9774c0-.8347.6653-1.3406 1.5-1.3406z" opacity=".24"/><path d="m100 46.8361c-.8342 0-1.5-.5123-1.5-1.3465v-6.8503c0-.9836.6-1.6393 1.5-1.6393s1.5.6557 1.5 1.6393v6.8503c0 .8342-.666 1.3465-1.5 1.3465z" opacity=".24"/><path d="m100 153.164c.834 0 1.5.512 1.5 1.346v6.851c0 .983-.6 1.639-1.5 1.639s-1.5-.656-1.5-1.639v-6.851c0-.834.6658-1.346 1.5-1.346z" opacity=".24"/><circle cx="100" cy="60" opacity=".24" r="9"/><circle cx="100" cy="100" opacity=".24" r="9"/><circle cx="100" cy="140" opacity=".24" r="9"/></g></svg>