<?xml version="1.0" standalone="no"?>
<!DOCTYPE svg PUBLIC "-//W3C//DTD SVG 20010904//EN"
 "http://www.w3.org/TR/2001/REC-SVG-20010904/DTD/svg10.dtd">
<svg version="1.0" xmlns="http://www.w3.org/2000/svg"
 width="700.000000pt" height="700.000000pt" viewBox="0 0 700.000000 700.000000"
 preserveAspectRatio="xMidYMid meet">
<metadata>
Created by potrace 1.14, written by Peter Selinger 2001-2017
</metadata>
<g transform="translate(0.000000,700.000000) scale(0.100000,-0.100000)"
fill="#000000" stroke="none">
<path d="M2474 6923 c-60 -43 -120 -86 -134 -95 -31 -21 -62 -43 -371 -263
-139 -99 -257 -183 -262 -186 -5 -4 28 -55 73 -114 154 -198 355 -475 555
-762 58 -83 207 -304 419 -618 45 -66 85 -125 91 -132 5 -7 64 -89 130 -183
223 -319 263 -370 287 -370 13 0 55 7 93 15 377 80 758 -158 855 -534 49 -189
23 -384 -77 -558 -29 -52 -41 -83 -37 -97 13 -39 625 -872 674 -916 3 -3 21
-25 40 -50 19 -25 37 -47 40 -50 3 -3 18 -23 35 -45 16 -22 39 -51 51 -65 12
-14 72 -88 133 -165 62 -77 117 -147 124 -155 7 -8 87 -107 177 -220 91 -113
170 -210 175 -216 6 -6 24 -28 40 -49 17 -21 47 -59 68 -84 20 -25 37 -48 37
-51 0 -3 9 -11 21 -18 l21 -13 -6 1083 c-3 596 -9 1565 -12 2153 -3 589 -7
1223 -8 1410 l-2 340 -74 -1 c-74 -1 -283 -12 -350 -19 -19 -2 -82 -6 -140
-10 -58 -3 -123 -8 -145 -10 -22 -2 -96 -7 -165 -11 -69 -4 -138 -8 -155 -9
-16 -2 -44 -3 -62 -4 -32 -1 -32 -2 -28 -43 2 -24 6 -78 10 -121 4 -43 8 -88
10 -100 2 -12 6 -67 10 -122 4 -55 8 -113 10 -130 2 -16 6 -64 10 -105 3 -41
8 -91 9 -110 2 -19 7 -75 11 -125 4 -49 8 -103 10 -120 2 -16 6 -66 10 -110 3
-44 8 -96 10 -115 2 -19 7 -71 10 -115 3 -44 7 -93 9 -110 2 -16 7 -73 11
-125 3 -52 8 -111 10 -130 4 -35 17 -191 17 -200 1 -42 -11 -29 -128 140 -45
63 -98 140 -119 170 -108 154 -532 768 -690 998 -693 1011 -1105 1594 -1210
1710 -9 10 -34 -4 -121 -65z"/>
<path d="M1285 5328 c8 -1615 22 -3959 24 -4196 l1 -53 113 6 c61 3 132 8 157
10 25 2 88 6 140 10 102 6 208 13 305 20 33 2 110 7 170 11 61 4 121 8 135 9
14 2 42 3 64 4 l38 1 -6 68 c-10 98 -16 170 -21 232 -2 30 -7 80 -10 110 -2
30 -7 83 -10 117 -7 86 -14 172 -20 240 -2 32 -7 90 -10 128 -3 39 -8 90 -10
115 -5 50 -14 148 -20 225 -2 28 -6 75 -9 105 -5 52 -8 87 -22 250 -3 36 -7
83 -9 105 -19 203 -19 207 1 195 11 -7 28 -26 40 -44 11 -17 74 -107 139 -201
65 -93 182 -263 261 -376 137 -199 196 -284 258 -373 57 -82 543 -784 633
-916 51 -74 96 -139 101 -145 4 -5 48 -68 96 -140 136 -198 461 -657 501 -706
20 -24 54 -65 76 -91 l41 -48 43 33 c56 40 106 76 500 354 176 123 324 229
329 233 5 5 -35 67 -95 147 -57 76 -106 140 -109 143 -5 5 -47 62 -129 173
-139 190 -352 498 -676 977 -169 250 -490 702 -514 724 -14 12 -28 16 -43 12
-118 -33 -262 -46 -343 -31 -176 33 -296 96 -416 215 -133 133 -206 299 -213
490 -6 156 44 321 136 453 13 17 18 36 14 50 -12 43 -553 777 -754 1022 -4 6
-120 150 -257 320 -487 608 -602 748 -616 753 -4 2 -6 -331 -4 -740z"/>
<path d="M3402 3925 c-125 -29 -231 -114 -288 -230 -124 -251 23 -552 300
-609 269 -57 516 146 516 424 0 227 -178 414 -404 424 -39 2 -95 -2 -124 -9z"/>
</g>
</svg>
